<?xml version="1.0" encoding="UTF-8" standalone="no"?>
<!-- Created with Inkscape (http://www.inkscape.org/) -->

<svg
   xmlns:dc="http://purl.org/dc/elements/1.1/"
   xmlns:cc="http://creativecommons.org/ns#"
   xmlns:rdf="http://www.w3.org/1999/02/22-rdf-syntax-ns#"
   xmlns:svg="http://www.w3.org/2000/svg"
   xmlns="http://www.w3.org/2000/svg"
   xmlns:sodipodi="http://sodipodi.sourceforge.net/DTD/sodipodi-0.dtd"
   xmlns:inkscape="http://www.inkscape.org/namespaces/inkscape"
   width="477.75"
   height="249.41908"
   id="svg5558"
   version="1.1"
   inkscape:version="0.48.5 r10040"
   sodipodi:docname="array.svg">
  <defs
     id="defs5560" />
  <sodipodi:namedview
     id="base"
     pagecolor="#ffffff"
     bordercolor="#666666"
     borderopacity="1.0"
     inkscape:pageopacity="0.0"
     inkscape:pageshadow="2"
     inkscape:zoom="1.979899"
     inkscape:cx="78.596281"
     inkscape:cy="264.1124"
     inkscape:document-units="px"
     inkscape:current-layer="text13117"
     showgrid="false"
     fit-margin-top="1"
     fit-margin-left="1"
     fit-margin-right="1"
     fit-margin-bottom="1"
     inkscape:window-width="1280"
     inkscape:window-height="743"
     inkscape:window-x="0"
     inkscape:window-y="22"
     inkscape:window-maximized="1" />
  <metadata
     id="metadata5563">
    <rdf:RDF>
      <cc:Work
         rdf:about="">
        <dc:format>image/svg+xml</dc:format>
        <dc:type
           rdf:resource="http://purl.org/dc/dcmitype/StillImage" />
        <dc:title />
      </cc:Work>
    </rdf:RDF>
  </metadata>
  <g
     inkscape:label="Layer 1"
     inkscape:groupmode="layer"
     id="layer1"
     transform="translate(109.59375,-1136.9872)">
    <g
       style="font-size:30.45777893px;font-style:normal;font-weight:normal;line-height:125%;letter-spacing:0px;word-spacing:0px;fill:#4d4d4d;fill-opacity:1;stroke:none;font-family:Sans"
       id="text13117">
      <path
         d="m -82.358151,1150.4514 -0.984017,3.9361 -1.968034,0 3.717397,-15.307 2.842716,0 3.717398,15.307 -1.968034,0 -0.984017,-3.9361 -4.373409,0 m 2.230439,-9.1842 -0.08747,0 -1.814964,7.6535 3.717397,0 -1.814964,-7.6535"
         style="font-size:21.86704636px;font-variant:normal;font-stretch:normal;fill:#4d4d4d;font-family:Cuprum;-inkscape-font-specification:Cuprum"
         id="path10574" />
      <path
         d="m -71.211082,1154.3875 -1.968034,0 0,-10.9336 1.661895,0 0.109335,0.8747 0.109336,0 c 0.262401,-0.2187 0.612273,-0.4155 1.049618,-0.5904 0.451914,-0.1895 1.005879,-0.2843 1.661895,-0.2843 l 1.093353,0 0,1.6401 -2.186705,0 c -0.276987,0 -0.54668,0.036 -0.809081,0.1093 -0.262408,0.058 -0.502945,0.1676 -0.721612,0.328 l 0,8.8562"
         style="font-size:21.86704636px;font-variant:normal;font-stretch:normal;fill:#4d4d4d;font-family:Cuprum;-inkscape-font-specification:Cuprum"
         id="path10576" />
      <path
         d="m -63.865121,1154.3875 -1.968034,0 0,-10.9336 1.661896,0 0.109335,0.8747 0.109335,0 c 0.262401,-0.2187 0.612274,-0.4155 1.049618,-0.5904 0.451915,-0.1895 1.005879,-0.2843 1.661896,-0.2843 l 1.093352,0 0,1.6401 -2.186704,0 c -0.276988,0 -0.546681,0.036 -0.809081,0.1093 -0.262408,0.058 -0.502946,0.1676 -0.721613,0.328 l 0,8.8562"
         style="font-size:21.86704636px;font-variant:normal;font-stretch:normal;fill:#4d4d4d;font-family:Cuprum;-inkscape-font-specification:Cuprum"
         id="path10578" />
      <path
         d="m -53.671318,1149.03 -1.530694,0 c -0.553969,0 -1.020466,0.1458 -1.399491,0.4374 -0.379031,0.277 -0.568546,0.8236 -0.568543,1.64 -3e-6,0.4373 0.05102,0.8018 0.15307,1.0933 0.102043,0.277 0.240534,0.4957 0.415473,0.6561 0.174933,0.1603 0.379025,0.2769 0.612278,0.3498 0.247822,0.058 0.510226,0.088 0.787213,0.088 0.276978,0 0.561249,-0.044 0.852815,-0.1312 0.291555,-0.088 0.517514,-0.1895 0.677879,-0.3061 l 0,-3.8268 m -2.186705,5.5761 c -0.495657,0 -0.947575,-0.051 -1.355757,-0.153 -0.393609,-0.087 -0.736193,-0.2625 -1.027751,-0.5249 -0.276984,-0.2624 -0.495654,-0.6195 -0.656011,-1.0714 -0.16036,-0.452 -0.240539,-1.0351 -0.240538,-1.7494 -10e-7,-0.6852 0.08018,-1.2464 0.240538,-1.6838 0.160357,-0.4373 0.379027,-0.7799 0.656011,-1.0277 0.291558,-0.2624 0.634142,-0.4374 1.027751,-0.5248 0.408182,-0.1021 0.8601,-0.1531 1.355757,-0.1531 0.33529,0 0.699741,0.022 1.093352,0.066 0.393601,0.044 0.758052,0.095 1.093353,0.1531 l 0,-0.984 c -7e-6,-0.4957 -0.05832,-0.8966 -0.174937,-1.2027 -0.102052,-0.3207 -0.255121,-0.5686 -0.459208,-0.7435 -0.204098,-0.1749 -0.459213,-0.2916 -0.765346,-0.3499 -0.291566,-0.073 -0.62686,-0.1093 -1.005884,-0.1093 l -2.186705,0 0,-0.8747 c 0.335292,-0.1166 0.743477,-0.2187 1.224555,-0.3061 0.495649,-0.088 0.962146,-0.1312 1.39949,-0.1312 0.656007,0 1.224549,0.051 1.70563,0.153 0.495646,0.1021 0.903831,0.2916 1.224555,0.5686 0.335287,0.2624 0.583113,0.6414 0.743479,1.1371 0.174928,0.481 0.262396,1.1006 0.262405,1.8587 l 0,7.4348 -1.640029,0 -0.109335,-0.6561 -0.109335,0 c -0.276989,0.277 -0.619572,0.4957 -1.027751,0.6561 -0.40819,0.1457 -0.830953,0.2186 -1.268289,0.2186"
         style="font-size:21.86704636px;font-variant:normal;font-stretch:normal;fill:#4d4d4d;font-family:Cuprum;-inkscape-font-specification:Cuprum"
         id="path10580" />
      <path
         d="m -45.488261,1154.6061 c -0.524813,0 -0.998599,-0.051 -1.421358,-0.153 -0.408188,-0.087 -0.75806,-0.2552 -1.049618,-0.503 -0.291563,-0.2478 -0.517522,-0.5831 -0.677879,-1.0059 -0.16036,-0.4227 -0.240539,-0.9621 -0.240537,-1.6181 l 0,-7.8722 1.968034,0 0,7.8722 c -3e-6,0.379 0.05102,0.6997 0.153069,0.9621 0.102043,0.2478 0.247823,0.4519 0.437341,0.6123 0.18951,0.1458 0.408181,0.2478 0.656012,0.3061 0.247821,0.058 0.524804,0.088 0.830947,0.088 0.276977,0 0.561249,-0.044 0.852815,-0.1312 0.291554,-0.088 0.517513,-0.1895 0.677879,-0.3061 l 0,-9.4029 1.968034,0 0,10.0589 c -9e-6,1.035 -0.08748,1.9024 -0.262405,2.6021 -0.160367,0.6998 -0.422771,1.261 -0.787213,1.6838 -0.349881,0.4228 -0.801799,0.7216 -1.355757,0.8966 -0.553972,0.1895 -1.209982,0.2842 -1.968034,0.2842 -0.437346,0 -0.903842,-0.044 -1.399491,-0.1312 -0.481078,-0.087 -0.889263,-0.1895 -1.224555,-0.3061 l 0,-0.8747 2.186705,0 c 0.495648,0 0.91841,-0.058 1.268288,-0.1749 0.364445,-0.1167 0.663295,-0.3207 0.896549,-0.6123 0.233242,-0.277 0.400889,-0.6487 0.502942,-1.1152 0.116618,-0.4519 0.17493,-1.0205 0.174937,-1.7057 -0.335302,0.1604 -0.677885,0.2916 -1.027752,0.3937 -0.3353,0.102 -0.721617,0.153 -1.158953,0.153"
         style="font-size:21.86704636px;font-variant:normal;font-stretch:normal;fill:#4d4d4d;font-family:Cuprum;-inkscape-font-specification:Cuprum"
         id="path10582" />
      <path
         d="m -31.173884,1154.3875 -2.952052,-10.9336 1.858699,0 2.470977,9.0749 0.08747,0 2.470976,-9.0749 1.858699,0 -2.952051,10.9336 -2.842716,0"
         style="font-size:21.86704636px;font-variant:normal;font-stretch:normal;fill:#4d4d4d;font-family:Cuprum;-inkscape-font-specification:Cuprum"
         id="path10584" />
      <path
         d="m -18.820713,1149.03 -1.530694,0 c -0.553969,0 -1.020466,0.1458 -1.399491,0.4374 -0.379031,0.277 -0.568546,0.8236 -0.568543,1.64 -3e-6,0.4373 0.05102,0.8018 0.15307,1.0933 0.102043,0.277 0.240534,0.4957 0.415473,0.6561 0.174933,0.1603 0.379025,0.2769 0.612278,0.3498 0.247822,0.058 0.510226,0.088 0.787213,0.088 0.276978,0 0.561249,-0.044 0.852815,-0.1312 0.291555,-0.088 0.517514,-0.1895 0.677879,-0.3061 l 0,-3.8268 m -2.186705,5.5761 c -0.495657,0 -0.947575,-0.051 -1.355757,-0.153 -0.393609,-0.087 -0.736193,-0.2625 -1.027751,-0.5249 -0.276984,-0.2624 -0.495654,-0.6195 -0.656011,-1.0714 -0.16036,-0.452 -0.240539,-1.0351 -0.240538,-1.7494 -1e-6,-0.6852 0.08018,-1.2464 0.240538,-1.6838 0.160357,-0.4373 0.379027,-0.7799 0.656011,-1.0277 0.291558,-0.2624 0.634142,-0.4374 1.027751,-0.5248 0.408182,-0.1021 0.8601,-0.1531 1.355757,-0.1531 0.33529,0 0.699741,0.022 1.093352,0.066 0.393601,0.044 0.758052,0.095 1.093353,0.1531 l 0,-0.984 c -7e-6,-0.4957 -0.05832,-0.8966 -0.174937,-1.2027 -0.102052,-0.3207 -0.255121,-0.5686 -0.459208,-0.7435 -0.204098,-0.1749 -0.459213,-0.2916 -0.765346,-0.3499 -0.291566,-0.073 -0.62686,-0.1093 -1.005884,-0.1093 l -2.186705,0 0,-0.8747 c 0.335292,-0.1166 0.743477,-0.2187 1.224555,-0.3061 0.495649,-0.088 0.962146,-0.1312 1.39949,-0.1312 0.656007,0 1.224549,0.051 1.70563,0.153 0.495646,0.1021 0.903831,0.2916 1.224555,0.5686 0.335287,0.2624 0.583113,0.6414 0.743479,1.1371 0.174928,0.481 0.262396,1.1006 0.262405,1.8587 l 0,7.4348 -1.640029,0 -0.109335,-0.6561 -0.109335,0 c -0.276989,0.277 -0.619572,0.4957 -1.027751,0.6561 -0.40819,0.1457 -0.830953,0.2186 -1.268289,0.2186"
         style="font-size:21.86704636px;font-variant:normal;font-stretch:normal;fill:#4d4d4d;font-family:Cuprum;-inkscape-font-specification:Cuprum"
         id="path10586" />
      <path
         d="m -13.917709,1139.0805 1.968034,0 0,15.307 -1.968034,0 0,-15.307"
         style="font-size:21.86704636px;font-variant:normal;font-stretch:normal;fill:#4d4d4d;font-family:Cuprum;-inkscape-font-specification:Cuprum"
         id="path10588" />
      <path
         d="m -3.4112823,1143.4539 1.9680341,0 0,10.9336 -1.6400285,0 -0.1093352,-0.6561 -0.1093352,0 c -0.2769894,0.277 -0.6195728,0.4957 -1.0277512,0.6561 -0.4081905,0.1457 -0.830953,0.2186 -1.2682887,0.2186 -0.5248134,0 -0.9985989,-0.051 -1.421358,-0.153 -0.4081878,-0.087 -0.7580602,-0.2552 -1.0496182,-0.503 -0.2915627,-0.2478 -0.5175219,-0.5831 -0.6778785,-1.0059 -0.1603598,-0.4227 -0.2405389,-0.9621 -0.2405375,-1.6181 l 0,-7.8722 1.9680342,0 0,7.8722 c -3.4e-6,0.379 0.05102,0.6997 0.1530693,0.9621 0.1020426,0.2478 0.2478228,0.4519 0.437341,0.6123 0.1895102,0.1458 0.4081804,0.2478 0.6560113,0.3061 0.2478217,0.058 0.524804,0.088 0.8309478,0.088 0.2769768,0 0.5612482,-0.044 0.8528148,-0.1312 0.291554,-0.088 0.5175133,-0.1895 0.6778785,-0.3061 l 0,-9.4029"
         style="font-size:21.86704636px;font-variant:normal;font-stretch:normal;fill:#4d4d4d;font-family:Cuprum;-inkscape-font-specification:Cuprum"
         id="path10590" />
      <path
         d="m 8.6070573,1149.5767 -5.6854321,0 c -2.9e-6,0.7143 0.058309,1.312 0.1749364,1.7931 0.116621,0.4665 0.2915572,0.8455 0.5248091,1.1371 0.2478226,0.277 0.56125,0.4811 0.940283,0.6123 0.3936019,0.1166 0.8673874,0.1749 1.421358,0.1749 l 2.1867047,0 0,0.8747 c -0.3353026,0.1166 -0.7507761,0.2187 -1.2464217,0.3061 -0.4810815,0.088 -0.940289,0.1312 -1.3776239,0.1312 -0.8163745,0 -1.5161193,-0.087 -2.0992365,-0.2624 -0.5831241,-0.1895 -1.0641986,-0.5029 -1.443225,-0.9403 -0.3644525,-0.4373 -0.6341458,-1.0204 -0.8090807,-1.7493 -0.1603594,-0.7289 -0.24053852,-1.6401 -0.24053754,-2.7334 -9.8e-7,-1.0934 0.0801781,-2.0045 0.24053754,-2.7334 0.1603569,-0.7289 0.4008942,-1.312 0.7216125,-1.7494 0.3207144,-0.4373 0.7216099,-0.7434 1.2026875,-0.9184 0.4810714,-0.1895 1.0350361,-0.2842 1.6618956,-0.2842 0.6268499,0 1.1808145,0.095 1.6618955,0.2842 0.4810681,0.175 0.8819635,0.4811 1.2026875,0.9184 0.3207087,0.4374 0.561246,1.0205 0.7216126,1.7494 0.1603498,0.7289 0.2405288,1.64 0.2405375,2.7334 l 0,0.656 m -1.9680342,-1.312 c -6.7e-6,-0.7435 -0.05103,-1.3558 -0.1530693,-1.8369 -0.1020526,-0.4956 -0.2405438,-0.8892 -0.4154739,-1.1808 -0.1603643,-0.2915 -0.3571675,-0.4956 -0.5904102,-0.6123 -0.2186758,-0.1311 -0.4519241,-0.1967 -0.6997455,-0.1968 -0.2478311,1e-4 -0.4883684,0.066 -0.7216126,0.1968 -0.2186743,0.1167 -0.4154775,0.3208 -0.5904102,0.6123 -0.1603617,0.2916 -0.2915638,0.6852 -0.3936068,1.1808 -0.1020493,0.4811 -0.1530723,1.0934 -0.1530694,1.8369 l 3.7173979,0"
         style="font-size:21.86704636px;font-variant:normal;font-stretch:normal;fill:#4d4d4d;font-family:Cuprum;-inkscape-font-specification:Cuprum"
         id="path10592" />
      <path
         d="m 12.312498,1146.078 c -3e-6,0.4373 0.12391,0.7872 0.371739,1.0496 0.262402,0.2478 0.583118,0.4665 0.96215,0.656 0.379025,0.1895 0.787209,0.3717 1.224555,0.5467 0.451913,0.1603 0.867387,0.3717 1.246422,0.6341 0.379022,0.2624 0.692449,0.5977 0.940283,1.0059 0.262396,0.3936 0.393599,0.9184 0.393607,1.5744 -8e-6,0.5977 -0.08748,1.0934 -0.262405,1.487 -0.160366,0.3936 -0.42277,0.707 -0.787214,0.9403 -0.349879,0.2332 -0.801797,0.3936 -1.355757,0.4811 -0.55397,0.102 -1.20998,0.153 -1.968034,0.153 -0.437344,0 -0.90384,-0.044 -1.399491,-0.1312 -0.481076,-0.087 -0.889261,-0.1895 -1.224554,-0.3061 l 0,-0.8747 2.186704,0 c 0.991302,0 1.712914,-0.1239 2.164838,-0.3717 0.451913,-0.2624 0.677872,-0.7217 0.677878,-1.3777 -6e-6,-0.4373 -0.131208,-0.7799 -0.393606,-1.0277 -0.247832,-0.2624 -0.56126,-0.4884 -0.940283,-0.6779 -0.379033,-0.1895 -0.794507,-0.3644 -1.246422,-0.5248 -0.437344,-0.1749 -0.845528,-0.3936 -1.224555,-0.656 -0.37903,-0.2624 -0.699747,-0.5904 -0.96215,-0.984 -0.247827,-0.4082 -0.37174,-0.9403 -0.37174,-1.5963 0,-1.0934 0.328005,-1.8368 0.984018,-2.2305 0.656009,-0.4081 1.640025,-0.6122 2.952051,-0.6122 0.437336,0 0.896543,0.044 1.377624,0.1312 0.495646,0.087 0.91112,0.1895 1.246421,0.3061 l 0,0.8747 -2.186704,0 c -0.77264,0 -1.370339,0.1166 -1.793098,0.3499 -0.408188,0.2332 -0.61228,0.6268 -0.612277,1.1808"
         style="font-size:21.86704636px;font-variant:normal;font-stretch:normal;fill:#4d4d4d;font-family:Cuprum;-inkscape-font-specification:Cuprum"
         id="path10594" />
      <path
         d="m 24.766463,1148.2647 c -1e-6,-0.7143 0.04373,-1.4651 0.131203,-2.2523 0.102044,-0.7872 0.269692,-1.6109 0.502942,-2.471 0.233246,-0.8601 0.546674,-1.7494 0.940283,-2.6678 0.393603,-0.933 0.889256,-1.8951 1.486959,-2.8864 l 1.224554,0.656 c -0.364455,0.7726 -0.677883,1.5307 -0.940283,2.2742 -0.262408,0.7434 -0.481079,1.5088 -0.656011,2.296 -0.17494,0.7726 -0.306142,1.5744 -0.393607,2.4054 -0.07289,0.8309 -0.109338,1.7129 -0.109335,2.6459 -3e-6,0.933 0.03644,1.8149 0.109335,2.6459 0.08747,0.8309 0.218667,1.64 0.393607,2.4272 0.174932,0.7727 0.393603,1.5307 0.656011,2.2742 0.2624,0.7581 0.575828,1.5161 0.940283,2.2742 l -1.224554,0.656 c -0.597703,-0.9767 -1.093356,-1.9316 -1.486959,-2.8646 -0.393609,-0.933 -0.707037,-1.8295 -0.940283,-2.6896 -0.23325,-0.8601 -0.400898,-1.6838 -0.502942,-2.471 -0.08747,-0.7872 -0.131204,-1.538 -0.131203,-2.2523"
         style="font-size:21.86704636px;font-variant:normal;font-stretch:normal;fill:#4d4d4d;font-family:Cuprum;-inkscape-font-specification:Cuprum"
         id="path10596" />
      <path
         d="m 32.771849,1145.094 0,5.7947 c -4e-6,0.4957 0.04373,0.9039 0.131202,1.2246 0.102042,0.3061 0.225956,0.5467 0.37174,0.7216 0.160354,0.1749 0.328001,0.2988 0.502942,0.3717 0.189509,0.058 0.364446,0.088 0.524809,0.088 l 1.968034,0 0,0.8747 c -0.131209,0.058 -0.306145,0.1166 -0.524809,0.1749 -0.204099,0.044 -0.422769,0.088 -0.656011,0.1312 -0.218676,0.044 -0.437347,0.073 -0.656012,0.088 -0.218675,0.029 -0.408189,0.044 -0.568543,0.044 -0.437345,0 -0.84553,-0.051 -1.224554,-0.153 -0.364454,-0.1021 -0.685171,-0.2843 -0.96215,-0.5467 -0.276985,-0.277 -0.495656,-0.656 -0.656012,-1.1371 -0.145782,-0.4811 -0.218672,-1.1079 -0.21867,-1.8806 l 0,-5.7947 -1.312023,0 0,-1.4214 1.312023,0 0,-2.624 1.968034,0 0,2.624 3.061386,0 0,0.984 c -0.335301,0.1166 -0.750774,0.2187 -1.246421,0.3062 -0.48108,0.087 -0.940288,0.1312 -1.377624,0.1312 l -0.437341,0"
         style="font-size:21.86704636px;font-variant:normal;font-stretch:normal;fill:#4d4d4d;font-family:Cuprum;-inkscape-font-specification:Cuprum"
         id="path10598" />
      <path
         d="m 41.42471,1154.6061 c -0.524813,0 -0.998598,-0.051 -1.421358,-0.153 -0.408187,-0.087 -0.75806,-0.2552 -1.049618,-0.503 -0.291562,-0.2478 -0.517522,-0.5831 -0.677878,-1.0059 -0.16036,-0.4227 -0.240539,-0.9621 -0.240538,-1.6181 l 0,-7.8722 1.968034,0 0,7.8722 c -3e-6,0.379 0.05102,0.6997 0.15307,0.9621 0.102042,0.2478 0.247823,0.4519 0.437341,0.6123 0.18951,0.1458 0.40818,0.2478 0.656011,0.3061 0.247822,0.058 0.524804,0.088 0.830948,0.088 0.276977,0 0.561248,-0.044 0.852815,-0.1312 0.291554,-0.088 0.517513,-0.1895 0.677878,-0.3061 l 0,-9.4029 1.968034,0 0,10.0589 c -9e-6,1.035 -0.08748,1.9024 -0.262404,2.6021 -0.160367,0.6998 -0.422771,1.261 -0.787214,1.6838 -0.34988,0.4228 -0.801799,0.7216 -1.355757,0.8966 -0.553971,0.1895 -1.209982,0.2842 -1.968034,0.2842 -0.437345,0 -0.903842,-0.044 -1.399491,-0.1312 -0.481078,-0.087 -0.889262,-0.1895 -1.224555,-0.3061 l 0,-0.8747 2.186705,0 c 0.495648,0 0.918411,-0.058 1.268289,-0.1749 0.364445,-0.1167 0.663294,-0.3207 0.896549,-0.6123 0.233242,-0.277 0.400889,-0.6487 0.502942,-1.1152 0.116617,-0.4519 0.174929,-1.0205 0.174936,-1.7057 -0.335301,0.1604 -0.677885,0.2916 -1.027751,0.3937 -0.3353,0.102 -0.721618,0.153 -1.158954,0.153"
         style="font-size:21.86704636px;font-variant:normal;font-stretch:normal;fill:#4d4d4d;font-family:Cuprum;-inkscape-font-specification:Cuprum"
         id="path10600" />
      <path
         d="m 50.272321,1144.1099 c 0.276979,-0.2769 0.619562,-0.4883 1.027751,-0.6341 0.40818,-0.1604 0.830943,-0.2405 1.268289,-0.2405 0.568537,0 1.078767,0.095 1.530693,0.2842 0.451911,0.175 0.83094,0.4811 1.137086,0.9184 0.30613,0.4374 0.539379,1.0205 0.699746,1.7494 0.160349,0.7289 0.240528,1.64 0.240537,2.7334 -9e-6,1.0933 -0.08019,2.0045 -0.240537,2.7334 -0.160367,0.7289 -0.393616,1.312 -0.699746,1.7493 -0.306146,0.4374 -0.685175,0.7508 -1.137086,0.9403 -0.451926,0.175 -0.962156,0.2624 -1.530693,0.2624 -0.437346,0 -0.830953,-0.051 -1.180821,-0.153 -0.335299,-0.1021 -0.670593,-0.2333 -1.005884,-0.3937 l 0,4.7015 -1.968034,0 0,-15.307 1.640028,0 0.109336,0.656 0.109335,0 m 0.109335,8.7469 c 0.160355,0.1166 0.386314,0.2186 0.677878,0.3061 0.291557,0.087 0.575828,0.1312 0.852815,0.1312 0.349868,0 0.663295,-0.058 0.940283,-0.1749 0.291555,-0.1312 0.532092,-0.3572 0.721613,-0.6779 0.204085,-0.3353 0.357155,-0.7872 0.459208,-1.3558 0.116617,-0.5685 0.174929,-1.2901 0.174936,-2.1648 -7e-6,-0.8747 -0.05832,-1.589 -0.174936,-2.143 -0.102053,-0.5685 -0.255123,-1.0131 -0.459208,-1.3339 -0.189521,-0.3353 -0.430058,-0.5685 -0.721613,-0.6997 -0.276988,-0.1312 -0.590415,-0.1968 -0.940283,-0.1968 -0.276987,0 -0.561258,0.044 -0.852815,0.1312 -0.291564,0.088 -0.517523,0.1895 -0.677878,0.3061 l 0,7.8722"
         style="font-size:21.86704636px;font-variant:normal;font-stretch:normal;fill:#4d4d4d;font-family:Cuprum;-inkscape-font-specification:Cuprum"
         id="path10602" />
      <path
         d="m 65.794512,1149.5767 -5.685433,0 c -2e-6,0.7143 0.05831,1.312 0.174937,1.7931 0.116621,0.4665 0.291557,0.8455 0.524809,1.1371 0.247823,0.277 0.56125,0.4811 0.940283,0.6123 0.393602,0.1166 0.867387,0.1749 1.421358,0.1749 l 2.186705,0 0,0.8747 c -0.335303,0.1166 -0.750776,0.2187 -1.246422,0.3061 -0.481082,0.088 -0.940289,0.1312 -1.377624,0.1312 -0.816374,0 -1.516119,-0.087 -2.099236,-0.2624 -0.583125,-0.1895 -1.064199,-0.5029 -1.443225,-0.9403 -0.364453,-0.4373 -0.634146,-1.0204 -0.809081,-1.7493 -0.16036,-0.7289 -0.240539,-1.6401 -0.240538,-2.7334 -10e-7,-1.0934 0.08018,-2.0045 0.240538,-2.7334 0.160357,-0.7289 0.400894,-1.312 0.721612,-1.7494 0.320715,-0.4373 0.72161,-0.7434 1.202688,-0.9184 0.481071,-0.1895 1.035036,-0.2842 1.661895,-0.2842 0.62685,0 1.180815,0.095 1.661896,0.2842 0.481068,0.175 0.881963,0.4811 1.202687,0.9184 0.320709,0.4374 0.561246,1.0205 0.721613,1.7494 0.16035,0.7289 0.240529,1.64 0.240538,2.7334 l 0,0.656 m -1.968035,-1.312 c -6e-6,-0.7435 -0.05103,-1.3558 -0.153069,-1.8369 -0.102053,-0.4956 -0.240544,-0.8892 -0.415474,-1.1808 -0.160364,-0.2915 -0.357167,-0.4956 -0.59041,-0.6123 -0.218676,-0.1311 -0.451924,-0.1967 -0.699746,-0.1968 -0.247831,1e-4 -0.488368,0.066 -0.721612,0.1968 -0.218674,0.1167 -0.415478,0.3208 -0.59041,0.6123 -0.160362,0.2916 -0.291564,0.6852 -0.393607,1.1808 -0.102049,0.4811 -0.153072,1.0934 -0.15307,1.8369 l 3.717398,0"
         style="font-size:21.86704636px;font-variant:normal;font-stretch:normal;fill:#4d4d4d;font-family:Cuprum;-inkscape-font-specification:Cuprum"
         id="path10604" />
      <path
         d="m 75.73205,1139.0805 0,15.307 -1.968035,0 0,-15.307 1.968035,0"
         style="font-size:21.86704636px;font-variant:normal;font-stretch:normal;fill:#4d4d4d;font-family:Cuprum;-inkscape-font-specification:Cuprum"
         id="path10606" />
      <path
         d="m 87.550507,1146.734 c -1e-5,1.5307 -0.109346,2.8063 -0.328006,3.8267 -0.21868,1.0059 -0.546685,1.8077 -0.984017,2.4054 -0.437349,0.5977 -0.984025,1.0205 -1.640028,1.2683 -0.656019,0.2478 -1.421364,0.3717 -2.29604,0.3717 -0.656016,0 -1.268293,-0.036 -1.836832,-0.1093 -0.553968,-0.058 -1.107933,-0.1677 -1.661896,-0.328 l 0,-14.8696 c 0.553963,-0.1604 1.107928,-0.2697 1.661896,-0.328 0.568539,-0.073 1.180816,-0.1093 1.836832,-0.1094 0.874676,1e-4 1.640021,0.124 2.29604,0.3718 0.656003,0.2478 1.202679,0.6706 1.640028,1.2683 0.437332,0.5977 0.765337,1.4068 0.984017,2.4272 0.21866,1.0059 0.327996,2.2742 0.328006,3.8049 m -1.968034,0 c -9e-6,-1.2829 -0.08019,-2.3398 -0.240538,-3.1707 -0.160366,-0.831 -0.386325,-1.487 -0.677878,-1.9681 -0.27699,-0.4956 -0.619573,-0.8382 -1.027752,-1.0277 -0.393612,-0.1895 -0.838242,-0.2843 -1.333889,-0.2843 l -1.530694,0 0,12.9016 1.530694,0 c 0.495647,0 0.940277,-0.095 1.333889,-0.2843 0.408179,-0.1895 0.750762,-0.5248 1.027752,-1.0059 0.291553,-0.4956 0.517512,-1.1589 0.677878,-1.9899 0.16035,-0.8309 0.240529,-1.8878 0.240538,-3.1707"
         style="font-size:21.86704636px;font-variant:normal;font-stretch:normal;fill:#4d4d4d;font-family:Cuprum;-inkscape-font-specification:Cuprum"
         id="path10608" />
      <path
         d="m 91.476322,1152.0914 0,2.4054 -1.968034,0 0,-2.4054 1.968034,0 m 0,-8.6375 0,2.4054 -1.968034,0 0,-2.4054 1.968034,0"
         style="font-size:21.86704636px;font-variant:normal;font-stretch:normal;fill:#4d4d4d;font-family:Cuprum;-inkscape-font-specification:Cuprum"
         id="path10610" />
      <path
         d="m 112.2854,1148.2647 c -10e-6,0.7143 -0.051,1.4651 -0.15307,2.2523 -0.0875,0.7872 -0.24783,1.6109 -0.48108,2.471 -0.23325,0.8601 -0.54668,1.7566 -0.94028,2.6896 -0.39361,0.933 -0.88926,1.8879 -1.48696,2.8646 l -1.22455,-0.656 c 0.36445,-0.7581 0.67787,-1.5161 0.94028,-2.2742 0.2624,-0.7435 0.48107,-1.5015 0.65601,-2.2742 0.17494,-0.7872 0.29885,-1.5963 0.37174,-2.4272 0.0875,-0.831 0.1312,-1.7129 0.1312,-2.6459 0,-0.933 -0.0437,-1.815 -0.1312,-2.6459 -0.0729,-0.831 -0.1968,-1.6328 -0.37174,-2.4054 -0.17494,-0.7872 -0.39361,-1.5526 -0.65601,-2.296 -0.26241,-0.7435 -0.57583,-1.5016 -0.94028,-2.2742 l 1.22455,-0.656 c 0.5977,0.9913 1.09335,1.9534 1.48696,2.8864 0.3936,0.9184 0.70703,1.8077 0.94028,2.6678 0.23325,0.8601 0.39361,1.6838 0.48108,2.471 0.10204,0.7872 0.15306,1.538 0.15307,2.2523"
         style="font-size:21.86704636px;font-variant:normal;font-stretch:normal;fill:#4d4d4d;font-family:Cuprum;-inkscape-font-specification:Cuprum"
         id="path10616"
         inkscape:connector-curvature="0" />
      <g
         style="line-height:125%;fill:#4d4d4d;font-family:Sans"
         id="text13117-1"
         transform="translate(181.06984,58.083772)">
        <path
           d="m -79.871955,1096.5544 c -0.656016,0 -1.28287,-0.044 -1.880566,-0.1312 -0.597702,-0.087 -1.064198,-0.1896 -1.399491,-0.3062 l 0,-0.984 2.842716,0 c 0.40818,0 0.779919,-0.088 1.115219,-0.2624 0.335289,-0.1895 0.619561,-0.4884 0.852815,-0.8965 0.24782,-0.4228 0.437334,-0.9768 0.568543,-1.6619 0.131196,-0.6852 0.196797,-1.5307 0.196804,-2.5366 -0.335302,0.1166 -0.750775,0.2187 -1.246422,0.3061 -0.48108,0.088 -0.940288,0.1312 -1.377624,0.1312 -1.093355,0 -1.953458,-0.3644 -2.580311,-1.0933 -0.612279,-0.7289 -0.918417,-1.9681 -0.918416,-3.7174 -10e-7,-1.6473 0.328004,-2.8209 0.984017,-3.5206 0.670587,-0.7143 1.691048,-1.0715 3.061386,-1.0715 1.370329,0 2.383501,0.3572 3.03952,1.0715 0.670581,0.6997 1.005875,1.8733 1.005884,3.5206 l 0,4.8107 c -9e-6,1.1517 -0.09477,2.1284 -0.284272,2.9302 -0.189523,0.8018 -0.466505,1.4578 -0.830948,1.968 -0.34988,0.4957 -0.794509,0.8601 -1.333889,1.0934 -0.524815,0.2332 -1.129803,0.3499 -1.814965,0.3499 m 2.29604,-7.6535 0,-3.4987 c -7e-6,-0.5977 -0.05103,-1.1007 -0.15307,-1.5089 -0.102053,-0.4227 -0.247833,-0.7653 -0.437341,-1.0277 -0.18952,-0.2624 -0.40819,-0.4519 -0.656011,-0.5686 -0.247832,-0.1166 -0.524814,-0.1749 -0.830948,-0.1749 -0.306143,0 -0.583125,0.058 -0.830948,0.1749 -0.24783,0.1167 -0.4665,0.3062 -0.656011,0.5686 -0.189518,0.2624 -0.335298,0.605 -0.437341,1.0277 -0.102049,0.4082 -0.153072,0.9112 -0.153069,1.5089 -3e-6,1.312 0.218667,2.2231 0.656011,2.7334 0.451915,0.5102 1.144371,0.7653 2.07737,0.7653 l 1.421358,0"
           style="font-size:21.86704636px;font-variant:normal;font-stretch:normal;fill:#4d4d4d;font-family:Cuprum;-inkscape-font-specification:Cuprum"
           id="path12428"
           inkscape:connector-curvature="0" />
      </g>
    </g>
    <path
       sodipodi:nodetypes="cccc"
       inkscape:connector-curvature="0"
       id="path13121"
       d="m -70.599576,1278.4368 0,13.4051 -37.095874,0 0,-13.4051"
       style="fill:none;stroke:#f3574b;stroke-width:1.82225382;stroke-opacity:1;display:inline" />
    <path
       sodipodi:nodetypes="ccc"
       inkscape:connector-curvature="0"
       id="path13127"
       d="m -89.672416,1246.5502 0,-82.6522 250.559916,0"
       style="fill:none;stroke:#919191;stroke-width:0.91112691;stroke-linecap:butt;stroke-linejoin:miter;stroke-miterlimit:4;stroke-opacity:1;stroke-dasharray:0.91112694, 0.91112694;stroke-dashoffset:0" />
    <path
       style="fill:none;stroke:#f3574b;stroke-width:1.82225382;stroke-opacity:1;display:inline"
       d="m -28.297246,1278.4368 0,13.4051 -37.09587,0 0,-13.4051"
       id="path13129"
       inkscape:connector-curvature="0"
       sodipodi:nodetypes="cccc" />
    <g
       style="font-size:49.34280777px;font-style:normal;font-weight:normal;line-height:125%;letter-spacing:0px;word-spacing:0px;fill:#4d4d4d;fill-opacity:1;stroke:none;font-family:Sans"
       id="text13131">
      <path
         d="m -49.679216,1283.1113 -3.188294,0 0,-24.7978 3.542548,0 7.262225,17.5356 0.177127,0 0,-17.5356 3.188293,0 0,24.7978 -3.542548,0 -7.262224,-17.5356 -0.177127,0 0,17.5356"
         style="font-size:35.4254837px;font-variant:normal;font-stretch:normal;fill:#4d4d4d;font-family:Cuprum;-inkscape-font-specification:Cuprum"
         id="path10695" />
    </g>
    <g
       style="font-size:30.45777893px;font-style:normal;font-weight:normal;line-height:125%;letter-spacing:0px;word-spacing:0px;fill:#4d4d4d;fill-opacity:1;stroke:none;font-family:Sans"
       id="text13135">
      <path
         d="m -37.343283,1183.0229 -1.968034,0 0,-15.3069 2.186704,0 4.482745,10.8242 0.109335,0 0,-10.8242 1.968034,0 0,15.3069 -2.186704,0 -4.482745,-10.8241 -0.109335,0 0,10.8241"
         style="font-size:21.86704636px;font-variant:normal;font-stretch:normal;fill:#4d4d4d;font-family:Cuprum;-inkscape-font-specification:Cuprum"
         id="path10619" />
      <path
         d="m -14.95006,1178.2122 -5.685432,0 c -3e-6,0.7143 0.05831,1.312 0.174936,1.7931 0.116621,0.4665 0.291557,0.8455 0.524809,1.1371 0.247823,0.277 0.56125,0.4811 0.940283,0.6123 0.393602,0.1166 0.867388,0.1749 1.421358,0.1749 l 2.186705,0 0,0.8747 c -0.335303,0.1166 -0.750776,0.2186 -1.246422,0.3061 -0.481081,0.087 -0.940289,0.1312 -1.377624,0.1312 -0.816374,0 -1.516119,-0.087 -2.099236,-0.2624 -0.583124,-0.1895 -1.064199,-0.5029 -1.443225,-0.9403 -0.364453,-0.4373 -0.634146,-1.0204 -0.809081,-1.7493 -0.160359,-0.7289 -0.240538,-1.6401 -0.240537,-2.7334 -1e-6,-1.0934 0.08018,-2.0045 0.240537,-2.7334 0.160357,-0.7289 0.400894,-1.312 0.721613,-1.7494 0.320714,-0.4373 0.72161,-0.7434 1.202687,-0.9184 0.481072,-0.1895 1.035036,-0.2842 1.661896,-0.2842 0.62685,0 1.180814,0.095 1.661895,0.2842 0.481068,0.175 0.881964,0.4811 1.202688,0.9184 0.320708,0.4374 0.561246,1.0205 0.721612,1.7494 0.16035,0.7289 0.240529,1.64 0.240538,2.7334 l 0,0.656 m -1.968034,-1.312 c -7e-6,-0.7435 -0.05103,-1.3558 -0.15307,-1.8369 -0.102052,-0.4956 -0.240543,-0.8892 -0.415474,-1.1808 -0.160364,-0.2915 -0.357167,-0.4956 -0.59041,-0.6123 -0.218676,-0.1311 -0.451924,-0.1967 -0.699745,-0.1968 -0.247831,10e-5 -0.488369,0.066 -0.721613,0.1968 -0.218674,0.1167 -0.415477,0.3208 -0.59041,0.6123 -0.160362,0.2916 -0.291564,0.6852 -0.393607,1.1808 -0.102049,0.4811 -0.153072,1.0934 -0.153069,1.8369 l 3.717398,0"
         style="font-size:21.86704636px;font-variant:normal;font-stretch:normal;fill:#4d4d4d;font-family:Cuprum;-inkscape-font-specification:Cuprum"
         id="path10621" />
      <path
         d="m -12.447309,1167.716 1.968034,0 0,15.3069 -1.968034,0 0,-15.3069"
         style="font-size:21.86704636px;font-variant:normal;font-stretch:normal;fill:#4d4d4d;font-family:Cuprum;-inkscape-font-specification:Cuprum"
         id="path10623" />
      <path
         d="m -0.30084829,1178.2122 -5.68543201,0 c -3e-6,0.7143 0.058309,1.312 0.1749363,1.7931 0.116621,0.4665 0.2915572,0.8455 0.5248091,1.1371 0.2478227,0.277 0.56125,0.4811 0.940283,0.6123 0.3936019,0.1166 0.8673874,0.1749 1.421358,0.1749 l 2.18670468,0 0,0.8747 c -0.33530258,0.1166 -0.75077608,0.2186 -1.24642168,0.3061 -0.4810815,0.087 -0.940289,0.1312 -1.3776239,0.1312 -0.8163745,0 -1.5161193,-0.087 -2.0992364,-0.2624 -0.5831242,-0.1895 -1.0641987,-0.5029 -1.4432251,-0.9403 -0.3644524,-0.4373 -0.6341457,-1.0204 -0.8090807,-1.7493 -0.1603594,-0.7289 -0.2405385,-1.6401 -0.2405375,-2.7334 -1e-6,-1.0934 0.080178,-2.0045 0.2405375,-2.7334 0.1603569,-0.7289 0.4008942,-1.312 0.7216125,-1.7494 0.3207144,-0.4373 0.7216099,-0.7434 1.2026876,-0.9184 0.4810714,-0.1895 1.035036,-0.2842 1.6618955,-0.2842 0.6268499,0 1.1808145,0.095 1.6618955,0.2842 0.4810681,0.175 0.8819635,0.4811 1.2026876,0.9184 0.32070865,0.4374 0.56124592,1.0205 0.7216125,1.7494 0.16034978,0.7289 0.24052887,1.64 0.24053751,2.7334 l 0,0.656 m -1.96803421,-1.312 c -6.6e-6,-0.7435 -0.05103,-1.3558 -0.1530693,-1.8369 -0.1020526,-0.4956 -0.2405438,-0.8892 -0.4154739,-1.1808 -0.1603643,-0.2915 -0.3571675,-0.4956 -0.5904102,-0.6123 -0.2186758,-0.1311 -0.451924,-0.1967 -0.6997455,-0.1968 -0.2478311,10e-5 -0.4883684,0.066 -0.7216125,0.1968 -0.2186744,0.1167 -0.4154776,0.3208 -0.5904103,0.6123 -0.1603617,0.2916 -0.2915638,0.6852 -0.3936068,1.1808 -0.1020492,0.4811 -0.1530723,1.0934 -0.1530693,1.8369 l 3.7173978,0"
         style="font-size:21.86704636px;font-variant:normal;font-stretch:normal;fill:#4d4d4d;font-family:Cuprum;-inkscape-font-specification:Cuprum"
         id="path10625" />
      <path
         d="m 9.1993593,1183.0229 -1.9680342,0 0,-7.8721 c -6.5e-6,-0.379 -0.05103,-0.6924 -0.1530693,-0.9403 -0.1020525,-0.2624 -0.2332546,-0.4665 -0.3936068,-0.6122 -0.1603642,-0.1604 -0.3498784,-0.2697 -0.5685432,-0.3281 -0.2040977,-0.058 -0.4154789,-0.087 -0.6341444,-0.087 -0.2769871,0 -0.5466804,0.044 -0.8090807,0.1312 -0.2478303,0.087 -0.4519225,0.1895 -0.6122773,0.3061 l 0,9.4028 -1.9680341,0 0,-10.9335 1.6400284,0 0.1093353,0.656 0.1093352,0 c 0.276979,-0.2769 0.5831174,-0.4883 0.9184159,-0.6341 0.3498682,-0.1604 0.7726307,-0.2405 1.2682887,-0.2405 0.4956471,0 0.9548546,0.073 1.377624,0.2186 0.4227556,0.1312 0.779917,0.3791 1.0714852,0.7435 0.1749283,-0.1603 0.3790205,-0.2988 0.6122773,-0.4155 0.2332398,-0.1166 0.466488,-0.2113 0.6997455,-0.2842 0.2478172,-0.088 0.4883542,-0.1531 0.7216122,-0.1968 0.247817,-0.044 0.466487,-0.066 0.656012,-0.066 0.43733,0 0.838225,0.051 1.202687,0.153 0.379017,0.088 0.707022,0.2552 0.984017,0.503 0.27697,0.2478 0.488351,0.5831 0.634145,1.0059 0.160344,0.4227 0.240524,0.9621 0.240537,1.6181 l 0,7.8721 -1.968034,0 0,-7.8721 c -1.2e-5,-0.379 -0.05104,-0.6924 -0.153069,-0.9403 -0.102058,-0.2624 -0.23326,-0.4665 -0.393607,-0.6122 -0.160369,-0.1604 -0.349884,-0.2697 -0.568543,-0.3281 -0.204103,-0.058 -0.415484,-0.087 -0.634145,-0.087 -0.335304,0 -0.6560203,0.044 -0.9621497,0.1312 -0.2915693,0.087 -0.5175286,0.1895 -0.6778784,0.3061 0.058304,0.1604 0.1093268,0.3718 0.1530693,0.6342 0.043726,0.2624 0.065593,0.5612 0.065601,0.8965 l 0,7.8721"
         style="font-size:21.86704636px;font-variant:normal;font-stretch:normal;fill:#4d4d4d;font-family:Cuprum;-inkscape-font-specification:Cuprum"
         id="path10627" />
      <path
         d="m 24.384996,1178.2122 -5.685432,0 c -3e-6,0.7143 0.05831,1.312 0.174936,1.7931 0.116621,0.4665 0.291558,0.8455 0.52481,1.1371 0.247822,0.277 0.56125,0.4811 0.940283,0.6123 0.393601,0.1166 0.867387,0.1749 1.421358,0.1749 l 2.186704,0 0,0.8747 c -0.335302,0.1166 -0.750776,0.2186 -1.246421,0.3061 -0.481082,0.087 -0.940289,0.1312 -1.377624,0.1312 -0.816375,0 -1.51612,-0.087 -2.099237,-0.2624 -0.583124,-0.1895 -1.064198,-0.5029 -1.443225,-0.9403 -0.364452,-0.4373 -0.634146,-1.0204 -0.809081,-1.7493 -0.160359,-0.7289 -0.240538,-1.6401 -0.240537,-2.7334 -1e-6,-1.0934 0.08018,-2.0045 0.240537,-2.7334 0.160357,-0.7289 0.400895,-1.312 0.721613,-1.7494 0.320714,-0.4373 0.72161,-0.7434 1.202687,-0.9184 0.481072,-0.1895 1.035037,-0.2842 1.661896,-0.2842 0.62685,0 1.180815,0.095 1.661896,0.2842 0.481068,0.175 0.881963,0.4811 1.202687,0.9184 0.320709,0.4374 0.561246,1.0205 0.721613,1.7494 0.160349,0.7289 0.240528,1.64 0.240537,2.7334 l 0,0.656 m -1.968034,-1.312 c -7e-6,-0.7435 -0.05103,-1.3558 -0.153069,-1.8369 -0.102053,-0.4956 -0.240544,-0.8892 -0.415474,-1.1808 -0.160365,-0.2915 -0.357168,-0.4956 -0.590411,-0.6123 -0.218675,-0.1311 -0.451924,-0.1967 -0.699745,-0.1968 -0.247831,10e-5 -0.488368,0.066 -0.721613,0.1968 -0.218674,0.1167 -0.415477,0.3208 -0.59041,0.6123 -0.160361,0.2916 -0.291564,0.6852 -0.393607,1.1808 -0.102049,0.4811 -0.153072,1.0934 -0.153069,1.8369 l 3.717398,0"
         style="font-size:21.86704636px;font-variant:normal;font-stretch:normal;fill:#4d4d4d;font-family:Cuprum;-inkscape-font-specification:Cuprum"
         id="path10629" />
      <path
         d="m 28.746448,1183.0229 -1.968034,0 0,-10.9335 1.640028,0 0.109335,0.656 0.109336,0 c 0.276979,-0.2769 0.619562,-0.4883 1.027751,-0.6341 0.40818,-0.1604 0.830942,-0.2405 1.268288,-0.2405 0.524803,0 0.9913,0.051 1.399491,0.153 0.422756,0.088 0.779917,0.2552 1.071486,0.503 0.291552,0.2478 0.517511,0.5831 0.677878,1.0059 0.16035,0.4227 0.240529,0.9621 0.240538,1.6181 l 0,7.8721 -1.968035,0 0,-7.8721 c -6e-6,-0.379 -0.05103,-0.6924 -0.153069,-0.9403 -0.102053,-0.2624 -0.247833,-0.4665 -0.437341,-0.6122 -0.18952,-0.1604 -0.408191,-0.2697 -0.656011,-0.3281 -0.247832,-0.058 -0.524814,-0.087 -0.830948,-0.087 -0.276987,0 -0.561258,0.044 -0.852815,0.1312 -0.291564,0.087 -0.517523,0.1895 -0.677878,0.3061 l 0,9.4028"
         style="font-size:21.86704636px;font-variant:normal;font-stretch:normal;fill:#4d4d4d;font-family:Cuprum;-inkscape-font-specification:Cuprum"
         id="path10631" />
      <path
         d="m 39.452757,1173.7295 0,5.7947 c -4e-6,0.4957 0.04373,0.9039 0.131202,1.2246 0.102043,0.3061 0.225956,0.5467 0.37174,0.7216 0.160354,0.1749 0.328001,0.2988 0.502942,0.3717 0.18951,0.058 0.364446,0.087 0.524809,0.087 l 1.968034,0 0,0.8747 c -0.131209,0.058 -0.306145,0.1166 -0.524809,0.1749 -0.204099,0.044 -0.422769,0.088 -0.656011,0.1312 -0.218676,0.044 -0.437347,0.073 -0.656011,0.087 -0.218676,0.029 -0.40819,0.044 -0.568544,0.044 -0.437345,0 -0.845529,-0.051 -1.224554,-0.153 -0.364454,-0.1021 -0.685171,-0.2843 -0.96215,-0.5467 -0.276985,-0.277 -0.495655,-0.656 -0.656012,-1.1371 -0.145782,-0.4811 -0.218672,-1.1079 -0.21867,-1.8806 l 0,-5.7947 -1.312023,0 0,-1.4214 1.312023,0 0,-2.624 1.968034,0 0,2.624 3.061387,0 0,0.984 c -0.335302,0.1166 -0.750775,0.2187 -1.246422,0.3062 -0.48108,0.087 -0.940288,0.1312 -1.377624,0.1312 l -0.437341,0"
         style="font-size:21.86704636px;font-variant:normal;font-stretch:normal;fill:#4d4d4d;font-family:Cuprum;-inkscape-font-specification:Cuprum"
         id="path10633" />
      <path
         d="m 46.028249,1174.7135 c -2e-6,0.4373 0.123911,0.7872 0.37174,1.0496 0.262401,0.2478 0.583118,0.4665 0.96215,0.656 0.379024,0.1895 0.787209,0.3717 1.224555,0.5467 0.451913,0.1603 0.867386,0.3717 1.246421,0.6341 0.379022,0.2624 0.69245,0.5977 0.940283,1.0059 0.262397,0.3936 0.393599,0.9184 0.393607,1.5744 -8e-6,0.5977 -0.08748,1.0934 -0.262404,1.487 -0.160366,0.3936 -0.42277,0.707 -0.787214,0.9403 -0.349879,0.2332 -0.801798,0.3936 -1.355757,0.4811 -0.55397,0.102 -1.209981,0.153 -1.968034,0.153 -0.437344,0 -0.903841,-0.044 -1.399491,-0.1312 -0.481077,-0.088 -0.889261,-0.1895 -1.224555,-0.3061 l 0,-0.8747 2.186705,0 c 0.991302,0 1.712914,-0.1239 2.164838,-0.3717 0.451913,-0.2624 0.677872,-0.7217 0.677878,-1.3777 -6e-6,-0.4373 -0.131208,-0.7799 -0.393607,-1.0277 -0.247832,-0.2624 -0.561259,-0.4884 -0.940283,-0.6779 -0.379033,-0.1895 -0.794506,-0.3644 -1.246421,-0.5248 -0.437344,-0.1749 -0.845529,-0.3936 -1.224555,-0.656 -0.379031,-0.2624 -0.699747,-0.5904 -0.96215,-0.984 -0.247828,-0.4082 -0.371741,-0.9403 -0.37174,-1.5963 -10e-7,-1.0934 0.328005,-1.8369 0.984017,-2.2305 0.656009,-0.4081 1.640025,-0.6122 2.952051,-0.6122 0.437336,0 0.896544,0.044 1.377624,0.1312 0.495647,0.087 0.91112,0.1895 1.246422,0.3061 l 0,0.8747 -2.186705,0 c -0.77264,0 -1.370338,0.1166 -1.793097,0.3499 -0.408188,0.2332 -0.61228,0.6268 -0.612278,1.1808"
         style="font-size:21.86704636px;font-variant:normal;font-stretch:normal;fill:#4d4d4d;font-family:Cuprum;-inkscape-font-specification:Cuprum"
         id="path10635" />
      <path
         d="m 64.495653,1177.5562 c -7e-6,-0.8747 -0.05832,-1.5963 -0.174937,-2.1648 -0.116631,-0.5832 -0.2697,-1.0424 -0.459208,-1.3777 -0.18952,-0.3498 -0.408191,-0.5904 -0.656011,-0.7216 -0.247832,-0.1458 -0.510236,-0.2186 -0.787214,-0.2187 -0.276987,10e-5 -0.539391,0.073 -0.787213,0.2187 -0.247831,0.1312 -0.466501,0.3718 -0.656012,0.7216 -0.189518,0.3353 -0.342587,0.7945 -0.459208,1.3777 -0.116627,0.5685 -0.174939,1.2901 -0.174936,2.1648 -3e-6,0.8747 0.05831,1.6036 0.174936,2.1867 0.116621,0.5685 0.26969,1.0277 0.459208,1.3776 0.189511,0.3353 0.408181,0.5758 0.656012,0.7216 0.247822,0.1312 0.510226,0.1968 0.787213,0.1968 0.276978,0 0.539382,-0.066 0.787214,-0.1968 0.24782,-0.1458 0.466491,-0.3863 0.656011,-0.7216 0.189508,-0.3499 0.342577,-0.8091 0.459208,-1.3776 0.116618,-0.5831 0.17493,-1.312 0.174937,-2.1867 m 1.968034,0 c -9e-6,1.0642 -0.08748,1.9607 -0.262405,2.6896 -0.174945,0.7289 -0.437349,1.3193 -0.787213,1.7713 -0.335303,0.4373 -0.758065,0.7507 -1.268289,0.9402 -0.495659,0.1896 -1.071491,0.2843 -1.727497,0.2843 -0.656015,0 -1.239136,-0.095 -1.749363,-0.2843 -0.495656,-0.1895 -0.918419,-0.5029 -1.268289,-0.9402 -0.335297,-0.452 -0.590412,-1.0424 -0.765347,-1.7713 -0.174937,-0.7289 -0.262405,-1.6254 -0.262404,-2.6896 -1e-6,-1.0642 0.08747,-1.9608 0.262404,-2.6897 0.174935,-0.7289 0.43005,-1.312 0.765347,-1.7493 0.34987,-0.4519 0.772633,-0.7726 1.268289,-0.9622 0.510227,-0.1895 1.093348,-0.2842 1.749363,-0.2842 0.656006,0 1.231838,0.095 1.727497,0.2842 0.510224,0.1896 0.932986,0.5103 1.268289,0.9622 0.349864,0.4373 0.612268,1.0204 0.787213,1.7493 0.174928,0.7289 0.262396,1.6255 0.262405,2.6897"
         style="font-size:21.86704636px;font-variant:normal;font-stretch:normal;fill:#4d4d4d;font-family:Cuprum;-inkscape-font-specification:Cuprum"
         id="path10637" />
      <path
         d="m 69.217564,1171.4334 c -10e-7,-0.758 0.07289,-1.3776 0.218671,-1.8587 0.160356,-0.4956 0.379026,-0.8747 0.656011,-1.1371 0.27698,-0.2769 0.597696,-0.4665 0.96215,-0.5685 0.379025,-0.102 0.78721,-0.1531 1.224555,-0.1531 0.160353,0 0.349867,0.015 0.568543,0.044 0.218665,0.014 0.437335,0.044 0.656011,0.087 0.233243,0.044 0.451913,0.095 0.656012,0.1531 0.218663,0.044 0.3936,0.095 0.524809,0.1531 l 0,0.8746 -1.968034,0 c -0.160364,10e-5 -0.3353,0.036 -0.524809,0.1094 -0.174941,0.058 -0.342588,0.1749 -0.502942,0.3498 -0.145785,0.175 -0.269698,0.4228 -0.37174,0.7435 -0.08747,0.3062 -0.131206,0.7071 -0.131202,1.2027 l 0,0.8747 3.061386,0 0,0.984 c -0.335301,0.1166 -0.750775,0.2187 -1.246422,0.3062 -0.48108,0.087 -0.940287,0.1312 -1.377624,0.1312 l -0.43734,0 0,9.2934 -1.968035,0 0,-9.2934 -1.312022,0 0,-1.4214 1.312022,0 0,-0.8747"
         style="font-size:21.86704636px;font-variant:normal;font-stretch:normal;fill:#4d4d4d;font-family:Cuprum;-inkscape-font-specification:Cuprum"
         id="path10639" />
      <path
         d="m 86.390033,1177.6655 -1.530693,0 c -0.553969,0 -1.020466,0.1458 -1.399491,0.4374 -0.379032,0.277 -0.568546,0.8236 -0.568543,1.64 -3e-6,0.4373 0.05102,0.8018 0.153069,1.0933 0.102043,0.277 0.240535,0.4957 0.415474,0.6561 0.174933,0.1603 0.379025,0.2769 0.612278,0.3498 0.247822,0.058 0.510226,0.087 0.787213,0.087 0.276978,0 0.561249,-0.044 0.852815,-0.1312 0.291555,-0.087 0.517514,-0.1895 0.677878,-0.3061 l 0,-3.8268 m -2.186704,5.5761 c -0.495657,0 -0.947576,-0.051 -1.355757,-0.153 -0.393609,-0.088 -0.736193,-0.2625 -1.027751,-0.5249 -0.276984,-0.2624 -0.495655,-0.6195 -0.656012,-1.0714 -0.160359,-0.452 -0.240538,-1.0351 -0.240537,-1.7494 -10e-7,-0.6852 0.08018,-1.2464 0.240537,-1.6838 0.160357,-0.4373 0.379028,-0.7799 0.656012,-1.0277 0.291558,-0.2624 0.634142,-0.4374 1.027751,-0.5248 0.408181,-0.1021 0.8601,-0.1531 1.355757,-0.1531 0.33529,0 0.69974,0.022 1.093352,0.066 0.393601,0.044 0.758052,0.095 1.093352,0.1531 l 0,-0.984 c -6e-6,-0.4957 -0.05832,-0.8966 -0.174936,-1.2027 -0.102052,-0.3207 -0.255121,-0.5686 -0.459208,-0.7435 -0.204098,-0.1749 -0.459213,-0.2916 -0.765347,-0.3499 -0.291565,-0.073 -0.626859,-0.1093 -1.005884,-0.1093 l -2.186704,0 0,-0.8747 c 0.335292,-0.1166 0.743477,-0.2187 1.224554,-0.3061 0.49565,-0.087 0.962146,-0.1312 1.399491,-0.1312 0.656007,0 1.224549,0.051 1.70563,0.153 0.495646,0.1021 0.903831,0.2916 1.224554,0.5686 0.335287,0.2624 0.583114,0.6414 0.74348,1.1371 0.174928,0.481 0.262396,1.1006 0.262405,1.8587 l 0,7.4347 -1.640029,0 -0.109335,-0.656 -0.109335,0 c -0.276989,0.277 -0.619573,0.4957 -1.027752,0.656 -0.40819,0.1458 -0.830952,0.2187 -1.268288,0.2187"
         style="font-size:21.86704636px;font-variant:normal;font-stretch:normal;fill:#4d4d4d;font-family:Cuprum;-inkscape-font-specification:Cuprum"
         id="path10641" />
      <path
         d="m 93.151737,1183.0229 -1.968035,0 0,-10.9335 1.661896,0 0.109335,0.8747 0.109335,0 c 0.262401,-0.2187 0.612274,-0.4155 1.049619,-0.5904 0.451914,-0.1895 1.005878,-0.2843 1.661895,-0.2843 l 1.093352,0 0,1.6401 -2.186704,0 c -0.276987,0 -0.546681,0.036 -0.809081,0.1093 -0.262408,0.058 -0.502946,0.1676 -0.721612,0.328 l 0,8.8561"
         style="font-size:21.86704636px;font-variant:normal;font-stretch:normal;fill:#4d4d4d;font-family:Cuprum;-inkscape-font-specification:Cuprum"
         id="path10643" />
      <path
         d="m 100.4977,1183.0229 -1.968035,0 0,-10.9335 1.661895,0 0.10934,0.8747 0.10933,0 c 0.2624,-0.2187 0.61227,-0.4155 1.04962,-0.5904 0.45191,-0.1895 1.00588,-0.2843 1.66189,-0.2843 l 1.09336,0 0,1.6401 -2.18671,0 c -0.27698,0 -0.54668,0.036 -0.80908,0.1093 -0.26241,0.058 -0.50294,0.1676 -0.72161,0.328 l 0,8.8561"
         style="font-size:21.86704636px;font-variant:normal;font-stretch:normal;fill:#4d4d4d;font-family:Cuprum;-inkscape-font-specification:Cuprum"
         id="path10645" />
      <path
         d="m 110.6915,1177.6655 -1.53069,0 c -0.55397,0 -1.02047,0.1458 -1.39949,0.4374 -0.37903,0.277 -0.56855,0.8236 -0.56855,1.64 0,0.4373 0.051,0.8018 0.15307,1.0933 0.10205,0.277 0.24054,0.4957 0.41548,0.6561 0.17493,0.1603 0.37902,0.2769 0.61227,0.3498 0.24783,0.058 0.51023,0.087 0.78722,0.087 0.27698,0 0.56125,-0.044 0.85281,-0.1312 0.29156,-0.087 0.51752,-0.1895 0.67788,-0.3061 l 0,-3.8268 m -2.1867,5.5761 c -0.49566,0 -0.94758,-0.051 -1.35576,-0.153 -0.39361,-0.088 -0.73619,-0.2625 -1.02775,-0.5249 -0.27699,-0.2624 -0.49566,-0.6195 -0.65601,-1.0714 -0.16036,-0.452 -0.24054,-1.0351 -0.24054,-1.7494 0,-0.6852 0.0802,-1.2464 0.24054,-1.6838 0.16035,-0.4373 0.37902,-0.7799 0.65601,-1.0277 0.29156,-0.2624 0.63414,-0.4374 1.02775,-0.5248 0.40818,-0.1021 0.8601,-0.1531 1.35576,-0.1531 0.33529,0 0.69974,0.022 1.09335,0.066 0.3936,0.044 0.75805,0.095 1.09335,0.1531 l 0,-0.984 c -1e-5,-0.4957 -0.0583,-0.8966 -0.17494,-1.2027 -0.10205,-0.3207 -0.25512,-0.5686 -0.4592,-0.7435 -0.2041,-0.1749 -0.45922,-0.2916 -0.76535,-0.3499 -0.29157,-0.073 -0.62686,-0.1093 -1.00588,-0.1093 l -2.18671,0 0,-0.8747 c 0.33529,-0.1166 0.74348,-0.2187 1.22456,-0.3061 0.49565,-0.087 0.96214,-0.1312 1.39949,-0.1312 0.656,0 1.22455,0.051 1.70563,0.153 0.49564,0.1021 0.90383,0.2916 1.22455,0.5686 0.33529,0.2624 0.58311,0.6414 0.74348,1.1371 0.17493,0.481 0.2624,1.1006 0.26241,1.8587 l 0,7.4347 -1.64003,0 -0.10934,-0.656 -0.10933,0 c -0.27699,0.277 -0.61958,0.4957 -1.02775,0.656 -0.40819,0.1458 -0.83096,0.2187 -1.26829,0.2187"
         style="font-size:21.86704636px;font-variant:normal;font-stretch:normal;fill:#4d4d4d;font-family:Cuprum;-inkscape-font-specification:Cuprum"
         id="path10647" />
      <path
         d="m 118.87456,1183.2416 c -0.52481,0 -0.9986,-0.051 -1.42136,-0.153 -0.40818,-0.088 -0.75806,-0.2552 -1.04961,-0.503 -0.29157,-0.2478 -0.51753,-0.5831 -0.67788,-1.0059 -0.16036,-0.4227 -0.24054,-0.9621 -0.24054,-1.6181 l 0,-7.8722 1.96803,0 0,7.8722 c 0,0.379 0.051,0.6997 0.15307,0.9621 0.10205,0.2478 0.24783,0.4519 0.43734,0.6123 0.18951,0.1458 0.40819,0.2478 0.65602,0.3061 0.24782,0.058 0.5248,0.087 0.83094,0.087 0.27698,0 0.56125,-0.044 0.85282,-0.1312 0.29155,-0.087 0.51751,-0.1895 0.67788,-0.3061 l 0,-9.4029 1.96803,0 0,10.0589 c -1e-5,1.035 -0.0875,1.9024 -0.2624,2.6021 -0.16037,0.6998 -0.42277,1.261 -0.78722,1.6838 -0.34988,0.4228 -0.8018,0.7216 -1.35575,0.8966 -0.55398,0.1895 -1.20999,0.2842 -1.96804,0.2842 -0.43734,0 -0.90384,-0.044 -1.39949,-0.1312 -0.48108,-0.087 -0.88926,-0.1895 -1.22455,-0.3061 l 0,-0.8747 2.1867,0 c 0.49565,0 0.91841,-0.058 1.26829,-0.1749 0.36444,-0.1167 0.66329,-0.3207 0.89655,-0.6123 0.23324,-0.277 0.40089,-0.6487 0.50294,-1.1152 0.11662,-0.4519 0.17493,-1.0205 0.17494,-1.7057 -0.3353,0.1604 -0.67789,0.2916 -1.02775,0.3937 -0.3353,0.102 -0.72162,0.153 -1.15896,0.153"
         style="font-size:21.86704636px;font-variant:normal;font-stretch:normal;fill:#4d4d4d;font-family:Cuprum;-inkscape-font-specification:Cuprum"
         id="path10649" />
    </g>
    <path
       sodipodi:nodetypes="ccc"
       style="fill:none;stroke:#919191;stroke-width:0.91112691;stroke-linecap:butt;stroke-linejoin:miter;stroke-miterlimit:4;stroke-opacity:1;stroke-dasharray:0.91112694, 0.91112694;stroke-dashoffset:0"
       d="m -44.766866,1246.5502 0,-54.0167 171.812526,0"
       id="path13139"
       inkscape:connector-curvature="0" />
    <path
       style="fill:none;stroke:#f39c4b;stroke-width:1.82225382;stroke-opacity:1;display:inline"
       d="m 115.04723,1278.4368 0,13.4051 -96.319133,0 0,-13.4051"
       id="path13157"
       inkscape:connector-curvature="0"
       sodipodi:nodetypes="cccc" />
    <path
       style="fill:none;stroke:#f3574b;stroke-width:1.82225382;stroke-opacity:1;display:inline"
       d="m 13.521657,1278.4368 0,13.4051 -37.095873,0 0,-13.4051"
       id="path13163"
       inkscape:connector-curvature="0"
       sodipodi:nodetypes="cccc" />
    <g
       style="font-size:49.34280777px;font-style:normal;font-weight:normal;line-height:125%;letter-spacing:0px;word-spacing:0px;fill:#4d4d4d;fill-opacity:1;stroke:none;font-family:Sans"
       id="text13165">
      <path
         d="m -13.174186,1258.3135 14.5244487,0 0,2.4798 -5.6680774,0 0,22.318 -3.1882935,0 0,-22.318 -5.6680778,0 0,-2.4798"
         style="font-size:35.4254837px;font-variant:normal;font-stretch:normal;fill:#4d4d4d;font-family:Cuprum;-inkscape-font-specification:Cuprum"
         id="path10692" />
    </g>
    <path
       sodipodi:nodetypes="cccc"
       inkscape:connector-curvature="0"
       id="path13169"
       d="m 216.57281,1278.4368 0,13.4051 -96.31913,0 0,-13.4051"
       style="fill:none;stroke:#f39c4b;stroke-width:1.82225382;stroke-opacity:1;display:inline" />
    <path
       style="fill:none;stroke:#f39c4b;stroke-width:1.82225382;stroke-opacity:1;display:inline"
       d="m 366.25795,1278.4368 0,13.4051 -96.31913,0 0,-13.4051"
       id="path13175"
       inkscape:connector-curvature="0"
       sodipodi:nodetypes="cccc" />
    <text
       inkscape:export-ydpi="90"
       inkscape:export-xdpi="90"
       inkscape:export-filename="/home/fantom/Desktop/text19881.png"
       sodipodi:linespacing="125%"
       id="text13181"
       y="1283.1113"
       x="232.47586"
       style="font-size:49.34280777px;font-style:normal;font-weight:normal;line-height:125%;letter-spacing:0px;word-spacing:0px;fill:#f39c4b;fill-opacity:1;stroke:none;font-family:Sans"
       xml:space="preserve"><tspan
         style="font-size:35.4254837px;font-style:normal;font-variant:normal;font-weight:normal;font-stretch:normal;fill:#f39c4b;fill-opacity:1;font-family:Cuprum;-inkscape-font-specification:Cuprum"
         y="1283.1113"
         x="232.47586"
         id="tspan13183"
         sodipodi:role="line">...</tspan></text>
    <path
       sodipodi:nodetypes="cccc"
       inkscape:connector-curvature="0"
       id="path13185"
       d="m 366.25793,1301.215 0,13.405 -347.529833,0 0,-13.405"
       style="fill:none;stroke:#9f9f9f;stroke-width:0.91112691;stroke-miterlimit:4;stroke-opacity:1;stroke-dasharray:0.91112694, 0.91112694;stroke-dashoffset:0;display:inline" />
    <g
       style="font-size:30.45777893px;font-style:normal;font-weight:normal;line-height:125%;letter-spacing:0px;word-spacing:0px;fill:#4d4d4d;fill-opacity:1;stroke:none;font-family:Sans"
       id="text13187">
      <path
         d="m 168.47843,1335.962 -1.96803,0 0,-15.3069 2.1867,0 4.48275,10.8242 0.10933,0 0,-10.8242 1.96804,0 0,15.3069 -2.18671,0 -4.48274,-10.8242 -0.10934,0 0,10.8242"
         style="font-size:21.86704636px;font-variant:normal;font-stretch:normal;fill:#4d4d4d;font-family:Cuprum;-inkscape-font-specification:Cuprum"
         id="path10679" />
      <path
         d="m 185.95157,1326.6685 0,5.7948 c 0,0.4957 0.0437,0.9038 0.1312,1.2246 0.10205,0.3061 0.22596,0.5466 0.37174,0.7216 0.16036,0.1749 0.328,0.2988 0.50294,0.3717 0.18951,0.058 0.36445,0.088 0.52481,0.088 l 1.96804,0 0,0.8747 c -0.13121,0.058 -0.30615,0.1166 -0.52481,0.1749 -0.2041,0.044 -0.42277,0.087 -0.65601,0.1312 -0.21868,0.044 -0.43735,0.073 -0.65601,0.087 -0.21868,0.029 -0.40819,0.044 -0.56855,0.044 -0.43734,0 -0.84553,-0.051 -1.22455,-0.1531 -0.36446,-0.102 -0.68517,-0.2842 -0.96215,-0.5466 -0.27699,-0.277 -0.49566,-0.656 -0.65601,-1.1371 -0.14579,-0.4811 -0.21868,-1.108 -0.21867,-1.8806 l 0,-5.7948 -1.31203,0 0,-1.4213 1.31203,0 0,-2.6241 1.96803,0 0,2.6241 3.06139,0 0,0.984 c -0.3353,0.1166 -0.75078,0.2187 -1.24642,0.3061 -0.48108,0.088 -0.94029,0.1313 -1.37763,0.1312 l -0.43734,0"
         style="font-size:21.86704636px;font-variant:normal;font-stretch:normal;fill:#4d4d4d;font-family:Cuprum;-inkscape-font-specification:Cuprum"
         id="path10681" />
      <path
         d="m 193.29241,1335.962 -1.96804,0 0,-10.9335 1.96804,0 0,10.9335 m 0,-14.8696 0,2.4054 -1.96804,0 0,-2.4054 1.96804,0"
         style="font-size:21.86704636px;font-variant:normal;font-stretch:normal;fill:#4d4d4d;font-family:Cuprum;-inkscape-font-specification:Cuprum"
         id="path10683" />
      <path
         d="m 203.3615,1335.962 -1.96804,0 0,-7.8721 c 0,-0.379 -0.051,-0.6924 -0.15307,-0.9403 -0.10205,-0.2624 -0.23325,-0.4665 -0.3936,-0.6123 -0.16037,-0.1603 -0.34988,-0.2696 -0.56855,-0.328 -0.20409,-0.058 -0.41548,-0.087 -0.63414,-0.087 -0.27699,0 -0.54668,0.044 -0.80908,0.1312 -0.24783,0.087 -0.45192,0.1895 -0.61228,0.3061 l 0,9.4028 -1.96803,0 0,-10.9335 1.64003,0 0.10933,0.656 0.10934,0 c 0.27698,-0.2769 0.58311,-0.4883 0.91841,-0.6341 0.34987,-0.1604 0.77263,-0.2405 1.26829,-0.2406 0.49565,10e-5 0.95486,0.073 1.37762,0.2187 0.42276,0.1312 0.77992,0.3791 1.07149,0.7435 0.17493,-0.1604 0.37902,-0.2988 0.61228,-0.4155 0.23324,-0.1166 0.46649,-0.2114 0.69974,-0.2843 0.24782,-0.087 0.48836,-0.153 0.72162,-0.1968 0.24781,-0.044 0.46648,-0.065 0.65601,-0.066 0.43733,10e-5 0.83822,0.051 1.20268,0.1531 0.37902,0.088 0.70703,0.2551 0.98402,0.503 0.27697,0.2478 0.48835,0.5831 0.63415,1.0058 0.16034,0.4228 0.24052,0.9622 0.24053,1.6182 l 0,7.8721 -1.96803,0 0,-7.8721 c -1e-5,-0.379 -0.051,-0.6924 -0.15307,-0.9403 -0.10206,-0.2624 -0.23326,-0.4665 -0.39361,-0.6123 -0.16037,-0.1603 -0.34988,-0.2696 -0.56854,-0.328 -0.2041,-0.058 -0.41548,-0.087 -0.63414,-0.087 -0.33531,0 -0.65603,0.044 -0.96215,0.1312 -0.29157,0.087 -0.51753,0.1895 -0.67788,0.3061 0.0583,0.1604 0.10932,0.3718 0.15307,0.6342 0.0437,0.2624 0.0656,0.5612 0.0656,0.8965 l 0,7.8721"
         style="font-size:21.86704636px;font-variant:normal;font-stretch:normal;fill:#4d4d4d;font-family:Cuprum;-inkscape-font-specification:Cuprum"
         id="path10685" />
      <path
         d="m 218.54714,1331.1513 -5.68544,0 c 0,0.7143 0.0583,1.312 0.17494,1.7931 0.11662,0.4665 0.29156,0.8455 0.52481,1.1371 0.24782,0.277 0.56125,0.481 0.94028,0.6122 0.3936,0.1167 0.86739,0.175 1.42136,0.175 l 2.18671,0 0,0.8747 c -0.33531,0.1166 -0.75078,0.2186 -1.24643,0.3061 -0.48108,0.087 -0.94029,0.1312 -1.37762,0.1312 -0.81637,0 -1.51612,-0.087 -2.09924,-0.2624 -0.58312,-0.1895 -1.0642,-0.5029 -1.44322,-0.9403 -0.36445,-0.4373 -0.63415,-1.0204 -0.80908,-1.7493 -0.16036,-0.7289 -0.24054,-1.6401 -0.24054,-2.7334 0,-1.0934 0.0802,-2.0045 0.24054,-2.7334 0.16035,-0.7289 0.40089,-1.312 0.72161,-1.7494 0.32071,-0.4373 0.72161,-0.7434 1.20269,-0.9184 0.48107,-0.1895 1.03503,-0.2842 1.66189,-0.2843 0.62685,10e-5 1.18082,0.095 1.6619,0.2843 0.48107,0.175 0.88196,0.4811 1.20269,0.9184 0.3207,0.4374 0.56124,1.0205 0.72161,1.7494 0.16035,0.7289 0.24053,1.64 0.24054,2.7334 l 0,0.656 m -1.96804,-1.312 c 0,-0.7435 -0.051,-1.3558 -0.15307,-1.8369 -0.10205,-0.4956 -0.24054,-0.8892 -0.41547,-1.1808 -0.16037,-0.2915 -0.35717,-0.4956 -0.59041,-0.6123 -0.21868,-0.1312 -0.45193,-0.1968 -0.69975,-0.1968 -0.24783,0 -0.48837,0.066 -0.72161,0.1968 -0.21867,0.1167 -0.41548,0.3208 -0.59041,0.6123 -0.16036,0.2916 -0.29156,0.6852 -0.39361,1.1808 -0.10205,0.4811 -0.15307,1.0934 -0.15307,1.8369 l 3.7174,0"
         style="font-size:21.86704636px;font-variant:normal;font-stretch:normal;fill:#4d4d4d;font-family:Cuprum;-inkscape-font-specification:Cuprum"
         id="path10687" />
      <path
         d="m 222.25258,1327.6526 c -1e-5,0.4373 0.12391,0.7872 0.37174,1.0496 0.2624,0.2478 0.58311,0.4665 0.96215,0.656 0.37902,0.1895 0.7872,0.3717 1.22455,0.5467 0.45191,0.1603 0.86739,0.3717 1.24642,0.6341 0.37902,0.2624 0.69245,0.5977 0.94029,1.0059 0.26239,0.3936 0.39359,0.9184 0.3936,1.5744 -1e-5,0.5977 -0.0875,1.0934 -0.2624,1.487 -0.16037,0.3936 -0.42277,0.707 -0.78722,0.9403 -0.34988,0.2332 -0.80179,0.3936 -1.35575,0.481 -0.55397,0.1021 -1.20998,0.1531 -1.96804,0.1531 -0.43734,0 -0.90384,-0.044 -1.39949,-0.1312 -0.48107,-0.088 -0.88926,-0.1895 -1.22455,-0.3061 l 0,-0.8747 2.1867,0 c 0.9913,0 1.71292,-0.1239 2.16484,-0.3718 0.45191,-0.2624 0.67787,-0.7216 0.67788,-1.3776 -1e-5,-0.4373 -0.13121,-0.7799 -0.39361,-1.0277 -0.24783,-0.2624 -0.56126,-0.4884 -0.94028,-0.6779 -0.37903,-0.1895 -0.79451,-0.3645 -1.24642,-0.5248 -0.43735,-0.1749 -0.84553,-0.3936 -1.22456,-0.656 -0.37903,-0.2624 -0.69974,-0.5904 -0.96215,-0.984 -0.24783,-0.4082 -0.37174,-0.9403 -0.37174,-1.5963 0,-1.0934 0.32801,-1.8369 0.98402,-2.2305 0.65601,-0.4082 1.64002,-0.6122 2.95205,-0.6123 0.43734,10e-5 0.89654,0.044 1.37762,0.1312 0.49565,0.087 0.91112,0.1896 1.24643,0.3062 l 0,0.8747 -2.18671,0 c -0.77264,0 -1.37034,0.1166 -1.7931,0.3498 -0.40818,0.2333 -0.61228,0.6269 -0.61227,1.1809"
         style="font-size:21.86704636px;font-variant:normal;font-stretch:normal;fill:#4d4d4d;font-family:Cuprum;-inkscape-font-specification:Cuprum"
         id="path10689" />
    </g>
    <path
       inkscape:connector-curvature="0"
       id="path13191"
       d="m -5.3709134,1299.6096 0,85.3316 152.6196234,0"
       style="fill:none;stroke:#919191;stroke-width:0.91112691;stroke-linecap:butt;stroke-linejoin:miter;stroke-miterlimit:4;stroke-opacity:1;stroke-dasharray:0.91112694, 0.91112694;stroke-dashoffset:0"
       sodipodi:nodetypes="ccc" />
    <g
       style="font-size:30.45777893px;font-style:normal;font-weight:normal;line-height:125%;letter-spacing:0px;word-spacing:0px;fill:#4d4d4d;fill-opacity:1;stroke:none;font-family:Sans"
       id="text13193">
      <path
         d="m 7.0854932,1356.9771 8.9654888,0 0,1.5307 -3.498727,0 0,13.7763 -1.968034,0 0,-13.7763 -3.4987278,0 0,-1.5307"
         style="font-size:21.86704636px;font-variant:normal;font-stretch:normal;fill:#4d4d4d;font-family:Cuprum;-inkscape-font-specification:Cuprum"
         id="path10652" />
      <path
         d="m 20.219388,1372.5027 c -0.524814,0 -0.998599,-0.051 -1.421358,-0.153 -0.408188,-0.088 -0.758061,-0.2552 -1.049619,-0.503 -0.291562,-0.2478 -0.517521,-0.5831 -0.677878,-1.0059 -0.16036,-0.4227 -0.240539,-0.9621 -0.240537,-1.6181 l 0,-7.8722 1.968034,0 0,7.8722 c -4e-6,0.379 0.05102,0.6997 0.153069,0.9621 0.102043,0.2478 0.247823,0.4519 0.437341,0.6123 0.18951,0.1458 0.40818,0.2478 0.656011,0.3061 0.247822,0.058 0.524804,0.088 0.830948,0.088 0.276977,0 0.561248,-0.044 0.852815,-0.1312 0.291554,-0.088 0.517513,-0.1895 0.677878,-0.3061 l 0,-9.4029 1.968035,0 0,10.0589 c -9e-6,1.035 -0.08748,1.9024 -0.262405,2.6022 -0.160367,0.6997 -0.422771,1.261 -0.787214,1.6837 -0.34988,0.4228 -0.801799,0.7216 -1.355757,0.8966 -0.553971,0.1895 -1.209981,0.2842 -1.968034,0.2842 -0.437345,0 -0.903841,-0.044 -1.399491,-0.1312 -0.481077,-0.087 -0.889262,-0.1895 -1.224554,-0.3061 l 0,-0.8747 2.186704,0 c 0.495649,0 0.918411,-0.058 1.268289,-0.1749 0.364445,-0.1166 0.663294,-0.3207 0.896549,-0.6123 0.233242,-0.277 0.400889,-0.6487 0.502942,-1.1152 0.116617,-0.4519 0.174929,-1.0205 0.174936,-1.7056 -0.335301,0.1603 -0.677884,0.2915 -1.027751,0.3936 -0.3353,0.102 -0.721618,0.153 -1.158953,0.153"
         style="font-size:21.86704636px;font-variant:normal;font-stretch:normal;fill:#4d4d4d;font-family:Cuprum;-inkscape-font-specification:Cuprum"
         id="path10654" />
      <path
         d="m 29.067,1362.0065 c 0.276979,-0.2769 0.619562,-0.4883 1.027751,-0.6341 0.40818,-0.1603 0.830943,-0.2405 1.268289,-0.2405 0.568537,0 1.078767,0.095 1.530693,0.2842 0.451911,0.175 0.83094,0.4811 1.137086,0.9185 0.306131,0.4373 0.539379,1.0204 0.699746,1.7493 0.160349,0.7289 0.240528,1.6401 0.240537,2.7334 -9e-6,1.0934 -0.08019,2.0045 -0.240537,2.7334 -0.160367,0.7289 -0.393615,1.312 -0.699746,1.7493 -0.306146,0.4374 -0.685175,0.7508 -1.137086,0.9403 -0.451926,0.175 -0.962156,0.2624 -1.530693,0.2624 -0.437346,0 -0.830953,-0.051 -1.180821,-0.153 -0.335298,-0.1021 -0.670593,-0.2333 -1.005884,-0.3936 l 0,4.7014 -1.968034,0 0,-15.307 1.640028,0 0.109336,0.656 0.109335,0 m 0.109335,8.7469 c 0.160355,0.1166 0.386314,0.2186 0.677879,0.3061 0.291556,0.087 0.575827,0.1312 0.852814,0.1312 0.349868,0 0.663295,-0.058 0.940283,-0.1749 0.291555,-0.1312 0.532092,-0.3572 0.721613,-0.6779 0.204086,-0.3353 0.357155,-0.7872 0.459208,-1.3558 0.116617,-0.5685 0.174929,-1.2901 0.174936,-2.1648 -7e-6,-0.8747 -0.05832,-1.589 -0.174936,-2.143 -0.102053,-0.5685 -0.255122,-1.0131 -0.459208,-1.3339 -0.189521,-0.3352 -0.430058,-0.5685 -0.721613,-0.6997 -0.276988,-0.1312 -0.590415,-0.1968 -0.940283,-0.1968 -0.276987,0 -0.561258,0.044 -0.852814,0.1312 -0.291565,0.088 -0.517524,0.1895 -0.677879,0.3061 l 0,7.8722"
         style="font-size:21.86704636px;font-variant:normal;font-stretch:normal;fill:#4d4d4d;font-family:Cuprum;-inkscape-font-specification:Cuprum"
         id="path10656" />
      <path
         d="m 44.589187,1367.4733 -5.685432,0 c -3e-6,0.7143 0.05831,1.312 0.174936,1.7931 0.116621,0.4665 0.291557,0.8455 0.524809,1.1371 0.247823,0.277 0.56125,0.4811 0.940283,0.6123 0.393602,0.1166 0.867388,0.1749 1.421358,0.1749 l 2.186705,0 0,0.8747 c -0.335303,0.1166 -0.750776,0.2187 -1.246422,0.3061 -0.481081,0.088 -0.940289,0.1312 -1.377624,0.1312 -0.816374,0 -1.516119,-0.087 -2.099236,-0.2624 -0.583124,-0.1895 -1.064199,-0.5029 -1.443225,-0.9403 -0.364453,-0.4373 -0.634146,-1.0204 -0.809081,-1.7493 -0.160359,-0.7289 -0.240538,-1.64 -0.240537,-2.7334 -10e-7,-1.0933 0.08018,-2.0045 0.240537,-2.7334 0.160357,-0.7289 0.400894,-1.312 0.721613,-1.7493 0.320714,-0.4374 0.72161,-0.7435 1.202687,-0.9185 0.481072,-0.1895 1.035036,-0.2842 1.661896,-0.2842 0.62685,0 1.180814,0.095 1.661895,0.2842 0.481068,0.175 0.881964,0.4811 1.202688,0.9185 0.320709,0.4373 0.561246,1.0204 0.721612,1.7493 0.16035,0.7289 0.240529,1.6401 0.240538,2.7334 l 0,0.656 m -1.968034,-1.312 c -7e-6,-0.7435 -0.05103,-1.3558 -0.15307,-1.8368 -0.102052,-0.4957 -0.240543,-0.8893 -0.415474,-1.1809 -0.160364,-0.2915 -0.357167,-0.4956 -0.59041,-0.6122 -0.218676,-0.1312 -0.451924,-0.1968 -0.699745,-0.1968 -0.247831,0 -0.488369,0.066 -0.721613,0.1968 -0.218674,0.1166 -0.415477,0.3207 -0.59041,0.6122 -0.160362,0.2916 -0.291564,0.6852 -0.393607,1.1809 -0.102049,0.481 -0.153072,1.0933 -0.153069,1.8368 l 3.717398,0"
         style="font-size:21.86704636px;font-variant:normal;font-stretch:normal;fill:#4d4d4d;font-family:Cuprum;-inkscape-font-specification:Cuprum"
         id="path10658" />
      <path
         d="m 54.526733,1356.9771 0,15.307 -1.968035,0 0,-15.307 1.968035,0"
         style="font-size:21.86704636px;font-variant:normal;font-stretch:normal;fill:#4d4d4d;font-family:Cuprum;-inkscape-font-specification:Cuprum"
         id="path10660" />
      <path
         d="m 66.34519,1364.6306 c -1.1e-5,1.5307 -0.109346,2.8063 -0.328006,3.8267 -0.21868,1.0059 -0.546685,1.8077 -0.984017,2.4054 -0.437349,0.5977 -0.984025,1.0205 -1.640028,1.2683 -0.656019,0.2478 -1.421364,0.3717 -2.29604,0.3717 -0.656016,0 -1.268293,-0.036 -1.836832,-0.1093 -0.553968,-0.058 -1.107933,-0.1677 -1.661896,-0.328 l 0,-14.8696 c 0.553963,-0.1603 1.107928,-0.2697 1.661896,-0.328 0.568539,-0.073 1.180816,-0.1093 1.836832,-0.1093 0.874676,0 1.640021,0.1239 2.29604,0.3717 0.656003,0.2478 1.202679,0.6706 1.640028,1.2683 0.437332,0.5977 0.765337,1.4068 0.984017,2.4272 0.21866,1.0059 0.327995,2.2742 0.328006,3.8049 m -1.968034,0 c -9e-6,-1.2829 -0.08019,-2.3398 -0.240538,-3.1707 -0.160366,-0.831 -0.386325,-1.487 -0.677878,-1.9681 -0.27699,-0.4956 -0.619573,-0.8382 -1.027752,-1.0277 -0.393612,-0.1895 -0.838242,-0.2843 -1.333889,-0.2843 l -1.530694,0 0,12.9016 1.530694,0 c 0.495647,0 0.940277,-0.095 1.333889,-0.2843 0.408179,-0.1895 0.750762,-0.5248 1.027752,-1.0059 0.291553,-0.4956 0.517512,-1.1589 0.677878,-1.9899 0.16035,-0.8309 0.240529,-1.8878 0.240538,-3.1707"
         style="font-size:21.86704636px;font-variant:normal;font-stretch:normal;fill:#4d4d4d;font-family:Cuprum;-inkscape-font-specification:Cuprum"
         id="path10662" />
      <path
         d="m 80.001842,1366.8173 c -8e-6,-0.8747 -0.05832,-1.5963 -0.174937,-2.1648 -0.116631,-0.5832 -0.2697,-1.0424 -0.459208,-1.3777 -0.18952,-0.3498 -0.408191,-0.5904 -0.656011,-0.7216 -0.247832,-0.1457 -0.510237,-0.2186 -0.787214,-0.2186 -0.276987,0 -0.539391,0.073 -0.787214,0.2186 -0.24783,0.1312 -0.4665,0.3718 -0.656011,0.7216 -0.189518,0.3353 -0.342587,0.7945 -0.459208,1.3777 -0.116627,0.5685 -0.174939,1.2901 -0.174936,2.1648 -3e-6,0.8747 0.05831,1.6036 0.174936,2.1867 0.116621,0.5685 0.26969,1.0278 0.459208,1.3776 0.189511,0.3353 0.408181,0.5759 0.656011,0.7216 0.247823,0.1312 0.510227,0.1968 0.787214,0.1968 0.276977,0 0.539382,-0.066 0.787214,-0.1968 0.24782,-0.1457 0.466491,-0.3863 0.656011,-0.7216 0.189508,-0.3498 0.342577,-0.8091 0.459208,-1.3776 0.116617,-0.5831 0.174929,-1.312 0.174937,-2.1867 m 1.968034,0 c -9e-6,1.0642 -0.08748,1.9607 -0.262405,2.6896 -0.174945,0.7289 -0.437349,1.3194 -0.787214,1.7713 -0.335302,0.4373 -0.758064,0.7507 -1.268288,0.9403 -0.49566,0.1895 -1.071491,0.2842 -1.727497,0.2842 -0.656016,0 -1.239136,-0.095 -1.749364,-0.2842 -0.495655,-0.1896 -0.918418,-0.503 -1.268288,-0.9403 -0.335297,-0.4519 -0.590412,-1.0424 -0.765347,-1.7713 -0.174937,-0.7289 -0.262405,-1.6254 -0.262404,-2.6896 -10e-7,-1.0642 0.08747,-1.9607 0.262404,-2.6897 0.174935,-0.7288 0.43005,-1.312 0.765347,-1.7493 0.34987,-0.4519 0.772633,-0.7726 1.268288,-0.9622 0.510228,-0.1895 1.093348,-0.2842 1.749364,-0.2842 0.656006,0 1.231837,0.095 1.727497,0.2842 0.510224,0.1896 0.932986,0.5103 1.268288,0.9622 0.349865,0.4373 0.612269,1.0205 0.787214,1.7493 0.174928,0.729 0.262396,1.6255 0.262405,2.6897"
         style="font-size:21.86704636px;font-variant:normal;font-stretch:normal;fill:#4d4d4d;font-family:Cuprum;-inkscape-font-specification:Cuprum"
         id="path10664" />
      <path
         d="m 84.723761,1360.6945 c -2e-6,-0.758 0.07289,-1.3776 0.21867,-1.8587 0.160357,-0.4956 0.379027,-0.8746 0.656012,-1.1371 0.276979,-0.2769 0.597696,-0.4664 0.96215,-0.5685 0.379025,-0.102 0.787209,-0.1531 1.224554,-0.1531 0.160354,0 0.349868,0.015 0.568544,0.044 0.218664,0.015 0.437335,0.044 0.656011,0.087 0.233242,0.044 0.451912,0.095 0.656011,0.1531 0.218664,0.044 0.3936,0.095 0.524809,0.1531 l 0,0.8746 -1.968034,0 c -0.160363,10e-5 -0.335299,0.036 -0.524809,0.1094 -0.174941,0.058 -0.342588,0.1749 -0.502942,0.3499 -0.145784,0.1749 -0.269697,0.4227 -0.37174,0.7434 -0.08747,0.3062 -0.131206,0.7071 -0.131202,1.2027 l 0,0.8747 3.061387,0 0,0.984 c -0.335302,0.1167 -0.750775,0.2187 -1.246422,0.3062 -0.48108,0.087 -0.940288,0.1312 -1.377624,0.1312 l -0.437341,0 0,9.2935 -1.968034,0 0,-9.2935 -1.312023,0 0,-1.4214 1.312023,0 0,-0.8747"
         style="font-size:21.86704636px;font-variant:normal;font-stretch:normal;fill:#4d4d4d;font-family:Cuprum;-inkscape-font-specification:Cuprum"
         id="path10666" />
      <path
         d="m 100.75914,1370.2067 0.0875,0 2.90832,-13.2296 1.96804,0 -3.49873,15.307 -2.842718,0 -3.498727,-15.307 1.968034,0 2.908321,13.2296"
         style="font-size:21.86704636px;font-variant:normal;font-stretch:normal;fill:#4d4d4d;font-family:Cuprum;-inkscape-font-specification:Cuprum"
         id="path10668" />
      <path
         d="m 111.76202,1366.9266 -1.53069,0 c -0.55397,0 -1.02047,0.1458 -1.39949,0.4374 -0.37903,0.277 -0.56855,0.8236 -0.56855,1.64 0,0.4373 0.051,0.8018 0.15307,1.0934 0.10205,0.2769 0.24054,0.4956 0.41548,0.656 0.17493,0.1603 0.37902,0.2769 0.61227,0.3498 0.24783,0.058 0.51023,0.088 0.78722,0.088 0.27698,0 0.56125,-0.044 0.85281,-0.1312 0.29156,-0.088 0.51752,-0.1895 0.67788,-0.3061 l 0,-3.8268 m -2.1867,5.5761 c -0.49566,0 -0.94758,-0.051 -1.35576,-0.153 -0.39361,-0.088 -0.73619,-0.2624 -1.02775,-0.5249 -0.27699,-0.2624 -0.49566,-0.6195 -0.65601,-1.0714 -0.16036,-0.452 -0.24054,-1.0351 -0.24054,-1.7494 0,-0.6852 0.0802,-1.2464 0.24054,-1.6838 0.16035,-0.4373 0.37902,-0.7799 0.65601,-1.0277 0.29156,-0.2624 0.63414,-0.4373 1.02775,-0.5248 0.40818,-0.1021 0.8601,-0.1531 1.35576,-0.1531 0.33529,0 0.69974,0.022 1.09335,0.066 0.3936,0.044 0.75805,0.095 1.09335,0.1531 l 0,-0.984 c -1e-5,-0.4957 -0.0583,-0.8966 -0.17494,-1.2027 -0.10205,-0.3207 -0.25512,-0.5686 -0.4592,-0.7435 -0.2041,-0.1749 -0.45922,-0.2916 -0.76535,-0.3499 -0.29157,-0.073 -0.62686,-0.1093 -1.00588,-0.1093 l -2.18671,0 0,-0.8747 c 0.33529,-0.1166 0.74348,-0.2187 1.22456,-0.3061 0.49565,-0.087 0.96214,-0.1312 1.39949,-0.1312 0.656,0 1.22455,0.051 1.70563,0.153 0.49564,0.1021 0.90383,0.2916 1.22455,0.5686 0.33529,0.2624 0.58311,0.6414 0.74348,1.1371 0.17493,0.481 0.2624,1.1006 0.26241,1.8587 l 0,7.4348 -1.64003,0 -0.10934,-0.6561 -0.10933,0 c -0.27699,0.277 -0.61958,0.4957 -1.02775,0.6561 -0.40819,0.1457 -0.83096,0.2186 -1.26829,0.2186"
         style="font-size:21.86704636px;font-variant:normal;font-stretch:normal;fill:#4d4d4d;font-family:Cuprum;-inkscape-font-specification:Cuprum"
         id="path10670" />
      <path
         d="m 116.66502,1356.9771 1.96803,0 0,15.307 -1.96803,0 0,-15.307"
         style="font-size:21.86704636px;font-variant:normal;font-stretch:normal;fill:#4d4d4d;font-family:Cuprum;-inkscape-font-specification:Cuprum"
         id="path10672" />
      <path
         d="m 127.17145,1361.3505 1.96804,0 0,10.9336 -1.64003,0 -0.10934,-0.6561 -0.10933,0 c -0.27699,0.277 -0.61958,0.4957 -1.02775,0.6561 -0.40819,0.1457 -0.83096,0.2186 -1.26829,0.2186 -0.52482,0 -0.9986,-0.051 -1.42136,-0.153 -0.40819,-0.088 -0.75806,-0.2552 -1.04962,-0.503 -0.29156,-0.2478 -0.51752,-0.5831 -0.67788,-1.0059 -0.16036,-0.4227 -0.24054,-0.9621 -0.24053,-1.6181 l 0,-7.8722 1.96803,0 0,7.8722 c 0,0.379 0.051,0.6997 0.15307,0.9621 0.10204,0.2478 0.24782,0.4519 0.43734,0.6123 0.18951,0.1458 0.40818,0.2478 0.65601,0.3061 0.24782,0.058 0.52481,0.088 0.83095,0.088 0.27698,0 0.56125,-0.044 0.85281,-0.1312 0.29156,-0.088 0.51752,-0.1895 0.67788,-0.3061 l 0,-9.4029"
         style="font-size:21.86704636px;font-variant:normal;font-stretch:normal;fill:#4d4d4d;font-family:Cuprum;-inkscape-font-specification:Cuprum"
         id="path10674" />
      <path
         d="m 139.18978,1367.4733 -5.68543,0 c 0,0.7143 0.0583,1.312 0.17494,1.7931 0.11662,0.4665 0.29156,0.8455 0.52481,1.1371 0.24782,0.277 0.56125,0.4811 0.94028,0.6123 0.3936,0.1166 0.86739,0.1749 1.42136,0.1749 l 2.1867,0 0,0.8747 c -0.3353,0.1166 -0.75077,0.2187 -1.24642,0.3061 -0.48108,0.088 -0.94029,0.1312 -1.37762,0.1312 -0.81638,0 -1.51612,-0.087 -2.09924,-0.2624 -0.58312,-0.1895 -1.0642,-0.5029 -1.44322,-0.9403 -0.36446,-0.4373 -0.63415,-1.0204 -0.80908,-1.7493 -0.16036,-0.7289 -0.24054,-1.64 -0.24054,-2.7334 0,-1.0933 0.0802,-2.0045 0.24054,-2.7334 0.16035,-0.7289 0.40089,-1.312 0.72161,-1.7493 0.32071,-0.4374 0.72161,-0.7435 1.20269,-0.9185 0.48107,-0.1895 1.03503,-0.2842 1.66189,-0.2842 0.62685,0 1.18082,0.095 1.6619,0.2842 0.48106,0.175 0.88196,0.4811 1.20268,0.9185 0.32071,0.4373 0.56125,1.0204 0.72162,1.7493 0.16035,0.7289 0.24053,1.6401 0.24053,2.7334 l 0,0.656 m -1.96803,-1.312 c -10e-6,-0.7435 -0.051,-1.3558 -0.15307,-1.8368 -0.10205,-0.4957 -0.24054,-0.8893 -0.41547,-1.1809 -0.16037,-0.2915 -0.35717,-0.4956 -0.59041,-0.6122 -0.21868,-0.1312 -0.45193,-0.1968 -0.69975,-0.1968 -0.24783,0 -0.48837,0.066 -0.72161,0.1968 -0.21868,0.1166 -0.41548,0.3207 -0.59041,0.6122 -0.16036,0.2916 -0.29157,0.6852 -0.39361,1.1809 -0.10205,0.481 -0.15307,1.0933 -0.15307,1.8368 l 3.7174,0"
         style="font-size:21.86704636px;font-variant:normal;font-stretch:normal;fill:#4d4d4d;font-family:Cuprum;-inkscape-font-specification:Cuprum"
         id="path10676" />
    </g>
    <g
       style="font-size:49.34280777px;font-style:normal;font-weight:normal;line-height:125%;letter-spacing:0px;word-spacing:0px;fill:#4d4d4d;fill-opacity:1;stroke:none;font-family:Sans"
       id="text15189-1">
      <path
         d="m 36.36969,1279.7459 0.141702,0 4.711589,-21.4324 3.188294,0 -5.668078,24.7978 -4.605313,0 -5.668077,-24.7978 3.188293,0 4.71159,21.4324"
         style="font-size:35.4254837px;font-variant:normal;font-stretch:normal;fill:#4d4d4d;font-family:Cuprum;-inkscape-font-specification:Cuprum"
         id="path10721" />
      <path
         d="m 54.194797,1274.4321 -2.479784,0 c -0.897453,0 -1.653196,0.2362 -2.267231,0.7085 -0.614047,0.4487 -0.921068,1.3344 -0.921063,2.6569 -5e-6,0.7085 0.08266,1.2989 0.247979,1.7713 0.165313,0.4487 0.389674,0.803 0.673084,1.0627 0.283398,0.2598 0.614035,0.4488 0.991913,0.5669 0.401482,0.094 0.826587,0.1417 1.275318,0.1417 0.448714,0 0.909245,-0.071 1.381594,-0.2126 0.47233,-0.1417 0.838393,-0.307 1.09819,-0.496 l 0,-6.1994 m -3.542549,9.0335 c -0.802984,0 -1.535109,-0.083 -2.19638,-0.248 -0.637663,-0.1417 -1.192661,-0.4251 -1.664997,-0.8502 -0.448726,-0.4251 -0.80298,-1.0037 -1.062765,-1.7359 -0.259789,-0.7321 -0.389682,-1.6768 -0.38968,-2.834 -2e-6,-1.11 0.129891,-2.0192 0.38968,-2.7278 0.259785,-0.7085 0.614039,-1.2635 1.062765,-1.665 0.472336,-0.4251 1.027334,-0.7085 1.664997,-0.8502 0.661271,-0.1653 1.393396,-0.2479 2.19638,-0.2479 0.543184,0 1.133608,0.035 1.771274,0.1062 0.63765,0.071 1.228074,0.1536 1.771275,0.248 l 0,-1.5941 c -1.1e-5,-0.803 -0.09448,-1.4525 -0.283404,-1.9484 -0.165329,-0.5196 -0.413307,-0.9211 -0.743935,-1.2045 -0.330647,-0.2834 -0.743944,-0.4723 -1.239892,-0.5668 -0.472348,-0.1181 -1.015538,-0.1771 -1.629573,-0.1771 l -3.542548,0 0,-1.4171 c 0.543187,-0.1889 1.204462,-0.3542 1.983827,-0.4959 0.802972,-0.1417 1.558715,-0.2126 2.267231,-0.2126 1.062756,0 1.983818,0.083 2.763188,0.248 0.802967,0.1653 1.464242,0.4724 1.983827,0.9211 0.543178,0.4251 0.944666,1.0391 1.204466,1.8421 0.283391,0.7794 0.425092,1.7831 0.425106,3.0112 l 0,12.0446 -2.656911,0 -0.177128,-1.0627 -0.177127,0 c -0.448733,0.4487 -1.003732,0.8029 -1.664998,1.0627 -0.661284,0.2362 -1.346176,0.3543 -2.054678,0.3543"
         style="font-size:35.4254837px;font-variant:normal;font-stretch:normal;fill:#4d4d4d;font-family:Cuprum;-inkscape-font-specification:Cuprum"
         id="path10723" />
      <path
         d="m 62.137855,1258.3135 3.188294,0 0,24.7978 -3.188294,0 0,-24.7978"
         style="font-size:35.4254837px;font-variant:normal;font-stretch:normal;fill:#4d4d4d;font-family:Cuprum;-inkscape-font-specification:Cuprum"
         id="path10725" />
      <path
         d="m 79.158693,1265.3986 3.188294,0 0,17.7127 -2.656912,0 -0.177127,-1.0627 -0.177127,0 c -0.448734,0.4487 -1.003733,0.8029 -1.664998,1.0627 -0.661285,0.2362 -1.346177,0.3543 -2.054678,0.3543 -0.850219,0 -1.61777,-0.083 -2.302657,-0.248 -0.66128,-0.1417 -1.228087,-0.4133 -1.700423,-0.8148 -0.472343,-0.4015 -0.838406,-0.9447 -1.09819,-1.6296 -0.259789,-0.6848 -0.389682,-1.5587 -0.38968,-2.6214 l 0,-12.7532 3.188293,0 0,12.7532 c -5e-6,0.614 0.08265,1.1336 0.247979,1.5587 0.165313,0.4015 0.401482,0.7321 0.708509,0.9919 0.307015,0.2362 0.661269,0.4015 1.062765,0.496 0.401481,0.094 0.850203,0.1417 1.346168,0.1417 0.448714,0 0.909245,-0.071 1.381594,-0.2126 0.472329,-0.1417 0.838392,-0.307 1.09819,-0.496 l 0,-15.2329"
         style="font-size:35.4254837px;font-variant:normal;font-stretch:normal;fill:#4d4d4d;font-family:Cuprum;-inkscape-font-specification:Cuprum"
         id="path10727" />
      <path
         d="m 98.628871,1275.3177 -9.210626,0 c -4e-6,1.1573 0.09446,2.1256 0.283404,2.9049 0.188931,0.7558 0.472335,1.3698 0.850212,1.8421 0.401482,0.4488 0.909247,0.7794 1.523296,0.992 0.63765,0.1889 1.405202,0.2834 2.302656,0.2834 l 3.542549,0 0,1.417 c -0.543204,0.1889 -1.216287,0.3542 -2.019253,0.4959 -0.779371,0.1417 -1.523306,0.2126 -2.231806,0.2126 -1.322559,0 -2.456173,-0.1417 -3.400846,-0.4251 -0.944684,-0.307 -1.724044,-0.8148 -2.338082,-1.5233 -0.590427,-0.7085 -1.027341,-1.6532 -1.310743,-2.8341 -0.259788,-1.1808 -0.389682,-2.6569 -0.38968,-4.4281 -2e-6,-1.7713 0.129892,-3.2474 0.38968,-4.4282 0.259785,-1.1809 0.649465,-2.1255 1.169041,-2.8341 0.51957,-0.7085 1.169037,-1.2044 1.948402,-1.4878 0.779355,-0.307 1.676799,-0.4606 2.692337,-0.4606 1.015521,0 1.912966,0.1536 2.692336,0.4606 0.77935,0.2834 1.428816,0.7793 1.948402,1.4878 0.519561,0.7086 0.909241,1.6532 1.169041,2.8341 0.259773,1.1808 0.389666,2.6569 0.38968,4.4282 l 0,1.0627 m -3.188293,-2.1255 c -1.1e-5,-1.2045 -0.08267,-2.1964 -0.247979,-2.9757 -0.165329,-0.803 -0.38969,-1.4407 -0.673084,-1.913 -0.259796,-0.4723 -0.578625,-0.803 -0.956488,-0.9919 -0.354263,-0.2126 -0.732135,-0.3189 -1.133615,-0.3189 -0.401497,0 -0.791177,0.1063 -1.169041,0.3189 -0.354262,0.1889 -0.673091,0.5196 -0.956488,0.9919 -0.259793,0.4723 -0.472345,1.11 -0.637659,1.913 -0.165324,0.7793 -0.247983,1.7712 -0.247979,2.9757 l 6.022333,0"
         style="font-size:35.4254837px;font-variant:normal;font-stretch:normal;fill:#4d4d4d;font-family:Cuprum;-inkscape-font-specification:Cuprum"
         id="path10729" />
    </g>
    <g
       style="font-size:24.32942009px;font-style:normal;font-weight:normal;line-height:125%;letter-spacing:0px;word-spacing:0px;fill:#4d4d4d;fill-opacity:1;stroke:none;font-family:Sans"
       id="text15195-7">
      <path
         d="m 105.80714,1276.093 0,12.2271 -2.09607,0 0,-10.8297 -1.83406,0 0,-1.048 c 0.26783,-0.093 0.64629,-0.1747 1.13537,-0.2446 0.48908,-0.07 1.04221,-0.1048 1.65939,-0.1048 l 1.13537,0"
         style="font-size:17.46721649px;font-variant:normal;font-weight:bold;font-stretch:normal;fill:#4d4d4d;font-family:Cuprum;-inkscape-font-specification:Cuprum"
         id="path10718" />
    </g>
    <g
       style="font-size:49.34280777px;font-style:normal;font-weight:normal;line-height:125%;letter-spacing:0px;word-spacing:0px;fill:#4d4d4d;fill-opacity:1;stroke:none;font-family:Sans"
       id="text15201-1">
      <path
         d="m 136.57667,1279.7459 0.1417,0 4.71159,-21.4324 3.18829,0 -5.66807,24.7978 -4.60532,0 -5.66807,-24.7978 3.18829,0 4.71159,21.4324"
         style="font-size:35.4254837px;font-variant:normal;font-stretch:normal;fill:#4d4d4d;font-family:Cuprum;-inkscape-font-specification:Cuprum"
         id="path10735" />
      <path
         d="m 154.40178,1274.4321 -2.47979,0 c -0.89745,0 -1.65319,0.2362 -2.26723,0.7085 -0.61405,0.4487 -0.92107,1.3344 -0.92106,2.6569 -1e-5,0.7085 0.0827,1.2989 0.24798,1.7713 0.16531,0.4487 0.38967,0.803 0.67308,1.0627 0.2834,0.2598 0.61404,0.4488 0.99192,0.5669 0.40148,0.094 0.82658,0.1417 1.27531,0.1417 0.44872,0 0.90925,-0.071 1.3816,-0.2126 0.47233,-0.1417 0.83839,-0.307 1.09819,-0.496 l 0,-6.1994 m -3.54255,9.0335 c -0.80299,0 -1.53511,-0.083 -2.19638,-0.248 -0.63766,-0.1417 -1.19266,-0.4251 -1.665,-0.8502 -0.44873,-0.4251 -0.80298,-1.0037 -1.06276,-1.7359 -0.25979,-0.7321 -0.38969,-1.6768 -0.38968,-2.834 -1e-5,-1.11 0.12989,-2.0192 0.38968,-2.7278 0.25978,-0.7085 0.61403,-1.2635 1.06276,-1.665 0.47234,-0.4251 1.02734,-0.7085 1.665,-0.8502 0.66127,-0.1653 1.39339,-0.2479 2.19638,-0.2479 0.54318,0 1.13361,0.035 1.77127,0.1062 0.63765,0.071 1.22808,0.1536 1.77128,0.248 l 0,-1.5941 c -1e-5,-0.803 -0.0945,-1.4525 -0.28341,-1.9484 -0.16533,-0.5196 -0.4133,-0.9211 -0.74393,-1.2045 -0.33065,-0.2834 -0.74395,-0.4723 -1.23989,-0.5668 -0.47235,-0.1181 -1.01554,-0.1771 -1.62958,-0.1771 l -3.54255,0 0,-1.4171 c 0.54319,-0.1889 1.20447,-0.3542 1.98383,-0.4959 0.80297,-0.1417 1.55872,-0.2126 2.26723,-0.2126 1.06276,0 1.98382,0.083 2.76319,0.248 0.80297,0.1653 1.46424,0.4724 1.98383,0.9211 0.54318,0.4251 0.94466,1.0391 1.20446,1.8421 0.28339,0.7794 0.4251,1.7831 0.42511,3.0112 l 0,12.0446 -2.65691,0 -0.17713,-1.0627 -0.17713,0 c -0.44873,0.4487 -1.00373,0.8029 -1.66499,1.0627 -0.66129,0.2362 -1.34618,0.3543 -2.05468,0.3543"
         style="font-size:35.4254837px;font-variant:normal;font-stretch:normal;fill:#4d4d4d;font-family:Cuprum;-inkscape-font-specification:Cuprum"
         id="path10737" />
      <path
         d="m 162.34484,1258.3135 3.18829,0 0,24.7978 -3.18829,0 0,-24.7978"
         style="font-size:35.4254837px;font-variant:normal;font-stretch:normal;fill:#4d4d4d;font-family:Cuprum;-inkscape-font-specification:Cuprum"
         id="path10739" />
      <path
         d="m 179.36567,1265.3986 3.1883,0 0,17.7127 -2.65691,0 -0.17713,-1.0627 -0.17713,0 c -0.44873,0.4487 -1.00373,0.8029 -1.665,1.0627 -0.66128,0.2362 -1.34617,0.3543 -2.05468,0.3543 -0.85021,0 -1.61777,-0.083 -2.30265,-0.248 -0.66128,-0.1417 -1.22809,-0.4133 -1.70043,-0.8148 -0.47234,-0.4015 -0.8384,-0.9447 -1.09819,-1.6296 -0.25978,-0.6848 -0.38968,-1.5587 -0.38968,-2.6214 l 0,-12.7532 3.1883,0 0,12.7532 c -10e-6,0.614 0.0827,1.1336 0.24798,1.5587 0.16531,0.4015 0.40148,0.7321 0.70851,0.9919 0.30701,0.2362 0.66126,0.4015 1.06276,0.496 0.40148,0.094 0.8502,0.1417 1.34617,0.1417 0.44871,0 0.90924,-0.071 1.38159,-0.2126 0.47233,-0.1417 0.83839,-0.307 1.09819,-0.496 l 0,-15.2329"
         style="font-size:35.4254837px;font-variant:normal;font-stretch:normal;fill:#4d4d4d;font-family:Cuprum;-inkscape-font-specification:Cuprum"
         id="path10741" />
      <path
         d="m 198.83585,1275.3177 -9.21062,0 c -10e-6,1.1573 0.0945,2.1256 0.2834,2.9049 0.18893,0.7558 0.47233,1.3698 0.85021,1.8421 0.40148,0.4488 0.90925,0.7794 1.5233,0.992 0.63765,0.1889 1.4052,0.2834 2.30265,0.2834 l 3.54255,0 0,1.417 c -0.5432,0.1889 -1.21629,0.3542 -2.01925,0.4959 -0.77937,0.1417 -1.52331,0.2126 -2.23181,0.2126 -1.32256,0 -2.45617,-0.1417 -3.40084,-0.4251 -0.94469,-0.307 -1.72405,-0.8148 -2.33809,-1.5233 -0.59042,-0.7085 -1.02734,-1.6532 -1.31074,-2.8341 -0.25979,-1.1808 -0.38968,-2.6569 -0.38968,-4.4281 0,-1.7713 0.12989,-3.2474 0.38968,-4.4282 0.25979,-1.1809 0.64947,-2.1255 1.16904,-2.8341 0.51957,-0.7085 1.16904,-1.2044 1.9484,-1.4878 0.77936,-0.307 1.6768,-0.4606 2.69234,-0.4606 1.01552,0 1.91297,0.1536 2.69234,0.4606 0.77935,0.2834 1.42881,0.7793 1.9484,1.4878 0.51956,0.7086 0.90924,1.6532 1.16904,2.8341 0.25977,1.1808 0.38967,2.6569 0.38968,4.4282 l 0,1.0627 m -3.18829,-2.1255 c -1e-5,-1.2045 -0.0827,-2.1964 -0.24798,-2.9757 -0.16533,-0.803 -0.38969,-1.4407 -0.67309,-1.913 -0.25979,-0.4723 -0.57862,-0.803 -0.95648,-0.9919 -0.35427,-0.2126 -0.73214,-0.3189 -1.13362,-0.3189 -0.40149,0 -0.79117,0.1063 -1.16904,0.3189 -0.35426,0.1889 -0.67309,0.5196 -0.95649,0.9919 -0.25979,0.4723 -0.47234,1.11 -0.63766,1.913 -0.16532,0.7793 -0.24798,1.7712 -0.24797,2.9757 l 6.02233,0"
         style="font-size:35.4254837px;font-variant:normal;font-stretch:normal;fill:#4d4d4d;font-family:Cuprum;-inkscape-font-specification:Cuprum"
         id="path10743" />
    </g>
    <g
       style="font-size:24.32942009px;font-style:normal;font-weight:normal;line-height:125%;letter-spacing:0px;word-spacing:0px;fill:#4d4d4d;fill-opacity:1;stroke:none;font-family:Sans"
       id="text15207-6">
      <path
         d="m 202.17133,1286.748 c 0.7802,-0.8966 1.44977,-1.6768 2.00873,-2.3406 0.57059,-0.6754 1.03638,-1.2867 1.39737,-1.834 0.36099,-0.5473 0.623,-1.0539 0.78603,-1.5197 0.17466,-0.4774 0.262,-0.9665 0.26201,-1.4672 -1e-5,-0.8385 -0.16304,-1.4382 -0.48909,-1.7992 -0.32606,-0.3726 -0.77438,-0.5589 -1.34497,-0.5589 l -2.44541,0 0,-0.9607 c 0.26783,-0.093 0.64628,-0.1747 1.13537,-0.2446 0.48908,-0.07 1.0422,-0.1047 1.65938,-0.1048 2.38718,10e-5 3.58077,1.2228 3.58078,3.6682 -1e-5,0.5473 -0.11645,1.1062 -0.34934,1.6768 -0.23291,0.5706 -0.55314,1.1587 -0.9607,1.7642 -0.40757,0.6055 -0.88501,1.2344 -1.43231,1.8865 -0.53567,0.6404 -1.10626,1.31 -1.71179,2.0087 l 4.36681,0 0,1.3974 -6.46287,0 0,-1.5721"
         style="font-size:17.46721649px;font-variant:normal;font-weight:bold;font-stretch:normal;fill:#4d4d4d;font-family:Cuprum;-inkscape-font-specification:Cuprum"
         id="path10732" />
    </g>
    <g
       style="font-size:49.34280777px;font-style:normal;font-weight:normal;line-height:125%;letter-spacing:0px;word-spacing:0px;fill:#4d4d4d;fill-opacity:1;stroke:none;font-family:Sans"
       id="text15213-3">
      <path
         d="m 284.31976,1279.7459 0.1417,0 4.71159,-21.4324 3.18829,0 -5.66808,24.7978 -4.60531,0 -5.66808,-24.7978 3.1883,0 4.71159,21.4324"
         style="font-size:35.4254837px;font-variant:normal;font-stretch:normal;fill:#4d4d4d;font-family:Cuprum;-inkscape-font-specification:Cuprum"
         id="path10749" />
      <path
         d="m 302.14486,1274.4321 -2.47978,0 c -0.89745,0 -1.6532,0.2362 -2.26723,0.7085 -0.61405,0.4487 -0.92107,1.3344 -0.92106,2.6569 -10e-6,0.7085 0.0827,1.2989 0.24798,1.7713 0.16531,0.4487 0.38967,0.803 0.67308,1.0627 0.2834,0.2598 0.61403,0.4488 0.99191,0.5669 0.40148,0.094 0.82659,0.1417 1.27532,0.1417 0.44871,0 0.90925,-0.071 1.38159,-0.2126 0.47233,-0.1417 0.8384,-0.307 1.09819,-0.496 l 0,-6.1994 m -3.54254,9.0335 c -0.80299,0 -1.53511,-0.083 -2.19638,-0.248 -0.63767,-0.1417 -1.19267,-0.4251 -1.665,-0.8502 -0.44873,-0.4251 -0.80298,-1.0037 -1.06277,-1.7359 -0.25979,-0.7321 -0.38968,-1.6768 -0.38968,-2.834 0,-1.11 0.12989,-2.0192 0.38968,-2.7278 0.25979,-0.7085 0.61404,-1.2635 1.06277,-1.665 0.47233,-0.4251 1.02733,-0.7085 1.665,-0.8502 0.66127,-0.1653 1.39339,-0.2479 2.19638,-0.2479 0.54318,0 1.1336,0.035 1.77127,0.1062 0.63765,0.071 1.22807,0.1536 1.77127,0.248 l 0,-1.5941 c -10e-6,-0.803 -0.0945,-1.4525 -0.2834,-1.9484 -0.16533,-0.5196 -0.41331,-0.9211 -0.74393,-1.2045 -0.33065,-0.2834 -0.74395,-0.4723 -1.2399,-0.5668 -0.47234,-0.1181 -1.01553,-0.1771 -1.62957,-0.1771 l -3.54255,0 0,-1.4171 c 0.54319,-0.1889 1.20446,-0.3542 1.98383,-0.4959 0.80297,-0.1417 1.55871,-0.2126 2.26723,-0.2126 1.06276,0 1.98382,0.083 2.76319,0.248 0.80297,0.1653 1.46424,0.4724 1.98383,0.9211 0.54317,0.4251 0.94466,1.0391 1.20446,1.8421 0.28339,0.7794 0.42509,1.7831 0.42511,3.0112 l 0,12.0446 -2.65691,0 -0.17713,-1.0627 -0.17713,0 c -0.44873,0.4487 -1.00373,0.8029 -1.665,1.0627 -0.66128,0.2362 -1.34617,0.3543 -2.05467,0.3543"
         style="font-size:35.4254837px;font-variant:normal;font-stretch:normal;fill:#4d4d4d;font-family:Cuprum;-inkscape-font-specification:Cuprum"
         id="path10751" />
      <path
         d="m 310.08792,1258.3135 3.1883,0 0,24.7978 -3.1883,0 0,-24.7978"
         style="font-size:35.4254837px;font-variant:normal;font-stretch:normal;fill:#4d4d4d;font-family:Cuprum;-inkscape-font-specification:Cuprum"
         id="path10753" />
      <path
         d="m 327.10876,1265.3986 3.18829,0 0,17.7127 -2.65691,0 -0.17712,-1.0627 -0.17713,0 c -0.44874,0.4487 -1.00373,0.8029 -1.665,1.0627 -0.66128,0.2362 -1.34618,0.3543 -2.05468,0.3543 -0.85022,0 -1.61777,-0.083 -2.30265,-0.248 -0.66128,-0.1417 -1.22809,-0.4133 -1.70043,-0.8148 -0.47234,-0.4015 -0.8384,-0.9447 -1.09819,-1.6296 -0.25979,-0.6848 -0.38968,-1.5587 -0.38968,-2.6214 l 0,-12.7532 3.1883,0 0,12.7532 c -10e-6,0.614 0.0827,1.1336 0.24797,1.5587 0.16532,0.4015 0.40149,0.7321 0.70851,0.9919 0.30702,0.2362 0.66127,0.4015 1.06277,0.496 0.40148,0.094 0.8502,0.1417 1.34617,0.1417 0.44871,0 0.90924,-0.071 1.38159,-0.2126 0.47233,-0.1417 0.83839,-0.307 1.09819,-0.496 l 0,-15.2329"
         style="font-size:35.4254837px;font-variant:normal;font-stretch:normal;fill:#4d4d4d;font-family:Cuprum;-inkscape-font-specification:Cuprum"
         id="path10755" />
      <path
         d="m 346.57894,1275.3177 -9.21063,0 c 0,1.1573 0.0945,2.1256 0.28341,2.9049 0.18893,0.7558 0.47233,1.3698 0.85021,1.8421 0.40148,0.4488 0.90925,0.7794 1.52329,0.992 0.63765,0.1889 1.40521,0.2834 2.30266,0.2834 l 3.54255,0 0,1.417 c -0.5432,0.1889 -1.21629,0.3542 -2.01925,0.4959 -0.77937,0.1417 -1.52331,0.2126 -2.23181,0.2126 -1.32256,0 -2.45617,-0.1417 -3.40085,-0.4251 -0.94468,-0.307 -1.72404,-0.8148 -2.33808,-1.5233 -0.59042,-0.7085 -1.02734,-1.6532 -1.31074,-2.8341 -0.25979,-1.1808 -0.38968,-2.6569 -0.38968,-4.4281 0,-1.7713 0.12989,-3.2474 0.38968,-4.4282 0.25978,-1.1809 0.64946,-2.1255 1.16904,-2.8341 0.51957,-0.7085 1.16904,-1.2044 1.9484,-1.4878 0.77936,-0.307 1.6768,-0.4606 2.69234,-0.4606 1.01552,0 1.91297,0.1536 2.69234,0.4606 0.77935,0.2834 1.42881,0.7793 1.9484,1.4878 0.51956,0.7086 0.90924,1.6532 1.16904,2.8341 0.25977,1.1808 0.38966,2.6569 0.38968,4.4282 l 0,1.0627 m -3.18829,-2.1255 c -2e-5,-1.2045 -0.0827,-2.1964 -0.24798,-2.9757 -0.16533,-0.803 -0.38969,-1.4407 -0.67309,-1.913 -0.25979,-0.4723 -0.57862,-0.803 -0.95649,-0.9919 -0.35426,-0.2126 -0.73213,-0.3189 -1.13361,-0.3189 -0.4015,0 -0.79118,0.1063 -1.16904,0.3189 -0.35426,0.1889 -0.67309,0.5196 -0.95649,0.9919 -0.25979,0.4723 -0.47234,1.11 -0.63766,1.913 -0.16532,0.7793 -0.24798,1.7712 -0.24798,2.9757 l 6.02234,0"
         style="font-size:35.4254837px;font-variant:normal;font-stretch:normal;fill:#4d4d4d;font-family:Cuprum;-inkscape-font-specification:Cuprum"
         id="path10757" />
    </g>
    <g
       style="font-size:24.32942009px;font-style:normal;font-weight:normal;line-height:125%;letter-spacing:0px;word-spacing:0px;fill:#4d4d4d;fill-opacity:1;stroke:none;font-family:Sans"
       id="text15219-1">
      <path
         d="m 352.97118,1280.2851 -0.0873,0 0,8.035 -2.00873,0 0,-12.2271 2.09607,0 3.31877,8.0349 0.0873,0 0,-8.0349 2.00873,0 0,12.2271 -2.09606,0 -3.31877,-8.035"
         style="font-size:17.46721649px;font-variant:normal;font-weight:bold;font-stretch:normal;fill:#4d4d4d;font-family:Cuprum;-inkscape-font-specification:Cuprum"
         id="path10746" />
    </g>
    <g
       style="font-size:49.34280777px;font-style:normal;font-weight:normal;line-height:125%;letter-spacing:0px;word-spacing:0px;fill:#4d4d4d;fill-opacity:1;stroke:none;font-family:Sans"
       id="text13123">
      <path
         d="m -88.734797,1284.0021 c -1.062771,0 -2.0783,-0.071 -3.046592,-0.2126 -0.9683,-0.1417 -1.724042,-0.307 -2.267231,-0.4959 l 0,-1.5942 4.605313,0 c 0.661269,0 1.263501,-0.1417 1.8067,-0.4251 0.543182,-0.307 1.003713,-0.7911 1.381594,-1.4524 0.401478,-0.6849 0.708499,-1.5824 0.921062,-2.6924 0.212542,-1.11 0.318819,-2.4797 0.31883,-4.1093 -0.543202,0.1889 -1.216285,0.3542 -2.019253,0.4959 -0.779369,0.1418 -1.523303,0.2126 -2.231805,0.2126 -1.77128,0 -3.164681,-0.5904 -4.180207,-1.7713 -0.991916,-1.1808 -1.487872,-3.1883 -1.487871,-6.0223 -10e-7,-2.6687 0.531381,-4.5699 1.594147,-5.7035 1.086378,-1.1572 2.739565,-1.7358 4.959568,-1.7359 2.219987,10e-5 3.861366,0.5787 4.924142,1.7359 1.086368,1.1336 1.629558,3.0348 1.629572,5.7035 l 0,7.7936 c -1.4e-5,1.8657 -0.153524,3.4481 -0.460531,4.747 -0.307034,1.2989 -0.755757,2.3617 -1.346168,3.1883 -0.56682,0.803 -1.287137,1.3934 -2.160955,1.7713 -0.850221,0.3778 -1.830325,0.5668 -2.940315,0.5668 m 3.719676,-12.3989 0,-5.6681 c -1.1e-5,-0.9683 -0.08267,-1.7831 -0.247979,-2.4444 -0.165329,-0.6848 -0.401499,-1.2398 -0.708509,-1.665 -0.307031,-0.4251 -0.661285,-0.7321 -1.062765,-0.921 -0.401497,-0.1889 -0.85022,-0.2834 -1.346168,-0.2834 -0.495964,0 -0.944687,0.094 -1.346169,0.2834 -0.401494,0.1889 -0.755749,0.4959 -1.062764,0.921 -0.307026,0.4252 -0.543196,0.9802 -0.70851,1.665 -0.165323,0.6613 -0.247983,1.4761 -0.247978,2.4444 -5e-6,2.1255 0.35425,3.6016 1.062764,4.4282 0.732121,0.8266 1.853927,1.2399 3.365421,1.2399 l 2.302657,0"
         style="font-size:35.4254837px;font-variant:normal;font-stretch:normal;fill:#4d4d4d;font-family:Cuprum;-inkscape-font-specification:Cuprum"
         id="path12404" />
    </g>
  </g>
</svg>
