<?xml version="1.0" encoding="UTF-8" standalone="no"?>
<!-- Created with Inkscape (http://www.inkscape.org/) -->

<svg
   xmlns:dc="http://purl.org/dc/elements/1.1/"
   xmlns:cc="http://creativecommons.org/ns#"
   xmlns:rdf="http://www.w3.org/1999/02/22-rdf-syntax-ns#"
   xmlns:svg="http://www.w3.org/2000/svg"
   xmlns="http://www.w3.org/2000/svg"
   xmlns:sodipodi="http://sodipodi.sourceforge.net/DTD/sodipodi-0.dtd"
   xmlns:inkscape="http://www.inkscape.org/namespaces/inkscape"
   width="517.46875"
   height="249.41908"
   id="svg5558"
   version="1.1"
   inkscape:version="0.48.5 r10040"
   sodipodi:docname="struct.svg">
  <defs
     id="defs5560" />
  <sodipodi:namedview
     id="base"
     pagecolor="#ffffff"
     bordercolor="#666666"
     borderopacity="1.0"
     inkscape:pageopacity="0.0"
     inkscape:pageshadow="2"
     inkscape:zoom="1.4"
     inkscape:cx="111.16915"
     inkscape:cy="55.556152"
     inkscape:document-units="px"
     inkscape:current-layer="layer1"
     showgrid="false"
     fit-margin-top="1"
     fit-margin-left="1"
     fit-margin-right="1"
     fit-margin-bottom="1"
     inkscape:window-width="1280"
     inkscape:window-height="743"
     inkscape:window-x="0"
     inkscape:window-y="22"
     inkscape:window-maximized="1" />
  <metadata
     id="metadata5563">
    <rdf:RDF>
      <cc:Work
         rdf:about="">
        <dc:format>image/svg+xml</dc:format>
        <dc:type
           rdf:resource="http://purl.org/dc/dcmitype/StillImage" />
        <dc:title></dc:title>
      </cc:Work>
    </rdf:RDF>
  </metadata>
  <g
     inkscape:label="Layer 1"
     inkscape:groupmode="layer"
     id="layer1"
     transform="translate(-9.28125,-807.98717)">
    <g
       style="font-size:30.45777893px;font-style:normal;font-weight:normal;line-height:125%;letter-spacing:0px;word-spacing:0px;fill:#4d4d4d;fill-opacity:1;stroke:none;font-family:Sans"
       id="text15863">
      <path
         d="m 33.90036,813.79792 c -10e-7,-1.32659 0.335294,-2.31061 1.005884,-2.95205 0.670587,-0.656 1.720204,-0.98401 3.148855,-0.98402 0.656006,10e-6 1.282861,0.0438 1.880566,0.1312 0.597692,0.0875 1.064188,0.18953 1.399491,0.30614 l 0,0.98402 -2.842716,0 c -1.749367,10e-6 -2.624048,0.83825 -2.624046,2.51471 -2e-6,0.6706 0.153067,1.20269 0.459208,1.59629 0.306135,0.39362 0.692453,0.72891 1.158954,1.00589 0.466492,0.26241 0.962145,0.51023 1.486959,0.74347 0.539381,0.21868 1.042322,0.50295 1.508826,0.85282 0.466489,0.3353 0.852807,0.77264 1.158954,1.31202 0.306129,0.53939 0.459199,1.25372 0.459208,2.14297 -9e-6,0.71433 -0.08748,1.3339 -0.262405,1.8587 -0.174945,0.51023 -0.459216,0.94029 -0.852815,1.29016 -0.379036,0.33529 -0.881978,0.59041 -1.508826,0.76534 -0.626861,0.16036 -1.392207,0.24054 -2.29604,0.24054 -0.656015,0 -1.282869,-0.0437 -1.880566,-0.1312 -0.597701,-0.0875 -1.064197,-0.18951 -1.399491,-0.30614 l 0,-0.98402 2.842716,0 c 1.253706,0 2.128387,-0.21867 2.624046,-0.65601 0.510224,-0.45191 0.765339,-1.14437 0.765346,-2.07737 -7e-6,-0.64143 -0.153076,-1.14437 -0.459208,-1.50882 -0.306144,-0.36445 -0.692462,-0.67059 -1.158953,-0.91842 -0.466502,-0.2624 -0.969443,-0.51022 -1.508826,-0.74348 -0.524813,-0.23324 -1.020465,-0.5248 -1.486959,-0.87468 -0.466499,-0.34987 -0.852817,-0.80178 -1.158954,-1.35576 -0.306139,-0.56853 -0.459209,-1.3193 -0.459208,-2.2523"
         style="font-size:21.86704636px;font-variant:normal;font-stretch:normal;fill:#4d4d4d;font-family:Cuprum;-inkscape-font-specification:Cuprum"
         id="path10219" />
      <path
         d="m 46.59008,816.09396 0,5.79476 c -3e-6,0.49566 0.04373,0.90384 0.131203,1.22456 0.102042,0.30614 0.225955,0.54668 0.37174,0.72161 0.160353,0.17494 0.328001,0.29885 0.502942,0.37174 0.189509,0.0583 0.364445,0.0875 0.524809,0.0875 l 1.968034,0 0,0.87468 c -0.131209,0.0583 -0.306146,0.11663 -0.524809,0.17494 -0.204099,0.0437 -0.422769,0.0875 -0.656012,0.1312 -0.218676,0.0437 -0.437346,0.0729 -0.656011,0.0875 -0.218676,0.0291 -0.40819,0.0437 -0.568543,0.0437 -0.437346,0 -0.84553,-0.051 -1.224555,-0.15307 -0.364454,-0.10204 -0.68517,-0.28427 -0.96215,-0.54667 -0.276985,-0.27699 -0.495655,-0.65601 -0.656011,-1.13709 -0.145782,-0.48107 -0.218672,-1.10793 -0.218671,-1.88057 l 0,-5.79476 -1.312023,0 0,-1.42136 1.312023,0 0,-2.62405 1.968034,0 0,2.62405 3.061387,0 0,0.98402 c -0.335301,0.11663 -0.750775,0.21868 -1.246422,0.30613 -0.48108,0.0875 -0.940287,0.13122 -1.377624,0.13121 l -0.437341,0"
         style="font-size:21.86704636px;font-variant:normal;font-stretch:normal;fill:#4d4d4d;font-family:Cuprum;-inkscape-font-specification:Cuprum"
         id="path10221" />
      <path
         d="m 53.821582,825.38745 -1.968034,0 0,-10.93352 1.661895,0 0.109336,0.87468 0.109335,0 c 0.262401,-0.21866 0.612273,-0.41546 1.049618,-0.59041 0.451914,-0.1895 1.005879,-0.28426 1.661896,-0.28427 l 1.093352,0 0,1.64003 -2.186705,0 c -0.276987,10e-6 -0.54668,0.0364 -0.80908,0.10933 -0.262409,0.0583 -0.502946,0.16766 -0.721613,0.32801 l 0,8.85615"
         style="font-size:21.86704636px;font-variant:normal;font-stretch:normal;fill:#4d4d4d;font-family:Cuprum;-inkscape-font-specification:Cuprum"
         id="path10223" />
      <path
         d="m 64.775605,814.45393 1.968035,0 0,10.93352 -1.640029,0 -0.109335,-0.65601 -0.109335,0 c -0.27699,0.27698 -0.619573,0.49565 -1.027752,0.65601 -0.40819,0.14578 -0.830953,0.21867 -1.268288,0.21867 -0.524814,0 -0.998599,-0.051 -1.421358,-0.15307 -0.408188,-0.0875 -0.75806,-0.25511 -1.049618,-0.50294 -0.291563,-0.24783 -0.517522,-0.58312 -0.677879,-1.00588 -0.16036,-0.42276 -0.240539,-0.96215 -0.240537,-1.61817 l 0,-7.87213 1.968034,0 0,7.87213 c -4e-6,0.37904 0.05102,0.69975 0.153069,0.96215 0.102043,0.24783 0.247823,0.45193 0.437341,0.61228 0.18951,0.14578 0.40818,0.24783 0.656011,0.30614 0.247822,0.0583 0.524804,0.0875 0.830948,0.0875 0.276977,0 0.561248,-0.0437 0.852815,-0.1312 0.291554,-0.0875 0.517513,-0.18952 0.677878,-0.30614 l 0,-9.40283"
         style="font-size:21.86704636px;font-variant:normal;font-stretch:normal;fill:#4d4d4d;font-family:Cuprum;-inkscape-font-specification:Cuprum"
         id="path10225" />
      <path
         d="m 73.623218,815.54728 c -0.40819,10e-6 -0.772641,0.0656 -1.093353,0.1968 -0.306142,0.13122 -0.568547,0.36446 -0.787213,0.69975 -0.204096,0.32072 -0.364454,0.76535 -0.481075,1.33389 -0.10205,0.55397 -0.153073,1.26829 -0.15307,2.14297 -3e-6,0.87469 0.05102,1.5963 0.15307,2.16484 0.116621,0.56854 0.284268,1.02046 0.502942,1.35575 0.233244,0.32072 0.517516,0.54668 0.852814,0.67788 0.349868,0.11663 0.758053,0.17494 1.224555,0.17494 l 2.186705,0 0,0.87468 c -0.335303,0.11663 -0.750776,0.21867 -1.246422,0.30614 -0.481081,0.0875 -0.940289,0.1312 -1.377624,0.1312 -0.743484,0 -1.384917,-0.0875 -1.9243,-0.2624 -0.524812,-0.18952 -0.962152,-0.50294 -1.312023,-0.94029 -0.349874,-0.43734 -0.612278,-1.02046 -0.787213,-1.74936 -0.16036,-0.7289 -0.240539,-1.64002 -0.240538,-2.73338 -10e-7,-1.09335 0.08018,-2.00447 0.240538,-2.73338 0.174935,-0.72889 0.43005,-1.31201 0.765346,-1.74936 0.335293,-0.43734 0.750766,-0.74347 1.246422,-0.91842 0.510227,-0.1895 1.107926,-0.28426 1.793098,-0.28427 0.437335,10e-6 0.896543,0.0437 1.377624,0.1312 0.495646,0.0875 0.911119,0.18953 1.246421,0.30614 l 0,0.87468 -2.186704,0"
         style="font-size:21.86704636px;font-variant:normal;font-stretch:normal;fill:#4d4d4d;font-family:Cuprum;-inkscape-font-specification:Cuprum"
         id="path10227" />
      <path
         d="m 80.073996,816.09396 0,5.79476 c -4e-6,0.49566 0.04373,0.90384 0.131202,1.22456 0.102042,0.30614 0.225955,0.54668 0.37174,0.72161 0.160354,0.17494 0.328001,0.29885 0.502942,0.37174 0.189509,0.0583 0.364446,0.0875 0.524809,0.0875 l 1.968034,0 0,0.87468 c -0.131209,0.0583 -0.306145,0.11663 -0.524809,0.17494 -0.204099,0.0437 -0.422769,0.0875 -0.656011,0.1312 -0.218677,0.0437 -0.437347,0.0729 -0.656012,0.0875 -0.218675,0.0291 -0.40819,0.0437 -0.568543,0.0437 -0.437345,0 -0.84553,-0.051 -1.224554,-0.15307 -0.364454,-0.10204 -0.685171,-0.28427 -0.962151,-0.54667 -0.276984,-0.27699 -0.495655,-0.65601 -0.656011,-1.13709 -0.145782,-0.48107 -0.218672,-1.10793 -0.21867,-1.88057 l 0,-5.79476 -1.312023,0 0,-1.42136 1.312023,0 0,-2.62405 1.968034,0 0,2.62405 3.061386,0 0,0.98402 c -0.335301,0.11663 -0.750774,0.21868 -1.246421,0.30613 -0.48108,0.0875 -0.940288,0.13122 -1.377624,0.13121 l -0.437341,0"
         style="font-size:21.86704636px;font-variant:normal;font-stretch:normal;fill:#4d4d4d;font-family:Cuprum;-inkscape-font-specification:Cuprum"
         id="path10229" />
      <path
         d="m 90.476218,819.26468 c -10e-7,-0.71432 0.04373,-1.46509 0.131203,-2.25231 0.102044,-0.7872 0.269692,-1.61086 0.502942,-2.47097 0.233246,-0.8601 0.546673,-1.74935 0.940283,-2.66778 0.393603,-0.93298 0.889256,-1.89513 1.486959,-2.88645 l 1.224554,0.65601 c -0.364455,0.77265 -0.677883,1.53071 -0.940283,2.27417 -0.262408,0.74349 -0.481079,1.50884 -0.656011,2.29604 -0.17494,0.77265 -0.306142,1.57444 -0.393607,2.40538 -0.07289,0.83095 -0.109338,1.71292 -0.109335,2.64591 -3e-6,0.933 0.03644,1.81497 0.109335,2.64591 0.08747,0.83095 0.218667,1.64003 0.393607,2.42724 0.174932,0.77264 0.393603,1.5307 0.656011,2.27418 0.2624,0.75805 0.575828,1.51611 0.940283,2.27417 l -1.224554,0.65601 c -0.597703,-0.97673 -1.093356,-1.93159 -1.486959,-2.86458 -0.39361,-0.933 -0.707037,-1.82955 -0.940283,-2.68965 -0.23325,-0.8601 -0.400898,-1.68376 -0.502942,-2.47098 -0.08747,-0.78721 -0.131204,-1.53797 -0.131203,-2.2523"
         style="font-size:21.86704636px;font-variant:normal;font-stretch:normal;fill:#4d4d4d;font-family:Cuprum;-inkscape-font-specification:Cuprum"
         id="path10231" />
      <path
         d="m 98.481608,816.09396 0,5.79476 c -4e-6,0.49566 0.04373,0.90384 0.131202,1.22456 0.102042,0.30614 0.225955,0.54668 0.37174,0.72161 0.160354,0.17494 0.328001,0.29885 0.502942,0.37174 0.189509,0.0583 0.364445,0.0875 0.524808,0.0875 l 1.96804,0 0,0.87468 c -0.13121,0.0583 -0.30615,0.11663 -0.52481,0.17494 -0.2041,0.0437 -0.42277,0.0875 -0.65602,0.1312 -0.21867,0.0437 -0.43734,0.0729 -0.65601,0.0875 -0.218672,0.0291 -0.408187,0.0437 -0.56854,0.0437 -0.437345,0 -0.84553,-0.051 -1.224555,-0.15307 -0.364454,-0.10204 -0.68517,-0.28427 -0.96215,-0.54667 -0.276985,-0.27699 -0.495655,-0.65601 -0.656011,-1.13709 -0.145782,-0.48107 -0.218672,-1.10793 -0.218671,-1.88057 l 0,-5.79476 -1.312022,0 0,-1.42136 1.312022,0 0,-2.62405 1.968035,0 0,2.62405 3.061382,0 0,0.98402 c -0.3353,0.11663 -0.75077,0.21868 -1.24642,0.30613 -0.481078,0.0875 -0.940285,0.13122 -1.377621,0.13121 l -0.437341,0"
         style="font-size:21.86704636px;font-variant:normal;font-stretch:normal;fill:#4d4d4d;font-family:Cuprum;-inkscape-font-specification:Cuprum"
         id="path10233" />
      <path
         d="m 107.13447,825.60612 c -0.52481,0 -0.9986,-0.051 -1.42136,-0.15307 -0.40819,-0.0875 -0.75806,-0.25511 -1.04962,-0.50294 -0.29156,-0.24783 -0.51752,-0.58312 -0.67788,-1.00588 -0.16036,-0.42276 -0.24053,-0.96215 -0.24053,-1.61817 l 0,-7.87213 1.96803,0 0,7.87213 c 0,0.37904 0.051,0.69975 0.15307,0.96215 0.10204,0.24783 0.24782,0.45193 0.43734,0.61228 0.18951,0.14578 0.40818,0.24783 0.65601,0.30614 0.24782,0.0583 0.52481,0.0875 0.83095,0.0875 0.27698,0 0.56125,-0.0437 0.85282,-0.1312 0.29155,-0.0875 0.51751,-0.18952 0.67787,-0.30614 l 0,-9.40283 1.96804,0 0,10.05884 c -1e-5,1.03504 -0.0875,1.90243 -0.26241,2.60218 -0.16036,0.69974 -0.42277,1.26099 -0.78721,1.68376 -0.34988,0.42276 -0.8018,0.72161 -1.35576,0.89655 -0.55397,0.18951 -1.20998,0.28427 -1.96803,0.28427 -0.43735,0 -0.90384,-0.0437 -1.39949,-0.1312 -0.48108,-0.0875 -0.88926,-0.18952 -1.22456,-0.30614 l 0,-0.87468 2.18671,0 c 0.49565,-10e-6 0.91841,-0.0583 1.26829,-0.17494 0.36444,-0.11663 0.66329,-0.32072 0.89655,-0.61228 0.23324,-0.27698 0.40088,-0.64872 0.50294,-1.11521 0.11661,-0.45192 0.17493,-1.02047 0.17493,-1.70563 -0.3353,0.16035 -0.67788,0.29156 -1.02775,0.3936 -0.3353,0.10205 -0.72162,0.15307 -1.15895,0.15307"
         style="font-size:21.86704636px;font-variant:normal;font-stretch:normal;fill:#4d4d4d;font-family:Cuprum;-inkscape-font-specification:Cuprum"
         id="path10235" />
      <path
         d="m 115.98208,815.10994 c 0.27698,-0.27697 0.61956,-0.48835 1.02775,-0.63414 0.40818,-0.16035 0.83094,-0.24053 1.26829,-0.24054 0.56854,10e-6 1.07877,0.0948 1.53069,0.28427 0.45191,0.17495 0.83094,0.48108 1.13709,0.91842 0.30613,0.43735 0.53938,1.02047 0.69974,1.74936 0.16035,0.72891 0.24053,1.64003 0.24054,2.73338 -10e-6,1.09336 -0.0802,2.00448 -0.24054,2.73338 -0.16036,0.7289 -0.39361,1.31202 -0.69974,1.74936 -0.30615,0.43735 -0.68518,0.75077 -1.13709,0.94029 -0.45192,0.17493 -0.96215,0.2624 -1.53069,0.2624 -0.43735,0 -0.83095,-0.051 -1.18082,-0.15307 -0.3353,-0.10204 -0.67059,-0.23325 -1.00589,-0.3936 l 0,4.70141 -1.96803,0 0,-15.30693 1.64003,0 0.10933,0.65601 0.10934,0 m 0.10933,8.74682 c 0.16036,0.11662 0.38632,0.21867 0.67788,0.30614 0.29156,0.0875 0.57583,0.1312 0.85282,0.1312 0.34987,0 0.66329,-0.0583 0.94028,-0.17494 0.29156,-0.1312 0.53209,-0.35716 0.72161,-0.67788 0.20409,-0.33529 0.35716,-0.78721 0.45921,-1.35575 0.11662,-0.56854 0.17493,-1.29015 0.17494,-2.16484 -1e-5,-0.87468 -0.0583,-1.589 -0.17494,-2.14297 -0.10205,-0.56854 -0.25512,-1.01317 -0.45921,-1.33389 -0.18952,-0.33529 -0.43005,-0.56853 -0.72161,-0.69975 -0.27699,-0.13119 -0.59041,-0.19679 -0.94028,-0.1968 -0.27699,10e-6 -0.56126,0.0437 -0.85282,0.1312 -0.29156,0.0875 -0.51752,0.18953 -0.67788,0.30614 l 0,7.87214"
         style="font-size:21.86704636px;font-variant:normal;font-stretch:normal;fill:#4d4d4d;font-family:Cuprum;-inkscape-font-specification:Cuprum"
         id="path10237" />
      <path
         d="m 131.50426,820.5767 -5.68543,0 c 0,0.71433 0.0583,1.31203 0.17494,1.7931 0.11662,0.4665 0.29155,0.84553 0.52481,1.13709 0.24782,0.27698 0.56125,0.48107 0.94028,0.61227 0.3936,0.11663 0.86739,0.17494 1.42136,0.17494 l 2.1867,0 0,0.87468 c -0.3353,0.11663 -0.75077,0.21867 -1.24642,0.30614 -0.48108,0.0875 -0.94029,0.1312 -1.37762,0.1312 -0.81638,0 -1.51612,-0.0875 -2.09924,-0.2624 -0.58312,-0.18952 -1.0642,-0.50294 -1.44323,-0.94029 -0.36445,-0.43734 -0.63414,-1.02046 -0.80908,-1.74936 -0.16036,-0.7289 -0.24053,-1.64002 -0.24053,-2.73338 0,-1.09335 0.0802,-2.00447 0.24053,-2.73338 0.16036,-0.72889 0.4009,-1.31201 0.72162,-1.74936 0.32071,-0.43734 0.72161,-0.74347 1.20268,-0.91842 0.48108,-0.1895 1.03504,-0.28426 1.6619,-0.28427 0.62685,10e-6 1.18081,0.0948 1.6619,0.28427 0.48106,0.17495 0.88196,0.48108 1.20268,0.91842 0.32071,0.43735 0.56125,1.02047 0.72162,1.74936 0.16034,0.72891 0.24052,1.64003 0.24053,2.73338 l 0,0.65601 m -1.96803,-1.31202 c -1e-5,-0.74347 -0.051,-1.35575 -0.15307,-1.83683 -0.10205,-0.49565 -0.24054,-0.88925 -0.41547,-1.18082 -0.16037,-0.29156 -0.35717,-0.49565 -0.59041,-0.61228 -0.21868,-0.13119 -0.45193,-0.19679 -0.69975,-0.1968 -0.24783,10e-6 -0.48837,0.0656 -0.72161,0.1968 -0.21868,0.11663 -0.41548,0.32072 -0.59041,0.61228 -0.16036,0.29157 -0.29157,0.68517 -0.39361,1.18082 -0.10205,0.48108 -0.15307,1.09336 -0.15307,1.83683 l 3.7174,0"
         style="font-size:21.86704636px;font-variant:normal;font-stretch:normal;fill:#4d4d4d;font-family:Cuprum;-inkscape-font-specification:Cuprum"
         id="path10239" />
      <path
         d="m 141.44181,810.08052 0,15.30693 -1.96804,0 0,-15.30693 1.96804,0"
         style="font-size:21.86704636px;font-variant:normal;font-stretch:normal;fill:#4d4d4d;font-family:Cuprum;-inkscape-font-specification:Cuprum"
         id="path10241" />
      <path
         d="m 153.26027,817.73398 c -1e-5,1.5307 -0.10935,2.80628 -0.32801,3.82674 -0.21868,1.00589 -0.54669,1.80768 -0.98402,2.40537 -0.43735,0.5977 -0.98402,1.02047 -1.64003,1.26829 -0.65601,0.24783 -1.42136,0.37174 -2.29604,0.37174 -0.65601,0 -1.26829,-0.0364 -1.83683,-0.10933 -0.55397,-0.0583 -1.10793,-0.16765 -1.66189,-0.32801 l 0,-14.86959 c 0.55396,-0.16034 1.10792,-0.26968 1.66189,-0.32801 0.56854,-0.0729 1.18082,-0.10932 1.83683,-0.10933 0.87468,10e-6 1.64003,0.12393 2.29604,0.37174 0.65601,0.24784 1.20268,0.6706 1.64003,1.26829 0.43733,0.59771 0.76534,1.40679 0.98402,2.42724 0.21866,1.00589 0.328,2.27418 0.32801,3.80486 m -1.96804,0 c -1e-5,-1.28285 -0.0802,-2.33976 -0.24054,-3.17072 -0.16036,-0.83093 -0.38632,-1.48694 -0.67787,-1.96803 -0.27699,-0.49564 -0.61958,-0.83822 -1.02776,-1.02775 -0.39361,-0.1895 -0.83824,-0.28426 -1.33389,-0.28427 l -1.53069,0 0,12.90155 1.53069,0 c 0.49565,0 0.94028,-0.0947 1.33389,-0.28427 0.40818,-0.18951 0.75077,-0.52481 1.02776,-1.00588 0.29155,-0.49565 0.51751,-1.15895 0.67787,-1.9899 0.16035,-0.83095 0.24053,-1.88785 0.24054,-3.17073"
         style="font-size:21.86704636px;font-variant:normal;font-stretch:normal;fill:#4d4d4d;font-family:Cuprum;-inkscape-font-specification:Cuprum"
         id="path10243" />
      <path
         d="m 157.18609,823.09141 0,2.40538 -1.96804,0 0,-2.40538 1.96804,0 m 0,-8.63748 0,2.40537 -1.96804,0 0,-2.40537 1.96804,0"
         style="font-size:21.86704636px;font-variant:normal;font-stretch:normal;fill:#4d4d4d;font-family:Cuprum;-inkscape-font-specification:Cuprum"
         id="path10245" />
      <path
         d="m 168.77391,809.86185 c 2.69693,10e-6 4.0454,1.27559 4.04541,3.82673 -1e-5,0.51024 -0.0729,0.96945 -0.21867,1.37763 -0.13122,0.40819 -0.30615,0.76535 -0.52481,1.07148 -0.21868,0.30615 -0.46651,0.56126 -0.74348,0.76535 -0.27699,0.2041 -0.54669,0.35717 -0.80908,0.45921 l 0,0.0875 c 0.32071,0.14579 0.63413,0.33531 0.94028,0.56855 0.32071,0.23325 0.60498,0.51752 0.85281,0.85281 0.24782,0.3353 0.44463,0.72162 0.59041,1.15895 0.16035,0.42277 0.24053,0.89656 0.24054,1.42136 -1e-5,1.42865 -0.34259,2.47827 -1.02775,3.14886 -0.68517,0.67059 -1.80039,1.00588 -3.34566,1.00588 -1.54527,0 -2.66049,-0.33529 -3.34566,-1.00588 -0.68516,-0.67059 -1.02775,-1.72021 -1.02775,-3.14886 0,-0.5248 0.0729,-0.99859 0.21867,-1.42136 0.16036,-0.43733 0.36445,-0.82365 0.61228,-1.15895 0.24783,-0.33529 0.52481,-0.61956 0.83095,-0.85281 0.32071,-0.23324 0.64143,-0.42276 0.96215,-0.56855 l 0,-0.0875 c -0.26241,-0.10204 -0.5321,-0.25511 -0.80908,-0.45921 -0.27699,-0.20409 -0.52481,-0.4592 -0.74348,-0.76535 -0.21867,-0.30613 -0.4009,-0.66329 -0.54668,-1.07148 -0.1312,-0.40818 -0.1968,-0.86739 -0.1968,-1.37763 0,-2.55114 1.34846,-3.82672 4.0454,-3.82673 m 0,14.43225 c 0.77263,0 1.36304,-0.22596 1.77123,-0.67788 0.42276,-0.45192 0.63414,-1.17353 0.63415,-2.16484 -1e-5,-0.81636 -0.22597,-1.46508 -0.67788,-1.94616 -0.43735,-0.48107 -1.01318,-0.88926 -1.7275,-1.22456 -0.71433,0.3353 -1.29745,0.74349 -1.74936,1.22456 -0.43734,0.48108 -0.65602,1.1298 -0.65601,1.94616 -1e-5,0.99131 0.20409,1.71292 0.61228,2.16484 0.42275,0.45192 1.02045,0.67788 1.79309,0.67788 m 0,-7.7628 c 0.61227,-0.21866 1.10793,-0.55396 1.48696,-1.00589 0.3936,-0.45191 0.5904,-1.06418 0.59041,-1.83683 -1e-5,-0.83093 -0.19681,-1.45779 -0.59041,-1.88056 -0.37903,-0.42275 -0.87469,-0.63413 -1.48696,-0.63415 -0.61228,2e-5 -1.11522,0.2114 -1.50882,0.63415 -0.37904,0.42277 -0.56855,1.04963 -0.56855,1.88056 0,0.77265 0.18951,1.38492 0.56855,1.83683 0.3936,0.45193 0.89654,0.78723 1.50882,1.00589"
         style="font-size:21.86704636px;font-variant:normal;font-stretch:normal;fill:#4d4d4d;font-family:Cuprum;-inkscape-font-specification:Cuprum"
         id="path10247" />
      <path
         d="m 178.31819,819.26468 c -10e-6,0.71433 -0.051,1.46509 -0.15307,2.2523 -0.0875,0.78722 -0.24783,1.61088 -0.48108,2.47098 -0.23325,0.8601 -0.54668,1.75665 -0.94028,2.68965 -0.39361,0.93299 -0.88926,1.88785 -1.48696,2.86458 l -1.22455,-0.65601 c 0.36445,-0.75806 0.67787,-1.51612 0.94028,-2.27417 0.2624,-0.74348 0.48107,-1.50154 0.65601,-2.27418 0.17493,-0.78721 0.29885,-1.59629 0.37174,-2.42724 0.0875,-0.83094 0.1312,-1.71291 0.1312,-2.64591 0,-0.93299 -0.0437,-1.81496 -0.1312,-2.64591 -0.0729,-0.83094 -0.19681,-1.63273 -0.37174,-2.40538 -0.17494,-0.7872 -0.39361,-1.55255 -0.65601,-2.29604 -0.26241,-0.74346 -0.57583,-1.50152 -0.94028,-2.27417 l 1.22455,-0.65601 c 0.5977,0.99132 1.09335,1.95347 1.48696,2.88645 0.3936,0.91843 0.70703,1.80768 0.94028,2.66778 0.23325,0.86011 0.39361,1.68377 0.48108,2.47097 0.10204,0.78722 0.15306,1.53799 0.15307,2.25231"
         style="font-size:21.86704636px;font-variant:normal;font-stretch:normal;fill:#4d4d4d;font-family:Cuprum;-inkscape-font-specification:Cuprum"
         id="path10249" />
    </g>
    <path
       style="fill:none;stroke:#f3574b;stroke-width:1.82225382;stroke-opacity:1;display:inline"
       d="m 48.282947,949.4369 0,13.40501 -37.09587,0 0,-13.40501"
       id="path15867"
       inkscape:connector-curvature="0"
       sodipodi:nodetypes="cccc" />
    <g
       style="font-size:49.34280777px;font-style:normal;font-weight:normal;line-height:125%;letter-spacing:0px;word-spacing:0px;fill:#4d4d4d;fill-opacity:1;stroke:none;font-family:Sans"
       id="text15869">
      <path
         d="m 30.020797,928.95917 c 4.36913,3e-5 6.553699,2.06651 6.553714,6.19946 -1.5e-5,0.82662 -0.1181,1.57055 -0.354255,2.23181 -0.212567,0.66129 -0.495971,1.23991 -0.850211,1.73585 -0.354269,0.49597 -0.755757,0.90927 -1.204467,1.23989 -0.448735,0.33065 -0.885649,0.57863 -1.310743,0.74393 l 0,0.14171 c 0.519562,0.23618 1.027327,0.5432 1.523296,0.92106 0.519561,0.37788 0.980091,0.83841 1.381594,1.38159 0.401474,0.5432 0.720303,1.16905 0.956488,1.87755 0.259772,0.6849 0.389665,1.45246 0.38968,2.30266 -1.5e-5,2.31447 -0.555014,4.01489 -1.664997,5.10127 -1.110012,1.08638 -2.916709,1.62957 -5.420099,1.62957 -2.503407,0 -4.310105,-0.54319 -5.420099,-1.62957 -1.110001,-1.08638 -1.664999,-2.7868 -1.664998,-5.10127 -1e-6,-0.8502 0.118083,-1.61776 0.354255,-2.30266 0.259785,-0.7085 0.590422,-1.33435 0.991913,-1.87755 0.401486,-0.54318 0.850208,-1.00371 1.346169,-1.38159 0.519569,-0.37786 1.039142,-0.68488 1.558721,-0.92106 l 0,-0.14171 c -0.425111,-0.1653 -0.862025,-0.41328 -1.310743,-0.74393 -0.448727,-0.33062 -0.850215,-0.74392 -1.204466,-1.23989 -0.354258,-0.49594 -0.64947,-1.07456 -0.885637,-1.73585 -0.212555,-0.66126 -0.318832,-1.40519 -0.31883,-2.23181 -2e-6,-4.13295 2.184568,-6.19943 6.553715,-6.19946 m 0,23.38082 c 1.25169,0 2.208177,-0.36606 2.869464,-1.09819 0.68488,-0.73212 1.027326,-1.90116 1.027339,-3.50712 -1.3e-5,-1.32254 -0.366075,-2.3735 -1.09819,-3.15287 -0.70852,-0.77935 -1.641391,-1.44062 -2.798613,-1.98383 -1.15724,0.54321 -2.101919,1.20448 -2.834039,1.98383 -0.708515,0.77937 -1.062769,1.83033 -1.062765,3.15287 -4e-6,1.60596 0.330633,2.775 0.991914,3.50712 0.684886,0.73213 1.653182,1.09819 2.90489,1.09819 m 0,-12.57604 c 0.991904,-0.35424 1.794881,-0.89743 2.408933,-1.62958 0.637647,-0.73211 0.956476,-1.72402 0.956488,-2.97574 -1.2e-5,-1.34614 -0.318841,-2.36167 -0.956488,-3.04659 -0.614052,-0.68487 -1.417029,-1.02731 -2.408933,-1.02734 -0.991921,3e-5 -1.806707,0.34247 -2.444359,1.02734 -0.614047,0.68492 -0.921067,1.70045 -0.921062,3.04659 -5e-6,1.25172 0.307015,2.24363 0.921062,2.97574 0.637652,0.73215 1.452438,1.27534 2.444359,1.62958"
         style="font-size:35.4254837px;font-variant:normal;font-stretch:normal;fill:#4d4d4d;font-family:Cuprum;-inkscape-font-specification:Cuprum"
         id="path10348" />
    </g>
    <path
       style="fill:none;stroke:#919191;stroke-width:0.91112691;stroke-linecap:butt;stroke-linejoin:miter;stroke-miterlimit:4;stroke-opacity:1;stroke-dasharray:0.91112694, 0.91112694;stroke-dashoffset:0"
       d="m 29.210107,917.5503 0,-82.65222 210.559923,0"
       id="path15873"
       inkscape:connector-curvature="0"
       sodipodi:nodetypes="ccc" />
    <path
       sodipodi:nodetypes="cccc"
       inkscape:connector-curvature="0"
       id="path15875"
       d="m 90.585277,949.4369 0,13.40501 -37.09587,0 0,-13.40501"
       style="fill:none;stroke:#f3574b;stroke-width:1.82225382;stroke-opacity:1;display:inline" />
    <g
       style="font-size:49.34280777px;font-style:normal;font-weight:normal;line-height:125%;letter-spacing:0px;word-spacing:0px;fill:#4d4d4d;fill-opacity:1;stroke:none;font-family:Sans"
       id="text15877">
      <path
         d="m 69.203298,954.11127 -3.188293,0 0,-24.79784 3.542548,0 7.262224,17.53561 0.177128,0 0,-17.53561 3.188293,0 0,24.79784 -3.542548,0 -7.262224,-17.53562 -0.177128,0 0,17.53562"
         style="font-size:35.4254837px;font-variant:normal;font-stretch:normal;fill:#4d4d4d;font-family:Cuprum;-inkscape-font-specification:Cuprum"
         id="path10351" />
    </g>
    <g
       style="font-size:30.45777893px;font-style:normal;font-weight:normal;line-height:125%;letter-spacing:0px;word-spacing:0px;fill:#4d4d4d;fill-opacity:1;stroke:none;font-family:Sans"
       id="text15881">
      <path
         d="m 81.539262,867.59436 -1.968034,0 0,-15.30693 2.186705,0 4.482744,10.82419 0.109336,0 0,-10.82419 1.968034,0 0,15.30693 -2.186705,0 -4.482744,-10.82419 -0.109336,0 0,10.82419"
         style="font-size:21.86704636px;font-variant:normal;font-stretch:normal;fill:#4d4d4d;font-family:Cuprum;-inkscape-font-specification:Cuprum"
         id="path10188" />
      <path
         d="m 97.044366,856.00483 c -2e-6,-0.75805 0.07289,-1.37762 0.21867,-1.8587 0.160356,-0.49564 0.379027,-0.87467 0.656012,-1.13709 0.276979,-0.27697 0.597696,-0.46648 0.96215,-0.56854 0.379024,-0.10203 0.787209,-0.15306 1.224552,-0.15307 0.16036,10e-6 0.34987,0.0146 0.56855,0.0437 0.21866,0.0146 0.43733,0.0438 0.65601,0.0875 0.23324,0.0438 0.45191,0.0948 0.65601,0.15307 0.21866,0.0438 0.3936,0.0948 0.52481,0.15307 l 0,0.87468 -1.96804,0 c -0.16036,10e-6 -0.3353,0.0365 -0.52481,0.10934 -0.174937,0.0583 -0.342584,0.17495 -0.502938,0.34987 -0.145784,0.17495 -0.269698,0.42277 -0.37174,0.74348 -0.08747,0.30615 -0.131206,0.70704 -0.131202,1.20269 l 0,0.87468 3.06139,0 0,0.98401 c -0.3353,0.11664 -0.75078,0.21868 -1.24643,0.30614 -0.48108,0.0875 -0.940283,0.13121 -1.377619,0.13121 l -0.437341,0 0,9.29349 -1.968034,0 0,-9.29349 -1.312023,0 0,-1.42136 1.312023,0 0,-0.87468"
         style="font-size:21.86704636px;font-variant:normal;font-stretch:normal;fill:#4d4d4d;font-family:Cuprum;-inkscape-font-specification:Cuprum"
         id="path10190" />
      <path
         d="m 105.79802,867.59436 -1.96804,0 0,-10.93352 1.96804,0 0,10.93352 m 0,-14.86959 0,2.40537 -1.96804,0 0,-2.40537 1.96804,0"
         style="font-size:21.86704636px;font-variant:normal;font-stretch:normal;fill:#4d4d4d;font-family:Cuprum;-inkscape-font-specification:Cuprum"
         id="path10192" />
      <path
         d="m 115.97644,862.78361 -5.68543,0 c 0,0.71433 0.0583,1.31203 0.17494,1.7931 0.11662,0.4665 0.29156,0.84553 0.52481,1.13708 0.24782,0.27699 0.56125,0.48108 0.94028,0.61228 0.3936,0.11663 0.86739,0.17494 1.42136,0.17494 l 2.1867,0 0,0.87468 c -0.3353,0.11662 -0.75077,0.21867 -1.24642,0.30614 -0.48108,0.0875 -0.94029,0.1312 -1.37762,0.1312 -0.81638,0 -1.51612,-0.0875 -2.09924,-0.2624 -0.58312,-0.18952 -1.0642,-0.50295 -1.44322,-0.94029 -0.36446,-0.43734 -0.63415,-1.02046 -0.80908,-1.74936 -0.16036,-0.7289 -0.24054,-1.64002 -0.24054,-2.73338 0,-1.09335 0.0802,-2.00447 0.24054,-2.73338 0.16035,-0.72889 0.40089,-1.31202 0.72161,-1.74937 0.32071,-0.43733 0.72161,-0.74346 1.20269,-0.91841 0.48107,-0.18951 1.03503,-0.28426 1.66189,-0.28427 0.62685,10e-6 1.18082,0.0948 1.6619,0.28427 0.48106,0.17495 0.88196,0.48108 1.20268,0.91841 0.32071,0.43735 0.56125,1.02048 0.72162,1.74937 0.16035,0.72891 0.24053,1.64003 0.24053,2.73338 l 0,0.65601 m -1.96803,-1.31202 c -1e-5,-0.74348 -0.051,-1.35575 -0.15307,-1.83683 -0.10205,-0.49565 -0.24054,-0.88926 -0.41547,-1.18083 -0.16037,-0.29155 -0.35717,-0.49564 -0.59041,-0.61227 -0.21868,-0.13119 -0.45193,-0.1968 -0.69975,-0.19681 -0.24783,10e-6 -0.48837,0.0656 -0.72161,0.19681 -0.21868,0.11663 -0.41548,0.32072 -0.59041,0.61227 -0.16036,0.29157 -0.29157,0.68518 -0.39361,1.18083 -0.10205,0.48108 -0.15307,1.09335 -0.15307,1.83683 l 3.7174,0"
         style="font-size:21.86704636px;font-variant:normal;font-stretch:normal;fill:#4d4d4d;font-family:Cuprum;-inkscape-font-specification:Cuprum"
         id="path10194" />
      <path
         d="m 118.47919,852.28743 1.96804,0 0,15.30693 -1.96804,0 0,-15.30693"
         style="font-size:21.86704636px;font-variant:normal;font-stretch:normal;fill:#4d4d4d;font-family:Cuprum;-inkscape-font-specification:Cuprum"
         id="path10196" />
      <path
         d="m 128.87629,866.93835 c -0.27699,0.27698 -0.61957,0.49565 -1.02775,0.65601 -0.40819,0.14578 -0.83095,0.21867 -1.26829,0.21867 -0.56854,0 -1.07877,-0.0875 -1.53069,-0.2624 -0.45192,-0.18952 -0.83095,-0.50295 -1.13709,-0.94029 -0.30614,-0.43734 -0.53938,-1.02046 -0.69974,-1.74936 -0.16036,-0.7289 -0.24054,-1.64002 -0.24054,-2.73338 0,-1.09335 0.0802,-2.00447 0.24054,-2.73338 0.16036,-0.72889 0.3936,-1.31202 0.69974,-1.74937 0.30614,-0.43733 0.68517,-0.74346 1.13709,-0.91841 0.45192,-0.18951 0.96215,-0.28426 1.53069,-0.28427 0.43734,10e-6 0.82366,0.051 1.15896,0.15307 0.34986,0.10205 0.69245,0.23326 1.02775,0.3936 l 0,-4.70141 1.96803,0 0,15.30693 -1.64003,0 -0.10933,-0.65601 -0.10934,0 m -0.10933,-8.74682 c -0.16037,-0.11661 -0.38633,-0.21866 -0.67788,-0.30614 -0.29157,-0.0875 -0.57584,-0.13119 -0.85281,-0.1312 -0.34988,10e-6 -0.6706,0.0656 -0.96215,0.1968 -0.27699,0.13121 -0.51753,0.36446 -0.72162,0.69975 -0.18951,0.32072 -0.34258,0.76535 -0.4592,1.33389 -0.10205,0.55397 -0.15308,1.26829 -0.15307,2.14297 -1e-5,0.87469 0.051,1.5963 0.15307,2.16484 0.11662,0.56854 0.26969,1.02046 0.4592,1.35575 0.20409,0.32072 0.44463,0.54668 0.72162,0.67788 0.29155,0.11663 0.61227,0.17494 0.96215,0.17494 0.27697,0 0.56124,-0.0437 0.85281,-0.1312 0.29155,-0.0875 0.51751,-0.18952 0.67788,-0.30614 l 0,-7.87214"
         style="font-size:21.86704636px;font-variant:normal;font-stretch:normal;fill:#4d4d4d;font-family:Cuprum;-inkscape-font-specification:Cuprum"
         id="path10198" />
      <path
         d="m 135.01444,859.28488 c 0,0.43735 0.12391,0.78722 0.37174,1.04962 0.2624,0.24783 0.58312,0.4665 0.96215,0.65601 0.37902,0.18952 0.78721,0.37175 1.22455,0.54668 0.45192,0.16036 0.86739,0.37174 1.24643,0.63414 0.37902,0.26241 0.69245,0.59771 0.94028,1.00589 0.2624,0.39361 0.3936,0.91842 0.39361,1.57442 -1e-5,0.59771 -0.0875,1.09336 -0.26241,1.48696 -0.16036,0.39361 -0.42277,0.70704 -0.78721,0.94029 -0.34988,0.23325 -0.8018,0.3936 -1.35576,0.48107 -0.55397,0.10205 -1.20998,0.15307 -1.96803,0.15307 -0.43735,0 -0.90384,-0.0437 -1.39949,-0.1312 -0.48108,-0.0875 -0.88927,-0.18952 -1.22456,-0.30614 l 0,-0.87468 2.18671,0 c 0.9913,0 1.71291,-0.12391 2.16483,-0.37174 0.45192,-0.2624 0.67788,-0.72161 0.67788,-1.37763 0,-0.43733 -0.13121,-0.77992 -0.39361,-1.02775 -0.24783,-0.2624 -0.56125,-0.48836 -0.94028,-0.67788 -0.37903,-0.1895 -0.7945,-0.36444 -1.24642,-0.5248 -0.43734,-0.17494 -0.84553,-0.39361 -1.22455,-0.65602 -0.37903,-0.26239 -0.69975,-0.5904 -0.96215,-0.98401 -0.24783,-0.40818 -0.37174,-0.94028 -0.37174,-1.5963 0,-1.09334 0.328,-1.83682 0.98401,-2.23044 0.65601,-0.40817 1.64003,-0.61226 2.95205,-0.61227 0.43734,10e-6 0.89655,0.0437 1.37763,0.1312 0.49564,0.0875 0.91112,0.18952 1.24642,0.30614 l 0,0.87468 -2.1867,0 c -0.77264,10e-6 -1.37034,0.11663 -1.7931,0.34987 -0.40819,0.23326 -0.61228,0.62687 -0.61228,1.18082"
         style="font-size:21.86704636px;font-variant:normal;font-stretch:normal;fill:#4d4d4d;font-family:Cuprum;-inkscape-font-specification:Cuprum"
         id="path10200" />
      <path
         d="m 153.48184,862.1276 c 0,-0.87468 -0.0583,-1.59629 -0.17493,-2.16484 -0.11663,-0.58311 -0.2697,-1.04232 -0.45921,-1.37762 -0.18952,-0.34987 -0.40819,-0.5904 -0.65601,-0.72162 -0.24783,-0.14577 -0.51024,-0.21866 -0.78722,-0.21867 -0.27698,10e-6 -0.53939,0.0729 -0.78721,0.21867 -0.24783,0.13122 -0.4665,0.37175 -0.65601,0.72162 -0.18952,0.3353 -0.34259,0.79451 -0.45921,1.37762 -0.11663,0.56855 -0.17494,1.29016 -0.17494,2.16484 0,0.87469 0.0583,1.60359 0.17494,2.1867 0.11662,0.56855 0.26969,1.02776 0.45921,1.37763 0.18951,0.33529 0.40818,0.57583 0.65601,0.72161 0.24782,0.1312 0.51023,0.1968 0.78721,0.1968 0.27698,0 0.53939,-0.0656 0.78722,-0.1968 0.24782,-0.14578 0.46649,-0.38632 0.65601,-0.72161 0.18951,-0.34987 0.34258,-0.80908 0.45921,-1.37763 0.11661,-0.58311 0.17493,-1.31201 0.17493,-2.1867 m 1.96804,0 c -1e-5,1.0642 -0.0875,1.96075 -0.26241,2.68965 -0.17494,0.7289 -0.43735,1.31931 -0.78721,1.77123 -0.3353,0.43734 -0.75807,0.75077 -1.26829,0.94028 -0.49566,0.18951 -1.07149,0.28427 -1.7275,0.28427 -0.65601,0 -1.23913,-0.0948 -1.74936,-0.28427 -0.49566,-0.18951 -0.91842,-0.50294 -1.26829,-0.94028 -0.33529,-0.45192 -0.59041,-1.04233 -0.76534,-1.77123 -0.17494,-0.7289 -0.26241,-1.62545 -0.26241,-2.68965 0,-1.06419 0.0875,-1.96074 0.26241,-2.68965 0.17493,-0.72889 0.43005,-1.31201 0.76534,-1.74936 0.34987,-0.45191 0.77263,-0.77263 1.26829,-0.96215 0.51023,-0.18951 1.09335,-0.28426 1.74936,-0.28427 0.65601,10e-6 1.23184,0.0948 1.7275,0.28427 0.51022,0.18952 0.93299,0.51024 1.26829,0.96215 0.34986,0.43735 0.61227,1.02047 0.78721,1.74936 0.17493,0.72891 0.2624,1.62546 0.26241,2.68965"
         style="font-size:21.86704636px;font-variant:normal;font-stretch:normal;fill:#4d4d4d;font-family:Cuprum;-inkscape-font-specification:Cuprum"
         id="path10202" />
      <path
         d="m 158.20376,856.00483 c 0,-0.75805 0.0729,-1.37762 0.21867,-1.8587 0.16036,-0.49564 0.37903,-0.87467 0.65601,-1.13709 0.27698,-0.27697 0.5977,-0.46648 0.96215,-0.56854 0.37903,-0.10203 0.78721,-0.15306 1.22456,-0.15307 0.16035,10e-6 0.34987,0.0146 0.56854,0.0437 0.21867,0.0146 0.43734,0.0438 0.65601,0.0875 0.23325,0.0438 0.45192,0.0948 0.65602,0.15307 0.21866,0.0438 0.3936,0.0948 0.5248,0.15307 l 0,0.87468 -1.96803,0 c -0.16036,10e-6 -0.3353,0.0365 -0.52481,0.10934 -0.17494,0.0583 -0.34259,0.17495 -0.50294,0.34987 -0.14579,0.17495 -0.2697,0.42277 -0.37174,0.74348 -0.0875,0.30615 -0.13121,0.70704 -0.1312,1.20269 l 0,0.87468 3.06138,0 0,0.98401 c -0.3353,0.11664 -0.75077,0.21868 -1.24642,0.30614 -0.48108,0.0875 -0.94029,0.13121 -1.37762,0.13121 l -0.43734,0 0,9.29349 -1.96804,0 0,-9.29349 -1.31202,0 0,-1.42136 1.31202,0 0,-0.87468"
         style="font-size:21.86704636px;font-variant:normal;font-stretch:normal;fill:#4d4d4d;font-family:Cuprum;-inkscape-font-specification:Cuprum"
         id="path10204" />
      <path
         d="m 171.65883,859.28488 c -1e-5,0.43735 0.12391,0.78722 0.37174,1.04962 0.2624,0.24783 0.58311,0.4665 0.96215,0.65601 0.37902,0.18952 0.7872,0.37175 1.22455,0.54668 0.45191,0.16036 0.86739,0.37174 1.24642,0.63414 0.37902,0.26241 0.69245,0.59771 0.94029,1.00589 0.26239,0.39361 0.39359,0.91842 0.3936,1.57442 -1e-5,0.59771 -0.0875,1.09336 -0.2624,1.48696 -0.16037,0.39361 -0.42277,0.70704 -0.78722,0.94029 -0.34988,0.23325 -0.80179,0.3936 -1.35575,0.48107 -0.55397,0.10205 -1.20998,0.15307 -1.96804,0.15307 -0.43734,0 -0.90384,-0.0437 -1.39949,-0.1312 -0.48107,-0.0875 -0.88926,-0.18952 -1.22455,-0.30614 l 0,-0.87468 2.1867,0 c 0.9913,0 1.71292,-0.12391 2.16484,-0.37174 0.45191,-0.2624 0.67787,-0.72161 0.67788,-1.37763 -1e-5,-0.43733 -0.13121,-0.77992 -0.39361,-1.02775 -0.24783,-0.2624 -0.56126,-0.48836 -0.94028,-0.67788 -0.37903,-0.1895 -0.79451,-0.36444 -1.24642,-0.5248 -0.43735,-0.17494 -0.84553,-0.39361 -1.22456,-0.65602 -0.37903,-0.26239 -0.69974,-0.5904 -0.96215,-0.98401 -0.24783,-0.40818 -0.37174,-0.94028 -0.37174,-1.5963 0,-1.09334 0.32801,-1.83682 0.98402,-2.23044 0.65601,-0.40817 1.64002,-0.61226 2.95205,-0.61227 0.43734,10e-6 0.89654,0.0437 1.37762,0.1312 0.49565,0.0875 0.91112,0.18952 1.24643,0.30614 l 0,0.87468 -2.18671,0 c -0.77264,10e-6 -1.37034,0.11663 -1.7931,0.34987 -0.40818,0.23326 -0.61228,0.62687 -0.61227,1.18082"
         style="font-size:21.86704636px;font-variant:normal;font-stretch:normal;fill:#4d4d4d;font-family:Cuprum;-inkscape-font-specification:Cuprum"
         id="path10206" />
      <path
         d="m 181.27008,858.30087 0,5.79476 c 0,0.49566 0.0437,0.90384 0.1312,1.22456 0.10204,0.30614 0.22596,0.54668 0.37174,0.72161 0.16035,0.17494 0.328,0.29885 0.50294,0.37174 0.18951,0.0583 0.36445,0.0875 0.52481,0.0875 l 1.96804,0 0,0.87468 c -0.13121,0.0583 -0.30615,0.11662 -0.52481,0.17494 -0.2041,0.0437 -0.42277,0.0875 -0.65601,0.1312 -0.21868,0.0437 -0.43735,0.0729 -0.65602,0.0875 -0.21867,0.0291 -0.40819,0.0437 -0.56854,0.0437 -0.43734,0 -0.84553,-0.051 -1.22455,-0.15307 -0.36446,-0.10204 -0.68517,-0.28427 -0.96215,-0.54667 -0.27699,-0.27699 -0.49566,-0.65601 -0.65601,-1.13709 -0.14579,-0.48107 -0.21868,-1.10793 -0.21868,-1.88057 l 0,-5.79476 -1.31202,0 0,-1.42136 1.31202,0 0,-2.62405 1.96804,0 0,2.62405 3.06139,0 0,0.98401 c -0.33531,0.11664 -0.75078,0.21868 -1.24643,0.30614 -0.48108,0.0875 -0.94028,0.13121 -1.37762,0.13121 l -0.43734,0"
         style="font-size:21.86704636px;font-variant:normal;font-stretch:normal;fill:#4d4d4d;font-family:Cuprum;-inkscape-font-specification:Cuprum"
         id="path10208" />
      <path
         d="m 188.50158,867.59436 -1.96803,0 0,-10.93352 1.66189,0 0.10934,0.87468 0.10933,0 c 0.26241,-0.21866 0.61228,-0.41546 1.04962,-0.59041 0.45192,-0.1895 1.00588,-0.28426 1.6619,-0.28427 l 1.09335,0 0,1.64003 -2.1867,0 c -0.27699,0 -0.54668,0.0364 -0.80909,0.10933 -0.2624,0.0583 -0.50294,0.16766 -0.72161,0.32801 l 0,8.85615"
         style="font-size:21.86704636px;font-variant:normal;font-stretch:normal;fill:#4d4d4d;font-family:Cuprum;-inkscape-font-specification:Cuprum"
         id="path10210" />
      <path
         d="m 199.4556,856.66084 1.96803,0 0,10.93352 -1.64002,0 -0.10934,-0.65601 -0.10933,0 c -0.27699,0.27698 -0.61958,0.49565 -1.02776,0.65601 -0.40819,0.14578 -0.83095,0.21867 -1.26828,0.21867 -0.52482,0 -0.9986,-0.051 -1.42136,-0.15307 -0.40819,-0.0875 -0.75806,-0.25511 -1.04962,-0.50294 -0.29156,-0.24783 -0.51752,-0.58312 -0.67788,-1.00588 -0.16036,-0.42277 -0.24054,-0.96215 -0.24054,-1.61817 l 0,-7.87213 1.96804,0 0,7.87213 c -1e-5,0.37904 0.051,0.69975 0.15307,0.96215 0.10204,0.24783 0.24782,0.45192 0.43734,0.61228 0.18951,0.14578 0.40818,0.24783 0.65601,0.30614 0.24782,0.0583 0.5248,0.0875 0.83095,0.0875 0.27697,0 0.56124,-0.0437 0.85281,-0.1312 0.29156,-0.0875 0.51751,-0.18952 0.67788,-0.30614 l 0,-9.40283"
         style="font-size:21.86704636px;font-variant:normal;font-stretch:normal;fill:#4d4d4d;font-family:Cuprum;-inkscape-font-specification:Cuprum"
         id="path10212" />
      <path
         d="m 208.30322,857.75419 c -0.40819,10e-6 -0.77264,0.0656 -1.09335,0.1968 -0.30615,0.13121 -0.56855,0.36446 -0.78722,0.69975 -0.20409,0.32072 -0.36445,0.76535 -0.48107,1.33389 -0.10205,0.55397 -0.15308,1.26829 -0.15307,2.14297 -1e-5,0.87469 0.051,1.5963 0.15307,2.16484 0.11662,0.56854 0.28427,1.02046 0.50294,1.35575 0.23324,0.32072 0.51751,0.54668 0.85281,0.67788 0.34987,0.11663 0.75806,0.17494 1.22456,0.17494 l 2.1867,0 0,0.87468 c -0.3353,0.11662 -0.75077,0.21867 -1.24642,0.30614 -0.48108,0.0875 -0.94029,0.1312 -1.37762,0.1312 -0.74349,0 -1.38492,-0.0875 -1.9243,-0.2624 -0.52481,-0.18952 -0.96216,-0.50295 -1.31203,-0.94029 -0.34987,-0.43734 -0.61227,-1.02046 -0.78721,-1.74936 -0.16036,-0.7289 -0.24054,-1.64002 -0.24054,-2.73338 0,-1.09335 0.0802,-2.00447 0.24054,-2.73338 0.17494,-0.72889 0.43005,-1.31202 0.76535,-1.74937 0.33529,-0.43733 0.75076,-0.74346 1.24642,-0.91841 0.51023,-0.18951 1.10793,-0.28426 1.7931,-0.28427 0.43733,10e-6 0.89654,0.0437 1.37762,0.1312 0.49565,0.0875 0.91112,0.18952 1.24642,0.30614 l 0,0.87468 -2.1867,0"
         style="font-size:21.86704636px;font-variant:normal;font-stretch:normal;fill:#4d4d4d;font-family:Cuprum;-inkscape-font-specification:Cuprum"
         id="path10214" />
      <path
         d="m 214.754,858.30087 0,5.79476 c -1e-5,0.49566 0.0437,0.90384 0.1312,1.22456 0.10204,0.30614 0.22595,0.54668 0.37174,0.72161 0.16035,0.17494 0.328,0.29885 0.50294,0.37174 0.18951,0.0583 0.36445,0.0875 0.52481,0.0875 l 1.96803,0 0,0.87468 c -0.13121,0.0583 -0.30614,0.11662 -0.52481,0.17494 -0.20409,0.0437 -0.42276,0.0875 -0.65601,0.1312 -0.21867,0.0437 -0.43734,0.0729 -0.65601,0.0875 -0.21867,0.0291 -0.40819,0.0437 -0.56854,0.0437 -0.43735,0 -0.84553,-0.051 -1.22456,-0.15307 -0.36445,-0.10204 -0.68517,-0.28427 -0.96215,-0.54667 -0.27698,-0.27699 -0.49565,-0.65601 -0.65601,-1.13709 -0.14578,-0.48107 -0.21867,-1.10793 -0.21867,-1.88057 l 0,-5.79476 -1.31202,0 0,-1.42136 1.31202,0 0,-2.62405 1.96804,0 0,2.62405 3.06138,0 0,0.98401 c -0.3353,0.11664 -0.75077,0.21868 -1.24642,0.30614 -0.48108,0.0875 -0.94029,0.13121 -1.37762,0.13121 l -0.43734,0"
         style="font-size:21.86704636px;font-variant:normal;font-stretch:normal;fill:#4d4d4d;font-family:Cuprum;-inkscape-font-specification:Cuprum"
         id="path10216" />
    </g>
    <path
       inkscape:connector-curvature="0"
       id="path15885"
       d="m 74.115657,917.5503 0,-42.58822 150.383973,0"
       style="fill:none;stroke:#919191;stroke-width:0.91112691;stroke-linecap:butt;stroke-linejoin:miter;stroke-miterlimit:4;stroke-opacity:1;stroke-dasharray:0.91112694, 0.91112694;stroke-dashoffset:0"
       sodipodi:nodetypes="ccc" />
    <path
       sodipodi:nodetypes="cccc"
       inkscape:connector-curvature="0"
       id="path15893"
       d="m 132.40424,949.4369 0,13.40501 -37.095933,0 0,-13.40501"
       style="fill:none;stroke:#f3574b;stroke-width:1.82225382;stroke-opacity:1;display:inline" />
    <text
       xml:space="preserve"
       style="font-size:49.34280777px;font-style:normal;font-weight:normal;line-height:125%;letter-spacing:0px;word-spacing:0px;fill:#f39c4b;fill-opacity:1;stroke:none;font-family:Sans"
       x="406.35065"
       y="954.11127"
       id="text15911"
       sodipodi:linespacing="125%"
       inkscape:export-filename="/home/fantom/Desktop/text19881.png"
       inkscape:export-xdpi="90"
       inkscape:export-ydpi="90"><tspan
         sodipodi:role="line"
         id="tspan15913"
         x="406.35065"
         y="954.11127"
         style="font-size:35.4254837px;font-style:normal;font-variant:normal;font-weight:normal;font-stretch:normal;fill:#f39c4b;fill-opacity:1;font-family:Cuprum;-inkscape-font-specification:Cuprum">...</tspan></text>
    <path
       sodipodi:nodetypes="ccc"
       style="fill:none;stroke:#919191;stroke-width:0.91112691;stroke-linecap:butt;stroke-linejoin:miter;stroke-miterlimit:4;stroke-opacity:1;stroke-dasharray:0.91112694, 0.91112694;stroke-dashoffset:0"
       d="m 113.51162,970.60968 0,85.33152 152.61961,0"
       id="path15921"
       inkscape:connector-curvature="0" />
    <g
       style="font-size:30.45777893px;font-style:normal;font-weight:normal;line-height:125%;letter-spacing:0px;word-spacing:0px;fill:#4d4d4d;fill-opacity:1;stroke:none;font-family:Sans"
       id="text15923">
      <path
         d="m 125.96801,1027.9771 8.96549,0 0,1.5307 -3.49873,0 0,13.7763 -1.96804,0 0,-13.7763 -3.49872,0 0,-1.5307"
         style="font-size:21.86704636px;font-variant:normal;font-stretch:normal;fill:#4d4d4d;font-family:Cuprum;-inkscape-font-specification:Cuprum"
         id="path10159" />
      <path
         d="m 139.1019,1043.5027 c -0.52481,0 -0.9986,-0.051 -1.42136,-0.153 -0.40818,-0.088 -0.75806,-0.2552 -1.04961,-0.503 -0.29157,-0.2478 -0.51753,-0.5831 -0.67788,-1.0059 -0.16036,-0.4227 -0.24054,-0.9621 -0.24054,-1.6181 l 0,-7.8722 1.96803,0 0,7.8722 c 0,0.379 0.051,0.6997 0.15307,0.9621 0.10205,0.2478 0.24783,0.4519 0.43734,0.6123 0.18951,0.1458 0.40818,0.2478 0.65601,0.3061 0.24783,0.058 0.52481,0.088 0.83095,0.088 0.27698,0 0.56125,-0.044 0.85282,-0.1312 0.29155,-0.088 0.51751,-0.1895 0.67788,-0.3061 l 0,-9.4029 1.96803,0 0,10.0589 c -1e-5,1.035 -0.0875,1.9024 -0.2624,2.6022 -0.16037,0.6997 -0.42278,1.261 -0.78722,1.6837 -0.34988,0.4228 -0.8018,0.7216 -1.35576,0.8966 -0.55397,0.1895 -1.20998,0.2842 -1.96803,0.2842 -0.43734,0 -0.90384,-0.044 -1.39949,-0.1312 -0.48108,-0.087 -0.88926,-0.1895 -1.22455,-0.3061 l 0,-0.8747 2.1867,0 c 0.49565,0 0.91841,-0.058 1.26829,-0.1749 0.36444,-0.1166 0.66329,-0.3207 0.89655,-0.6123 0.23324,-0.277 0.40089,-0.6487 0.50294,-1.1152 0.11662,-0.4519 0.17493,-1.0205 0.17494,-1.7056 -0.33531,0.1603 -0.67789,0.2915 -1.02776,0.3936 -0.3353,0.102 -0.72161,0.153 -1.15895,0.153"
         style="font-size:21.86704636px;font-variant:normal;font-stretch:normal;fill:#4d4d4d;font-family:Cuprum;-inkscape-font-specification:Cuprum"
         id="path10161" />
      <path
         d="m 147.94951,1033.0065 c 0.27698,-0.2769 0.61957,-0.4883 1.02775,-0.6341 0.40818,-0.1603 0.83095,-0.2405 1.26829,-0.2405 0.56854,0 1.07877,0.095 1.5307,0.2842 0.45191,0.175 0.83094,0.4811 1.13708,0.9185 0.30613,0.4373 0.53938,1.0204 0.69975,1.7493 0.16035,0.7289 0.24053,1.6401 0.24054,2.7334 -1e-5,1.0934 -0.0802,2.0045 -0.24054,2.7334 -0.16037,0.7289 -0.39362,1.312 -0.69975,1.7493 -0.30614,0.4374 -0.68517,0.7508 -1.13708,0.9403 -0.45193,0.175 -0.96216,0.2624 -1.5307,0.2624 -0.43734,0 -0.83095,-0.051 -1.18082,-0.153 -0.3353,-0.1021 -0.67059,-0.2333 -1.00588,-0.3936 l 0,4.7014 -1.96804,0 0,-15.307 1.64003,0 0.10934,0.656 0.10933,0 m 0.10934,8.7469 c 0.16035,0.1166 0.38631,0.2186 0.67788,0.3061 0.29155,0.087 0.57582,0.1312 0.85281,0.1312 0.34987,0 0.6633,-0.058 0.94028,-0.1749 0.29156,-0.1312 0.5321,-0.3572 0.72162,-0.6779 0.20408,-0.3353 0.35715,-0.7872 0.45921,-1.3558 0.11661,-0.5685 0.17492,-1.2901 0.17493,-2.1648 -1e-5,-0.8747 -0.0583,-1.589 -0.17493,-2.143 -0.10206,-0.5685 -0.25513,-1.0131 -0.45921,-1.3339 -0.18952,-0.3352 -0.43006,-0.5685 -0.72162,-0.6997 -0.27698,-0.1312 -0.59041,-0.1968 -0.94028,-0.1968 -0.27699,0 -0.56126,0.044 -0.85281,0.1312 -0.29157,0.088 -0.51753,0.1895 -0.67788,0.3061 l 0,7.8722"
         style="font-size:21.86704636px;font-variant:normal;font-stretch:normal;fill:#4d4d4d;font-family:Cuprum;-inkscape-font-specification:Cuprum"
         id="path10163" />
      <path
         d="m 163.4717,1038.4733 -5.68543,0 c 0,0.7143 0.0583,1.312 0.17493,1.7931 0.11663,0.4665 0.29156,0.8455 0.52481,1.1371 0.24783,0.277 0.56125,0.4811 0.94029,0.6123 0.3936,0.1166 0.86738,0.1749 1.42135,0.1749 l 2.18671,0 0,0.8747 c -0.3353,0.1166 -0.75078,0.2187 -1.24642,0.3061 -0.48108,0.088 -0.94029,0.1312 -1.37763,0.1312 -0.81637,0 -1.51612,-0.087 -2.09923,-0.2624 -0.58313,-0.1895 -1.0642,-0.5029 -1.44323,-0.9403 -0.36445,-0.4373 -0.63414,-1.0204 -0.80908,-1.7493 -0.16036,-0.7289 -0.24054,-1.64 -0.24054,-2.7334 0,-1.0933 0.0802,-2.0045 0.24054,-2.7334 0.16036,-0.7289 0.4009,-1.312 0.72161,-1.7493 0.32072,-0.4374 0.72161,-0.7435 1.20269,-0.9185 0.48107,-0.1895 1.03504,-0.2842 1.6619,-0.2842 0.62685,0 1.18081,0.095 1.66189,0.2842 0.48107,0.175 0.88197,0.4811 1.20269,0.9185 0.32071,0.4373 0.56125,1.0204 0.72161,1.7493 0.16035,0.7289 0.24053,1.6401 0.24054,2.7334 l 0,0.656 m -1.96803,-1.312 c -1e-5,-0.7435 -0.051,-1.3558 -0.15307,-1.8368 -0.10206,-0.4957 -0.24055,-0.8893 -0.41548,-1.1809 -0.16036,-0.2915 -0.35716,-0.4956 -0.59041,-0.6122 -0.21867,-0.1312 -0.45192,-0.1968 -0.69974,-0.1968 -0.24783,0 -0.48837,0.066 -0.72162,0.1968 -0.21867,0.1166 -0.41547,0.3207 -0.59041,0.6122 -0.16036,0.2916 -0.29156,0.6852 -0.3936,1.1809 -0.10205,0.481 -0.15307,1.0933 -0.15307,1.8368 l 3.7174,0"
         style="font-size:21.86704636px;font-variant:normal;font-stretch:normal;fill:#4d4d4d;font-family:Cuprum;-inkscape-font-specification:Cuprum"
         id="path10165" />
      <path
         d="m 173.40925,1027.9771 0,15.307 -1.96804,0 0,-15.307 1.96804,0"
         style="font-size:21.86704636px;font-variant:normal;font-stretch:normal;fill:#4d4d4d;font-family:Cuprum;-inkscape-font-specification:Cuprum"
         id="path10167" />
      <path
         d="m 185.2277,1035.6306 c -1e-5,1.5307 -0.10934,2.8063 -0.328,3.8267 -0.21868,1.0059 -0.54669,1.8077 -0.98402,2.4054 -0.43735,0.5977 -0.98402,1.0205 -1.64003,1.2683 -0.65602,0.2478 -1.42136,0.3717 -2.29604,0.3717 -0.65601,0 -1.26829,-0.036 -1.83683,-0.1093 -0.55397,-0.058 -1.10793,-0.1677 -1.6619,-0.328 l 0,-14.8696 c 0.55397,-0.1603 1.10793,-0.2697 1.6619,-0.328 0.56854,-0.073 1.18082,-0.1093 1.83683,-0.1093 0.87468,0 1.64002,0.1239 2.29604,0.3717 0.65601,0.2478 1.20268,0.6706 1.64003,1.2683 0.43733,0.5977 0.76534,1.4068 0.98402,2.4272 0.21866,1.0059 0.32799,2.2742 0.328,3.8049 m -1.96803,0 c -1e-5,-1.2829 -0.0802,-2.3398 -0.24054,-3.1707 -0.16036,-0.831 -0.38632,-1.487 -0.67788,-1.9681 -0.27699,-0.4956 -0.61957,-0.8382 -1.02775,-1.0277 -0.39361,-0.1895 -0.83824,-0.2843 -1.33389,-0.2843 l -1.53069,0 0,12.9016 1.53069,0 c 0.49565,0 0.94028,-0.095 1.33389,-0.2843 0.40818,-0.1895 0.75076,-0.5248 1.02775,-1.0059 0.29156,-0.4956 0.51752,-1.1589 0.67788,-1.9899 0.16035,-0.8309 0.24053,-1.8878 0.24054,-3.1707"
         style="font-size:21.86704636px;font-variant:normal;font-stretch:normal;fill:#4d4d4d;font-family:Cuprum;-inkscape-font-specification:Cuprum"
         id="path10169" />
      <path
         d="m 198.88436,1037.8173 c -10e-6,-0.8747 -0.0583,-1.5963 -0.17494,-2.1648 -0.11663,-0.5832 -0.2697,-1.0424 -0.45921,-1.3777 -0.18952,-0.3498 -0.40819,-0.5904 -0.65601,-0.7216 -0.24783,-0.1457 -0.51024,-0.2186 -0.78721,-0.2186 -0.27699,0 -0.5394,0.073 -0.78722,0.2186 -0.24783,0.1312 -0.4665,0.3718 -0.65601,0.7216 -0.18952,0.3353 -0.34259,0.7945 -0.45921,1.3777 -0.11662,0.5685 -0.17494,1.2901 -0.17493,2.1648 -1e-5,0.8747 0.0583,1.6036 0.17493,2.1867 0.11662,0.5685 0.26969,1.0278 0.45921,1.3776 0.18951,0.3353 0.40818,0.5759 0.65601,0.7216 0.24782,0.1312 0.51023,0.1968 0.78722,0.1968 0.27697,0 0.53938,-0.066 0.78721,-0.1968 0.24782,-0.1457 0.46649,-0.3863 0.65601,-0.7216 0.18951,-0.3498 0.34258,-0.8091 0.45921,-1.3776 0.11662,-0.5831 0.17493,-1.312 0.17494,-2.1867 m 1.96803,0 c -1e-5,1.0642 -0.0875,1.9607 -0.26241,2.6896 -0.17494,0.7289 -0.43734,1.3194 -0.78721,1.7713 -0.3353,0.4373 -0.75806,0.7507 -1.26829,0.9403 -0.49566,0.1895 -1.07149,0.2842 -1.72749,0.2842 -0.65602,0 -1.23914,-0.095 -1.74937,-0.2842 -0.49565,-0.1896 -0.91842,-0.503 -1.26829,-0.9403 -0.33529,-0.4519 -0.59041,-1.0424 -0.76534,-1.7713 -0.17494,-0.7289 -0.26241,-1.6254 -0.26241,-2.6896 0,-1.0642 0.0875,-1.9607 0.26241,-2.6897 0.17493,-0.7288 0.43005,-1.312 0.76534,-1.7493 0.34987,-0.4519 0.77264,-0.7726 1.26829,-0.9622 0.51023,-0.1895 1.09335,-0.2842 1.74937,-0.2842 0.656,0 1.23183,0.095 1.72749,0.2842 0.51023,0.1896 0.93299,0.5103 1.26829,0.9622 0.34987,0.4373 0.61227,1.0205 0.78721,1.7493 0.17493,0.729 0.2624,1.6255 0.26241,2.6897"
         style="font-size:21.86704636px;font-variant:normal;font-stretch:normal;fill:#4d4d4d;font-family:Cuprum;-inkscape-font-specification:Cuprum"
         id="path10171" />
      <path
         d="m 203.60627,1031.6945 c 0,-0.758 0.0729,-1.3776 0.21867,-1.8587 0.16036,-0.4956 0.37903,-0.8746 0.65602,-1.1371 0.27698,-0.2769 0.59769,-0.4664 0.96215,-0.5685 0.37902,-0.102 0.78721,-0.1531 1.22455,-0.1531 0.16035,0 0.34987,0.015 0.56854,0.044 0.21867,0.015 0.43734,0.044 0.65602,0.087 0.23324,0.044 0.45191,0.095 0.65601,0.1531 0.21866,0.044 0.3936,0.095 0.52481,0.1531 l 0,0.8746 -1.96804,0 c -0.16036,10e-5 -0.3353,0.036 -0.52481,0.1094 -0.17494,0.058 -0.34259,0.1749 -0.50294,0.3499 -0.14578,0.1749 -0.2697,0.4227 -0.37174,0.7434 -0.0875,0.3062 -0.13121,0.7071 -0.1312,1.2027 l 0,0.8747 3.06139,0 0,0.984 c -0.33531,0.1167 -0.75078,0.2187 -1.24643,0.3062 -0.48108,0.087 -0.94028,0.1312 -1.37762,0.1312 l -0.43734,0 0,9.2935 -1.96804,0 0,-9.2935 -1.31202,0 0,-1.4214 1.31202,0 0,-0.8747"
         style="font-size:21.86704636px;font-variant:normal;font-stretch:normal;fill:#4d4d4d;font-family:Cuprum;-inkscape-font-specification:Cuprum"
         id="path10173" />
      <path
         d="m 217.82668,1043.2841 -1.96803,0 0,-15.307 7.4348,0 0,1.5307 -5.46677,0 0,5.3574 4.59208,0 0,1.5307 -4.59208,0 0,6.8882"
         style="font-size:21.86704636px;font-variant:normal;font-stretch:normal;fill:#4d4d4d;font-family:Cuprum;-inkscape-font-specification:Cuprum"
         id="path10175" />
      <path
         d="m 227.22268,1043.2841 -1.96803,0 0,-10.9336 1.96803,0 0,10.9336 m 0,-14.8696 0,2.4053 -1.96803,0 0,-2.4053 1.96803,0"
         style="font-size:21.86704636px;font-variant:normal;font-stretch:normal;fill:#4d4d4d;font-family:Cuprum;-inkscape-font-specification:Cuprum"
         id="path10177" />
      <path
         d="m 237.40111,1038.4733 -5.68543,0 c -1e-5,0.7143 0.0583,1.312 0.17493,1.7931 0.11662,0.4665 0.29156,0.8455 0.52481,1.1371 0.24783,0.277 0.56125,0.4811 0.94029,0.6123 0.3936,0.1166 0.86738,0.1749 1.42135,0.1749 l 2.18671,0 0,0.8747 c -0.3353,0.1166 -0.75078,0.2187 -1.24642,0.3061 -0.48108,0.088 -0.94029,0.1312 -1.37763,0.1312 -0.81637,0 -1.51612,-0.087 -2.09923,-0.2624 -0.58313,-0.1895 -1.0642,-0.5029 -1.44323,-0.9403 -0.36445,-0.4373 -0.63414,-1.0204 -0.80908,-1.7493 -0.16036,-0.7289 -0.24054,-1.64 -0.24054,-2.7334 0,-1.0933 0.0802,-2.0045 0.24054,-2.7334 0.16036,-0.7289 0.40089,-1.312 0.72161,-1.7493 0.32072,-0.4374 0.72161,-0.7435 1.20269,-0.9185 0.48107,-0.1895 1.03504,-0.2842 1.6619,-0.2842 0.62685,0 1.18081,0.095 1.66189,0.2842 0.48107,0.175 0.88197,0.4811 1.20269,0.9185 0.32071,0.4373 0.56125,1.0204 0.72161,1.7493 0.16035,0.7289 0.24053,1.6401 0.24054,2.7334 l 0,0.656 m -1.96803,-1.312 c -1e-5,-0.7435 -0.051,-1.3558 -0.15307,-1.8368 -0.10206,-0.4957 -0.24055,-0.8893 -0.41548,-1.1809 -0.16036,-0.2915 -0.35717,-0.4956 -0.59041,-0.6122 -0.21867,-0.1312 -0.45192,-0.1968 -0.69974,-0.1968 -0.24783,0 -0.48837,0.066 -0.72162,0.1968 -0.21867,0.1166 -0.41547,0.3207 -0.59041,0.6122 -0.16036,0.2916 -0.29156,0.6852 -0.3936,1.1809 -0.10205,0.481 -0.15308,1.0933 -0.15307,1.8368 l 3.7174,0"
         style="font-size:21.86704636px;font-variant:normal;font-stretch:normal;fill:#4d4d4d;font-family:Cuprum;-inkscape-font-specification:Cuprum"
         id="path10179" />
      <path
         d="m 239.90386,1027.9771 1.96804,0 0,15.307 -1.96804,0 0,-15.307"
         style="font-size:21.86704636px;font-variant:normal;font-stretch:normal;fill:#4d4d4d;font-family:Cuprum;-inkscape-font-specification:Cuprum"
         id="path10181" />
      <path
         d="m 250.30095,1042.628 c -0.27699,0.277 -0.61957,0.4957 -1.02775,0.6561 -0.40819,0.1457 -0.83095,0.2186 -1.26829,0.2186 -0.56854,0 -1.07877,-0.087 -1.53069,-0.2624 -0.45192,-0.1895 -0.83095,-0.5029 -1.13709,-0.9403 -0.30614,-0.4373 -0.53938,-1.0204 -0.69974,-1.7493 -0.16036,-0.7289 -0.24054,-1.64 -0.24054,-2.7334 0,-1.0933 0.0802,-2.0045 0.24054,-2.7334 0.16036,-0.7289 0.3936,-1.312 0.69974,-1.7493 0.30614,-0.4374 0.68517,-0.7435 1.13709,-0.9185 0.45192,-0.1895 0.96215,-0.2842 1.53069,-0.2842 0.43734,0 0.82366,0.051 1.15896,0.153 0.34986,0.1021 0.69245,0.2333 1.02775,0.3936 l 0,-4.7014 1.96803,0 0,15.307 -1.64003,0 -0.10933,-0.6561 -0.10934,0 m -0.10933,-8.7468 c -0.16037,-0.1166 -0.38633,-0.2186 -0.67788,-0.3061 -0.29157,-0.088 -0.57584,-0.1312 -0.85281,-0.1312 -0.34988,0 -0.6706,0.066 -0.96215,0.1968 -0.27699,0.1312 -0.51753,0.3645 -0.72162,0.6997 -0.18952,0.3208 -0.34258,0.7654 -0.45921,1.3339 -0.10204,0.554 -0.15307,1.2683 -0.15306,2.143 -1e-5,0.8747 0.051,1.5963 0.15306,2.1648 0.11663,0.5686 0.26969,1.0205 0.45921,1.3558 0.20409,0.3207 0.44463,0.5467 0.72162,0.6779 0.29155,0.1166 0.61227,0.1749 0.96215,0.1749 0.27697,0 0.56124,-0.044 0.85281,-0.1312 0.29155,-0.088 0.51751,-0.1895 0.67788,-0.3061 l 0,-7.8722"
         style="font-size:21.86704636px;font-variant:normal;font-stretch:normal;fill:#4d4d4d;font-family:Cuprum;-inkscape-font-specification:Cuprum"
         id="path10183" />
      <path
         d="m 263.76457,1027.9771 0,15.307 -1.96803,0 0,-13.7763 -2.40538,0 0,-1.0933 c 0.3353,-0.1166 0.80179,-0.2187 1.39949,-0.3062 0.5977,-0.087 1.22456,-0.1312 1.88057,-0.1312 l 1.09335,0"
         style="font-size:21.86704636px;font-variant:normal;font-stretch:normal;fill:#4d4d4d;font-family:Cuprum;-inkscape-font-specification:Cuprum"
         id="path10185" />
    </g>
    <g
       style="font-size:49.34280777px;font-style:normal;font-weight:normal;line-height:125%;letter-spacing:0px;word-spacing:0px;fill:#4d4d4d;fill-opacity:1;stroke:none;font-family:Sans"
       id="text15225-5">
      <path
         d="m 156.27213,950.74591 0.14171,0 4.71159,-21.43242 3.18829,0 -5.66808,24.79784 -4.60531,0 -5.66808,-24.79784 3.1883,0 4.71158,21.43242"
         style="font-size:35.4254837px;font-variant:normal;font-stretch:normal;fill:#4d4d4d;font-family:Cuprum;-inkscape-font-specification:Cuprum"
         id="path10357" />
    </g>
    <g
       style="font-size:24.32942009px;font-style:normal;font-weight:normal;line-height:125%;letter-spacing:0px;word-spacing:0px;fill:#4d4d4d;fill-opacity:1;stroke:none;font-family:Sans"
       id="text15231-8">
      <path
         d="m 168.1942,947.09302 0,12.22705 -2.09607,0 0,-10.82968 -1.83406,0 0,-1.04803 c 0.26783,-0.0932 0.64629,-0.17466 1.13537,-0.24454 0.48908,-0.0699 1.04221,-0.10479 1.65939,-0.1048 l 1.13537,0"
         style="font-size:17.46721649px;font-variant:normal;font-weight:bold;font-stretch:normal;fill:#4d4d4d;font-family:Cuprum;-inkscape-font-specification:Cuprum"
         id="path10384" />
    </g>
    <g
       style="font-size:49.34280777px;font-style:normal;font-weight:normal;line-height:125%;letter-spacing:0px;word-spacing:0px;fill:#4d4d4d;fill-opacity:1;stroke:none;font-family:Sans"
       id="text15261-4">
      <path
         d="m 106.09673,929.31349 14.52445,0 0,2.47978 -5.66808,0 0,22.31806 -3.18829,0 0,-22.31806 -5.66808,0 0,-2.47978"
         style="font-size:35.4254837px;font-variant:normal;font-stretch:normal;fill:#4d4d4d;font-family:Cuprum;-inkscape-font-specification:Cuprum"
         id="path10354" />
    </g>
    <g
       style="font-size:24.32942009px;font-style:normal;font-weight:normal;line-height:125%;letter-spacing:0px;word-spacing:0px;fill:#4d4d4d;fill-opacity:1;stroke:none;font-family:Sans"
       id="text15265-1">
      <path
         d="m 125.26268,947.09302 0,12.22705 -2.09607,0 0,-10.82968 -1.83406,0 0,-1.04803 c 0.26784,-0.0932 0.64629,-0.17466 1.13537,-0.24454 0.48908,-0.0699 1.04221,-0.10479 1.65939,-0.1048 l 1.13537,0"
         style="font-size:17.46721649px;font-variant:normal;font-weight:bold;font-stretch:normal;fill:#4d4d4d;font-family:Cuprum;-inkscape-font-specification:Cuprum"
         id="path10381" />
    </g>
    <path
       style="fill:none;stroke:#f39c4b;stroke-width:1.82225382;stroke-opacity:1;display:inline"
       d="m 174.32563,949.4369 0,13.40501 -37.09599,0 0,-13.40501"
       id="path16002"
       inkscape:connector-curvature="0"
       sodipodi:nodetypes="cccc" />
    <path
       style="fill:none;stroke:#f3574b;stroke-width:1.82225382;stroke-opacity:1;display:inline"
       d="m 216.24693,949.4369 0,13.40501 -37.096,0 0,-13.40501"
       id="path16004"
       inkscape:connector-curvature="0"
       sodipodi:nodetypes="cccc" />
    <g
       style="font-size:49.34280777px;font-style:normal;font-weight:normal;line-height:125%;letter-spacing:0px;word-spacing:0px;fill:#4d4d4d;fill-opacity:1;stroke:none;font-family:Sans"
       id="text16008">
      <path
         d="m 240.11483,950.74591 0.1417,0 4.71159,-21.43242 3.1883,0 -5.66808,24.79784 -4.60531,0 -5.66808,-24.79784 3.18829,0 4.71159,21.43242"
         style="font-size:35.4254837px;font-variant:normal;font-stretch:normal;fill:#4d4d4d;font-family:Cuprum;-inkscape-font-specification:Cuprum"
         id="path10363" />
    </g>
    <g
       style="font-size:24.32942009px;font-style:normal;font-weight:normal;line-height:125%;letter-spacing:0px;word-spacing:0px;fill:#4d4d4d;fill-opacity:1;stroke:none;font-family:Sans"
       id="text16012">
      <path
         d="m 248.19411,957.74802 c 0.7802,-0.89665 1.44977,-1.67685 2.00873,-2.34061 0.57059,-0.67539 1.03638,-1.28674 1.39737,-1.83406 0.36099,-0.5473 0.623,-1.05384 0.78603,-1.51964 0.17467,-0.47743 0.262,-0.96651 0.26201,-1.46725 -1e-5,-0.83842 -0.16304,-1.43812 -0.48909,-1.79912 -0.32605,-0.37263 -0.77438,-0.55894 -1.34497,-0.55895 l -2.44541,0 0,-0.9607 c 0.26783,-0.0932 0.64628,-0.17466 1.13537,-0.24454 0.48908,-0.0699 1.04221,-0.10479 1.65938,-0.10481 2.38718,2e-5 3.58078,1.22272 3.58078,3.66812 0,0.54731 -0.11645,1.10626 -0.34934,1.67685 -0.2329,0.57061 -0.55314,1.15867 -0.9607,1.76419 -0.40757,0.60554 -0.88501,1.23436 -1.43231,1.88646 -0.53567,0.64047 -1.10626,1.31004 -1.71179,2.00873 l 4.36681,0 0,1.39738 -6.46287,0 0,-1.57205"
         style="font-size:17.46721649px;font-variant:normal;font-weight:bold;font-stretch:normal;fill:#4d4d4d;font-family:Cuprum;-inkscape-font-specification:Cuprum"
         id="path10390" />
    </g>
    <g
       style="font-size:49.34280777px;font-style:normal;font-weight:normal;line-height:125%;letter-spacing:0px;word-spacing:0px;fill:#4d4d4d;fill-opacity:1;stroke:none;font-family:Sans"
       id="text16018">
      <path
         d="m 189.9394,929.31349 14.52445,0 0,2.47978 -5.66808,0 0,22.31806 -3.18829,0 0,-22.31806 -5.66808,0 0,-2.47978"
         style="font-size:35.4254837px;font-variant:normal;font-stretch:normal;fill:#4d4d4d;font-family:Cuprum;-inkscape-font-specification:Cuprum"
         id="path10360" />
    </g>
    <g
       style="font-size:24.32942009px;font-style:normal;font-weight:normal;line-height:125%;letter-spacing:0px;word-spacing:0px;fill:#4d4d4d;fill-opacity:1;stroke:none;font-family:Sans"
       id="text16022">
      <path
         d="m 205.26256,957.74802 c 0.7802,-0.89665 1.44977,-1.67685 2.00873,-2.34061 0.57059,-0.67539 1.03638,-1.28674 1.39737,-1.83406 0.36099,-0.5473 0.623,-1.05384 0.78603,-1.51964 0.17467,-0.47743 0.262,-0.96651 0.26201,-1.46725 -1e-5,-0.83842 -0.16303,-1.43812 -0.48908,-1.79912 -0.32606,-0.37263 -0.77439,-0.55894 -1.34498,-0.55895 l -2.44541,0 0,-0.9607 c 0.26783,-0.0932 0.64629,-0.17466 1.13537,-0.24454 0.48908,-0.0699 1.04221,-0.10479 1.65938,-0.10481 2.38719,2e-5 3.58078,1.22272 3.58078,3.66812 0,0.54731 -0.11645,1.10626 -0.34934,1.67685 -0.2329,0.57061 -0.55314,1.15867 -0.9607,1.76419 -0.40757,0.60554 -0.88501,1.23436 -1.43231,1.88646 -0.53566,0.64047 -1.10626,1.31004 -1.71179,2.00873 l 4.36681,0 0,1.39738 -6.46287,0 0,-1.57205"
         style="font-size:17.46721649px;font-variant:normal;font-weight:bold;font-stretch:normal;fill:#4d4d4d;font-family:Cuprum;-inkscape-font-specification:Cuprum"
         id="path10387" />
    </g>
    <path
       sodipodi:nodetypes="cccc"
       inkscape:connector-curvature="0"
       id="path16026"
       d="m 258.16833,949.4369 0,13.40501 -37.096,0 0,-13.40501"
       style="fill:none;stroke:#f39c4b;stroke-width:1.82225382;stroke-opacity:1;display:inline" />
    <path
       sodipodi:nodetypes="cccc"
       inkscape:connector-curvature="0"
       id="path16028"
       d="m 299.58453,949.4369 0,13.40501 -37.096,0 0,-13.40501"
       style="fill:none;stroke:#f39c4b;stroke-width:1.82225382;stroke-opacity:1;display:inline" />
    <g
       style="font-size:49.34280777px;font-style:normal;font-weight:normal;line-height:125%;letter-spacing:0px;word-spacing:0px;fill:#f3574b;fill-opacity:1;stroke:none;font-family:Sans"
       id="text16042">
      <path
         d="m 273.27698,929.31349 14.52445,0 0,2.47978 -5.66807,0 0,22.31806 -3.1883,0 0,-22.31806 -5.66808,0 0,-2.47978"
         style="font-size:35.4254837px;font-variant:normal;font-stretch:normal;fill:#f3574b;font-family:Cuprum;-inkscape-font-specification:Cuprum"
         id="path10366" />
    </g>
    <g
       style="font-size:24.32942009px;font-style:normal;font-weight:normal;line-height:125%;letter-spacing:0px;word-spacing:0px;fill:#f3574b;fill-opacity:1;stroke:none;font-family:Sans"
       id="text16046">
      <path
         d="m 291.56957,946.91834 c 1.09461,2e-5 1.93303,0.28531 2.51528,0.8559 0.59388,0.5706 0.89082,1.36245 0.89083,2.37554 -1e-5,0.66376 -0.15721,1.21689 -0.47162,1.65939 -0.30277,0.43086 -0.69869,0.76856 -1.18777,1.01309 l 0,0.0699 c 0.30276,0.10481 0.57641,0.26202 0.82096,0.47162 0.25618,0.19797 0.47161,0.43668 0.64629,0.71615 0.17466,0.26784 0.30858,0.5706 0.40174,0.9083 0.0932,0.32606 0.13973,0.66376 0.13974,1.0131 -10e-6,1.14119 -0.31442,2.00873 -0.94323,2.60261 -0.62882,0.59389 -1.62445,0.89083 -2.98689,0.89083 -0.61718,0 -1.17031,-0.0349 -1.65939,-0.1048 -0.48908,-0.0699 -0.86754,-0.15139 -1.13537,-0.24454 l 0,-0.9607 2.44541,0 c 1.4556,0 2.1834,-0.7278 2.18341,-2.1834 -10e-6,-0.83843 -0.1805,-1.44395 -0.54149,-1.81659 -0.34935,-0.37263 -0.89665,-0.55895 -1.64192,-0.55895 l -1.39737,0 0,-1.37991 1.2227,0 c 1.33915,0 2.00873,-0.69869 2.00873,-2.09607 0,-0.61717 -0.16303,-1.08878 -0.48908,-1.41484 -0.32606,-0.33769 -0.77438,-0.50654 -1.34498,-0.50655 l -2.27073,0 0,-0.9607 c 0.26783,-0.0932 0.64628,-0.17466 1.13536,-0.24454 0.48908,-0.0699 1.04221,-0.10479 1.65939,-0.10481"
         style="font-size:17.46721649px;font-variant:normal;font-weight:bold;font-stretch:normal;fill:#f3574b;font-family:Cuprum;-inkscape-font-specification:Cuprum"
         id="path10393" />
    </g>
    <path
       style="fill:none;stroke:#f3574b;stroke-width:1.82225382;stroke-opacity:1;display:inline"
       d="m 341.00083,949.4369 0,13.40501 -37.096,0 0,-13.40501"
       id="path16052"
       inkscape:connector-curvature="0"
       sodipodi:nodetypes="cccc" />
    <g
       style="font-size:49.34280777px;font-style:normal;font-weight:normal;line-height:125%;letter-spacing:0px;word-spacing:0px;fill:#4d4d4d;fill-opacity:1;stroke:none;font-family:Sans"
       id="text16056">
      <path
         d="m 364.86865,950.74591 0.1417,0 4.71159,-21.43242 3.18829,0 -5.66808,24.79784 -4.60531,0 -5.66808,-24.79784 3.1883,0 4.71159,21.43242"
         style="font-size:35.4254837px;font-variant:normal;font-stretch:normal;fill:#4d4d4d;font-family:Cuprum;-inkscape-font-specification:Cuprum"
         id="path10372" />
    </g>
    <g
       style="font-size:24.32942009px;font-style:normal;font-weight:normal;line-height:125%;letter-spacing:0px;word-spacing:0px;fill:#4d4d4d;fill-opacity:1;stroke:none;font-family:Sans"
       id="text16060">
      <path
         d="m 373.12259,956.35064 0,-1.57205 4.36681,-7.68557 2.27074,0 0,7.86024 0.96069,0 0,1.39738 -0.96069,0 0,2.96943 -2.09607,0 0,-2.96943 -4.54148,0 m 4.54148,-1.39738 0,-4.71614 -0.0699,0 -2.55021,4.71614 2.62008,0"
         style="font-size:17.46721649px;font-variant:normal;font-weight:bold;font-stretch:normal;fill:#4d4d4d;font-family:Cuprum;-inkscape-font-specification:Cuprum"
         id="path10405" />
    </g>
    <g
       style="font-size:49.34280777px;font-style:normal;font-weight:normal;line-height:125%;letter-spacing:0px;word-spacing:0px;fill:#4d4d4d;fill-opacity:1;stroke:none;font-family:Sans"
       id="text16066">
      <path
         d="m 314.69318,929.31349 14.52445,0 0,2.47978 -5.66808,0 0,22.31806 -3.18829,0 0,-22.31806 -5.66808,0 0,-2.47978"
         style="font-size:35.4254837px;font-variant:normal;font-stretch:normal;fill:#4d4d4d;font-family:Cuprum;-inkscape-font-specification:Cuprum"
         id="path10369" />
    </g>
    <g
       style="font-size:24.32942009px;font-style:normal;font-weight:normal;line-height:125%;letter-spacing:0px;word-spacing:0px;fill:#4d4d4d;fill-opacity:1;stroke:none;font-family:Sans"
       id="text16070">
      <path
         d="m 330.19101,956.35064 0,-1.57205 4.36681,-7.68557 2.27074,0 0,7.86024 0.96069,0 0,1.39738 -0.96069,0 0,2.96943 -2.09607,0 0,-2.96943 -4.54148,0 m 4.54148,-1.39738 0,-4.71614 -0.0699,0 -2.55021,4.71614 2.62008,0"
         style="font-size:17.46721649px;font-variant:normal;font-weight:bold;font-stretch:normal;fill:#4d4d4d;font-family:Cuprum;-inkscape-font-specification:Cuprum"
         id="path10396" />
    </g>
    <path
       sodipodi:nodetypes="cccc"
       inkscape:connector-curvature="0"
       id="path16074"
       d="m 382.92224,949.4369 0,13.40501 -37.09601,0 0,-13.40501"
       style="fill:none;stroke:#f39c4b;stroke-width:1.82225382;stroke-opacity:1;display:inline" />
    <path
       sodipodi:nodetypes="cccc"
       inkscape:connector-curvature="0"
       id="path16076"
       d="m 482.92724,949.4369 0,13.40501 -37.096,0 0,-13.40501"
       style="fill:none;stroke:#f3574b;stroke-width:1.82225382;stroke-opacity:1;display:inline" />
    <g
       style="font-size:49.34280777px;font-style:normal;font-weight:normal;line-height:125%;letter-spacing:0px;word-spacing:0px;fill:#4d4d4d;fill-opacity:1;stroke:none;font-family:Sans"
       id="text16080">
      <path
         d="m 506.7951,950.74591 0.1417,0 4.71159,-21.43242 3.18829,0 -5.66807,24.79784 -4.60532,0 -5.66807,-24.79784 3.18829,0 4.71159,21.43242"
         style="font-size:35.4254837px;font-variant:normal;font-stretch:normal;fill:#4d4d4d;font-family:Cuprum;-inkscape-font-specification:Cuprum"
         id="path10375" />
    </g>
    <g
       style="font-size:24.32942009px;font-style:normal;font-weight:normal;line-height:125%;letter-spacing:0px;word-spacing:0px;fill:#4d4d4d;fill-opacity:1;stroke:none;font-family:Sans"
       id="text16084">
      <path
         d="m 516.92088,951.28515 -0.0873,0 0,8.03492 -2.00873,0 0,-12.22705 2.09606,0 3.31877,8.03492 0.0873,0 0,-8.03492 2.00873,0 0,12.22705 -2.09607,0 -3.31877,-8.03492"
         style="font-size:17.46721649px;font-variant:normal;font-weight:bold;font-stretch:normal;fill:#4d4d4d;font-family:Cuprum;-inkscape-font-specification:Cuprum"
         id="path10399" />
    </g>
    <g
       style="font-size:49.34280777px;font-style:normal;font-weight:normal;line-height:125%;letter-spacing:0px;word-spacing:0px;fill:#4d4d4d;fill-opacity:1;stroke:none;font-family:Sans"
       id="text16090">
      <path
         d="m 456.61967,929.31349 14.52444,0 0,2.47978 -5.66807,0 0,22.31806 -3.1883,0 0,-22.31806 -5.66807,0 0,-2.47978"
         style="font-size:35.4254837px;font-variant:normal;font-stretch:normal;fill:#4d4d4d;font-family:Cuprum;-inkscape-font-specification:Cuprum"
         id="path10378" />
    </g>
    <g
       style="font-size:24.32942009px;font-style:normal;font-weight:normal;line-height:125%;letter-spacing:0px;word-spacing:0px;fill:#4d4d4d;fill-opacity:1;stroke:none;font-family:Sans"
       id="text16094">
      <path
         d="m 473.98933,951.28515 -0.0873,0 0,8.03492 -2.00873,0 0,-12.22705 2.09606,0 3.31878,8.03492 0.0873,0 0,-8.03492 2.00873,0 0,12.22705 -2.09606,0 -3.31878,-8.03492"
         style="font-size:17.46721649px;font-variant:normal;font-weight:bold;font-stretch:normal;fill:#4d4d4d;font-family:Cuprum;-inkscape-font-specification:Cuprum"
         id="path10402" />
    </g>
    <path
       style="fill:none;stroke:#f39c4b;stroke-width:1.82225382;stroke-opacity:1;display:inline"
       d="m 524.84864,949.4369 0,13.40501 -37.096,0 0,-13.40501"
       id="path16098"
       inkscape:connector-curvature="0"
       sodipodi:nodetypes="cccc" />
    <g
       style="font-size:30.45777893px;font-style:normal;font-weight:normal;line-height:125%;letter-spacing:0px;word-spacing:0px;fill:#4d4d4d;fill-opacity:1;stroke:none;font-family:Sans"
       id="text16100">
      <path
         d="m 287.348,825.38745 -1.96803,0 0,-15.30693 2.1867,0 4.48275,10.82419 0.10933,0 0,-10.82419 1.96804,0 0,15.30693 -2.18671,0 -4.48274,-10.82419 -0.10934,0 0,10.82419"
         style="font-size:21.86704636px;font-variant:normal;font-stretch:normal;fill:#4d4d4d;font-family:Cuprum;-inkscape-font-specification:Cuprum"
         id="path10252" />
      <path
         d="m 301.32241,824.2941 c 0.37902,0 0.71432,-0.0583 1.00588,-0.17494 0.30614,-0.1312 0.56125,-0.34987 0.76535,-0.65601 0.20409,-0.32071 0.35715,-0.75076 0.45921,-1.29015 0.11662,-0.53939 0.17493,-1.21727 0.17494,-2.03364 l 0,-10.05884 1.96803,0 0,10.05884 c -1e-5,1.03504 -0.0875,1.90244 -0.26241,2.60218 -0.16036,0.69975 -0.42277,1.261 -0.78721,1.68376 -0.34988,0.42276 -0.8018,0.7289 -1.35576,0.91842 -0.55397,0.17493 -1.20998,0.2624 -1.96803,0.2624 -0.77264,0 -1.43594,-0.0875 -1.9899,-0.2624 -0.53939,-0.18952 -0.99131,-0.49566 -1.35576,-0.91842 -0.34987,-0.42276 -0.61228,-0.98401 -0.78721,-1.68376 -0.16036,-0.69974 -0.24054,-1.56714 -0.24054,-2.60218 l 0,-10.05884 1.96804,0 0,10.05884 c -10e-6,0.81637 0.051,1.49425 0.15306,2.03364 0.11663,0.53939 0.27698,0.96944 0.48108,1.29015 0.20409,0.30614 0.45191,0.52481 0.74348,0.65601 0.30613,0.11663 0.64872,0.17494 1.02775,0.17494"
         style="font-size:21.86704636px;font-variant:normal;font-stretch:normal;fill:#4d4d4d;font-family:Cuprum;-inkscape-font-specification:Cuprum"
         id="path10254" />
      <path
         d="m 310.49632,823.85676 5.46676,0 0,1.53069 -7.43479,0 0,-15.30693 1.96803,0 0,13.77624"
         style="font-size:21.86704636px;font-variant:normal;font-stretch:normal;fill:#4d4d4d;font-family:Cuprum;-inkscape-font-specification:Cuprum"
         id="path10256" />
      <path
         d="m 319.67877,823.85676 5.46676,0 0,1.53069 -7.43479,0 0,-15.30693 1.96803,0 0,13.77624"
         style="font-size:21.86704636px;font-variant:normal;font-stretch:normal;fill:#4d4d4d;font-family:Cuprum;-inkscape-font-specification:Cuprum"
         id="path10258" />
      <path
         d="m 334.54665,816.09396 0,5.79476 c 0,0.49566 0.0437,0.90384 0.1312,1.22456 0.10205,0.30614 0.22596,0.54668 0.37174,0.72161 0.16036,0.17494 0.32801,0.29885 0.50295,0.37174 0.18951,0.0583 0.36444,0.0875 0.52481,0.0875 l 1.96803,0 0,0.87468 c -0.13121,0.0583 -0.30615,0.11663 -0.52481,0.17494 -0.2041,0.0437 -0.42277,0.0875 -0.65601,0.1312 -0.21868,0.0437 -0.43735,0.0729 -0.65601,0.0875 -0.21868,0.0291 -0.40819,0.0437 -0.56855,0.0437 -0.43734,0 -0.84553,-0.051 -1.22455,-0.15307 -0.36445,-0.10204 -0.68517,-0.28427 -0.96215,-0.54667 -0.27699,-0.27699 -0.49566,-0.65601 -0.65601,-1.13709 -0.14578,-0.48107 -0.21867,-1.10793 -0.21867,-1.88057 l 0,-5.79476 -1.31202,0 0,-1.42136 1.31202,0 0,-2.62405 1.96803,0 0,2.62405 3.06139,0 0,0.98402 c -0.3353,0.11663 -0.75078,0.21868 -1.24642,0.30613 -0.48108,0.0875 -0.94029,0.13122 -1.37763,0.13121 l -0.43734,0"
         style="font-size:21.86704636px;font-variant:normal;font-stretch:normal;fill:#4d4d4d;font-family:Cuprum;-inkscape-font-specification:Cuprum"
         id="path10260" />
      <path
         d="m 343.19951,825.60612 c -0.52481,0 -0.9986,-0.051 -1.42135,-0.15307 -0.40819,-0.0875 -0.75806,-0.25511 -1.04962,-0.50294 -0.29157,-0.24783 -0.51752,-0.58312 -0.67788,-1.00588 -0.16036,-0.42276 -0.24054,-0.96215 -0.24054,-1.61817 l 0,-7.87213 1.96804,0 0,7.87213 c -1e-5,0.37904 0.051,0.69975 0.15306,0.96215 0.10205,0.24783 0.24783,0.45193 0.43735,0.61228 0.18951,0.14578 0.40818,0.24783 0.65601,0.30614 0.24782,0.0583 0.5248,0.0875 0.83095,0.0875 0.27697,0 0.56124,-0.0437 0.85281,-0.1312 0.29155,-0.0875 0.51751,-0.18952 0.67788,-0.30614 l 0,-9.40283 1.96803,0 0,10.05884 c -10e-6,1.03504 -0.0875,1.90243 -0.2624,2.60218 -0.16037,0.69974 -0.42277,1.26099 -0.78722,1.68376 -0.34988,0.42276 -0.80179,0.72161 -1.35575,0.89655 -0.55397,0.18951 -1.20998,0.28427 -1.96804,0.28427 -0.43734,0 -0.90384,-0.0437 -1.39949,-0.1312 -0.48108,-0.0875 -0.88926,-0.18952 -1.22455,-0.30614 l 0,-0.87468 2.1867,0 c 0.49565,-10e-6 0.91841,-0.0583 1.26829,-0.17494 0.36445,-0.11663 0.6633,-0.32072 0.89655,-0.61228 0.23324,-0.27698 0.40089,-0.64872 0.50294,-1.11521 0.11662,-0.45192 0.17493,-1.02047 0.17494,-1.70563 -0.3353,0.16035 -0.67789,0.29156 -1.02775,0.3936 -0.3353,0.10205 -0.72162,0.15307 -1.15896,0.15307"
         style="font-size:21.86704636px;font-variant:normal;font-stretch:normal;fill:#4d4d4d;font-family:Cuprum;-inkscape-font-specification:Cuprum"
         id="path10262" />
      <path
         d="m 352.04712,815.10994 c 0.27698,-0.27697 0.61957,-0.48835 1.02776,-0.63414 0.40818,-0.16035 0.83094,-0.24053 1.26828,-0.24054 0.56854,10e-6 1.07877,0.0948 1.5307,0.28427 0.45191,0.17495 0.83094,0.48108 1.13708,0.91842 0.30613,0.43735 0.53938,1.02047 0.69975,1.74936 0.16035,0.72891 0.24053,1.64003 0.24054,2.73338 -1e-5,1.09336 -0.0802,2.00448 -0.24054,2.73338 -0.16037,0.7289 -0.39362,1.31202 -0.69975,1.74936 -0.30614,0.43735 -0.68517,0.75077 -1.13708,0.94029 -0.45193,0.17493 -0.96216,0.2624 -1.5307,0.2624 -0.43734,0 -0.83095,-0.051 -1.18082,-0.15307 -0.3353,-0.10204 -0.67059,-0.23325 -1.00588,-0.3936 l 0,4.70141 -1.96804,0 0,-15.30693 1.64003,0 0.10934,0.65601 0.10933,0 m 0.10934,8.74682 c 0.16035,0.11662 0.38631,0.21867 0.67788,0.30614 0.29155,0.0875 0.57583,0.1312 0.85281,0.1312 0.34987,0 0.6633,-0.0583 0.94029,-0.17494 0.29155,-0.1312 0.53209,-0.35716 0.72161,-0.67788 0.20408,-0.33529 0.35715,-0.78721 0.45921,-1.35575 0.11661,-0.56854 0.17493,-1.29015 0.17493,-2.16484 0,-0.87468 -0.0583,-1.589 -0.17493,-2.14297 -0.10206,-0.56854 -0.25513,-1.01317 -0.45921,-1.33389 -0.18952,-0.33529 -0.43006,-0.56853 -0.72161,-0.69975 -0.27699,-0.13119 -0.59042,-0.19679 -0.94029,-0.1968 -0.27698,10e-6 -0.56126,0.0437 -0.85281,0.1312 -0.29157,0.0875 -0.51753,0.18953 -0.67788,0.30614 l 0,7.87214"
         style="font-size:21.86704636px;font-variant:normal;font-stretch:normal;fill:#4d4d4d;font-family:Cuprum;-inkscape-font-specification:Cuprum"
         id="path10264" />
      <path
         d="m 367.56931,820.5767 -5.68544,0 c 0,0.71433 0.0583,1.31203 0.17494,1.7931 0.11662,0.4665 0.29156,0.84553 0.52481,1.13709 0.24782,0.27698 0.56125,0.48107 0.94028,0.61227 0.39361,0.11663 0.86739,0.17494 1.42136,0.17494 l 2.18671,0 0,0.87468 c -0.33531,0.11663 -0.75078,0.21867 -1.24643,0.30614 -0.48108,0.0875 -0.94028,0.1312 -1.37762,0.1312 -0.81637,0 -1.51612,-0.0875 -2.09924,-0.2624 -0.58312,-0.18952 -1.06419,-0.50294 -1.44322,-0.94029 -0.36445,-0.43734 -0.63415,-1.02046 -0.80908,-1.74936 -0.16036,-0.7289 -0.24054,-1.64002 -0.24054,-2.73338 0,-1.09335 0.0802,-2.00447 0.24054,-2.73338 0.16036,-0.72889 0.40089,-1.31201 0.72161,-1.74936 0.32072,-0.43734 0.72161,-0.74347 1.20269,-0.91842 0.48107,-0.1895 1.03503,-0.28426 1.66189,-0.28427 0.62685,10e-6 1.18082,0.0948 1.6619,0.28427 0.48107,0.17495 0.88196,0.48108 1.20269,0.91842 0.32071,0.43735 0.56124,1.02047 0.72161,1.74936 0.16035,0.72891 0.24053,1.64003 0.24054,2.73338 l 0,0.65601 m -1.96804,-1.31202 c 0,-0.74347 -0.051,-1.35575 -0.15307,-1.83683 -0.10205,-0.49565 -0.24054,-0.88925 -0.41547,-1.18082 -0.16036,-0.29156 -0.35717,-0.49565 -0.59041,-0.61228 -0.21868,-0.13119 -0.45192,-0.19679 -0.69975,-0.1968 -0.24783,10e-6 -0.48836,0.0656 -0.72161,0.1968 -0.21867,0.11663 -0.41548,0.32072 -0.59041,0.61228 -0.16036,0.29157 -0.29156,0.68517 -0.39361,1.18082 -0.10204,0.48108 -0.15307,1.09336 -0.15307,1.83683 l 3.7174,0"
         style="font-size:21.86704636px;font-variant:normal;font-stretch:normal;fill:#4d4d4d;font-family:Cuprum;-inkscape-font-specification:Cuprum"
         id="path10266" />
      <path
         d="m 377.50686,810.08052 0,15.30693 -1.96803,0 0,-15.30693 1.96803,0"
         style="font-size:21.86704636px;font-variant:normal;font-stretch:normal;fill:#4d4d4d;font-family:Cuprum;-inkscape-font-specification:Cuprum"
         id="path10268" />
      <path
         d="m 389.32532,817.73398 c -10e-6,1.5307 -0.10935,2.80628 -0.32801,3.82674 -0.21868,1.00589 -0.54668,1.80768 -0.98402,2.40537 -0.43734,0.5977 -0.98402,1.02047 -1.64002,1.26829 -0.65602,0.24783 -1.42137,0.37174 -2.29604,0.37174 -0.65602,0 -1.2683,-0.0364 -1.83684,-0.10933 -0.55396,-0.0583 -1.10793,-0.16765 -1.66189,-0.32801 l 0,-14.86959 c 0.55396,-0.16034 1.10793,-0.26968 1.66189,-0.32801 0.56854,-0.0729 1.18082,-0.10932 1.83684,-0.10933 0.87467,10e-6 1.64002,0.12393 2.29604,0.37174 0.656,0.24784 1.20268,0.6706 1.64002,1.26829 0.43734,0.59771 0.76534,1.40679 0.98402,2.42724 0.21866,1.00589 0.328,2.27418 0.32801,3.80486 m -1.96804,0 c 0,-1.28285 -0.0802,-2.33976 -0.24053,-3.17072 -0.16037,-0.83093 -0.38633,-1.48694 -0.67788,-1.96803 -0.27699,-0.49564 -0.61958,-0.83822 -1.02775,-1.02775 -0.39362,-0.1895 -0.83825,-0.28426 -1.33389,-0.28427 l -1.5307,0 0,12.90155 1.5307,0 c 0.49564,0 0.94027,-0.0947 1.33389,-0.28427 0.40817,-0.18951 0.75076,-0.52481 1.02775,-1.00588 0.29155,-0.49565 0.51751,-1.15895 0.67788,-1.9899 0.16035,-0.83095 0.24053,-1.88785 0.24053,-3.17073"
         style="font-size:21.86704636px;font-variant:normal;font-stretch:normal;fill:#4d4d4d;font-family:Cuprum;-inkscape-font-specification:Cuprum"
         id="path10270" />
    </g>
    <path
       sodipodi:nodetypes="ccc"
       inkscape:connector-curvature="0"
       id="path16104"
       d="m 279.92443,917.5503 0,-82.65222 117.70281,0"
       style="fill:none;stroke:#919191;stroke-width:0.91112691;stroke-linecap:butt;stroke-linejoin:miter;stroke-miterlimit:4;stroke-opacity:1;stroke-dasharray:0.91112694, 0.91112694;stroke-dashoffset:0" />
    <g
       style="font-size:20.75930977px;font-style:normal;font-weight:normal;line-height:125%;letter-spacing:0px;word-spacing:0px;fill:#a1a1a1;fill-opacity:1;stroke:none;font-family:Sans"
       id="text3481-1">
      <path
         d="m 290.62968,853.43237 -1.34137,0 0,-7.45203 1.34137,0 0,7.45203 m 0,-10.13476 0,1.63944 -1.34137,0 0,-1.63944 1.34137,0"
         style="font-size:14.90406799px;font-variant:normal;font-stretch:normal;fill:#a1a1a1;font-family:Cuprum;-inkscape-font-specification:Cuprum"
         id="path10273" />
      <path
         d="m 293.99008,853.43237 -1.34137,0 0,-7.45203 1.11781,0 0.0745,0.44712 0.0745,0 c 0.18878,-0.18878 0.42228,-0.33285 0.70049,-0.43222 0.27821,-0.10929 0.56635,-0.16393 0.86443,-0.16394 0.3577,10e-6 0.67565,0.0348 0.95387,0.10433 0.28814,0.0596 0.53157,0.17388 0.73029,0.34279 0.19872,0.16892 0.35273,0.39745 0.46203,0.68559 0.10929,0.28815 0.16394,0.65578 0.16395,1.1029 l 0,5.36546 -1.34137,0 0,-5.36546 c -1e-5,-0.25833 -0.0348,-0.47196 -0.10433,-0.64088 -0.0696,-0.17884 -0.16892,-0.31794 -0.29808,-0.41731 -0.12917,-0.10929 -0.27821,-0.18381 -0.44712,-0.22356 -0.16892,-0.0397 -0.3577,-0.0596 -0.56636,-0.0596 -0.18879,10e-6 -0.38254,0.0298 -0.58126,0.0894 -0.19872,0.0596 -0.35273,0.12917 -0.46202,0.20865 l 0,6.40875"
         style="font-size:14.90406799px;font-variant:normal;font-stretch:normal;fill:#a1a1a1;font-family:Cuprum;-inkscape-font-specification:Cuprum"
         id="path10275" />
      <path
         d="m 306.20559,846.72554 c -0.27821,10e-6 -0.52661,0.0447 -0.7452,0.13414 -0.20866,0.0894 -0.38751,0.24841 -0.53655,0.47693 -0.1391,0.2186 -0.2484,0.52165 -0.32789,0.90915 -0.0695,0.37757 -0.10433,0.86444 -0.10433,1.4606 0,0.59616 0.0348,1.088 0.10433,1.4755 0.0795,0.38751 0.19375,0.69552 0.3428,0.92405 0.15897,0.2186 0.35272,0.3726 0.58126,0.46203 0.23846,0.0795 0.51667,0.11923 0.83462,0.11923 l 1.49041,0 0,0.59616 c -0.22853,0.0795 -0.51171,0.14904 -0.84953,0.20866 -0.3279,0.0596 -0.64088,0.0894 -0.93896,0.0894 -0.50674,0 -0.94393,-0.0596 -1.31156,-0.17885 -0.3577,-0.12916 -0.65578,-0.34279 -0.89424,-0.64087 -0.23847,-0.29808 -0.41732,-0.69552 -0.53655,-1.19233 -0.10929,-0.4968 -0.16394,-1.1178 -0.16394,-1.863 0,-0.7452 0.0546,-1.36621 0.16394,-1.86301 0.11923,-0.4968 0.29312,-0.89424 0.52165,-1.19233 0.22852,-0.29807 0.5117,-0.50673 0.84953,-0.62597 0.34776,-0.12916 0.75513,-0.19374 1.22213,-0.19375 0.29808,10e-6 0.61106,0.0298 0.93896,0.0894 0.33782,0.0596 0.62099,0.12918 0.84953,0.20866 l 0,0.59616 -1.49041,0"
         style="font-size:14.90406799px;font-variant:normal;font-stretch:normal;fill:#a1a1a1;font-family:Cuprum;-inkscape-font-specification:Cuprum"
         id="path10277" />
      <path
         d="m 312.4653,849.78088 -1.04329,0 c -0.37757,0 -0.69552,0.0994 -0.95386,0.29808 -0.25833,0.18879 -0.3875,0.56139 -0.3875,1.1178 0,0.29809 0.0348,0.54649 0.10433,0.74521 0.0695,0.18878 0.16394,0.33782 0.28317,0.44712 0.11923,0.1093 0.25834,0.18878 0.41732,0.23846 0.16891,0.0397 0.34776,0.0596 0.53654,0.0596 0.18879,0 0.38254,-0.0298 0.58126,-0.0894 0.19872,-0.0596 0.35273,-0.12917 0.46203,-0.20866 l 0,-2.60821 m -1.49041,3.80053 c -0.33783,0 -0.64584,-0.0348 -0.92405,-0.10432 -0.26827,-0.0596 -0.50177,-0.17885 -0.70049,-0.3577 -0.18879,-0.17885 -0.33783,-0.42228 -0.44712,-0.7303 -0.1093,-0.30802 -0.16395,-0.70546 -0.16395,-1.19233 0,-0.46699 0.0546,-0.84953 0.16395,-1.14761 0.10929,-0.29808 0.25833,-0.53157 0.44712,-0.70049 0.19872,-0.17885 0.43222,-0.29808 0.70049,-0.3577 0.27821,-0.0695 0.58622,-0.10432 0.92405,-0.10433 0.22853,1e-5 0.47693,0.0149 0.74521,0.0447 0.26827,0.0298 0.51667,0.0646 0.7452,0.10433 l 0,-0.67068 c 0,-0.33782 -0.0398,-0.61106 -0.11923,-0.81972 -0.0696,-0.21859 -0.17389,-0.3875 -0.31299,-0.50674 -0.13911,-0.11923 -0.31299,-0.19872 -0.52164,-0.23847 -0.19872,-0.0497 -0.42725,-0.0745 -0.68559,-0.0745 l -1.4904,0 0,-0.59616 c 0.22852,-0.0795 0.50673,-0.14903 0.83462,-0.20866 0.33783,-0.0596 0.65578,-0.0894 0.95386,-0.0894 0.44712,10e-6 0.83463,0.0348 1.16252,0.10433 0.33782,0.0696 0.61603,0.19873 0.83463,0.3875 0.22852,0.17886 0.39744,0.4372 0.50674,0.77501 0.11922,0.3279 0.17884,0.75018 0.17885,1.26685 l 0,5.06738 -1.11781,0 -0.0745,-0.44712 -0.0745,0 c -0.18879,0.18879 -0.42229,0.33783 -0.70049,0.44712 -0.27821,0.0994 -0.56636,0.14904 -0.86444,0.14904"
         style="font-size:14.90406799px;font-variant:normal;font-stretch:normal;fill:#a1a1a1;font-family:Cuprum;-inkscape-font-specification:Cuprum"
         id="path10279" />
      <path
         d="m 316.62679,847.76883 c 0,0.29808 0.0845,0.53655 0.25337,0.71539 0.17885,0.16892 0.39744,0.31796 0.65578,0.44712 0.25834,0.12918 0.53655,0.25338 0.83463,0.37261 0.30801,0.1093 0.59119,0.25337 0.84953,0.43221 0.25834,0.17886 0.47196,0.40739 0.64088,0.68559 0.17884,0.26828 0.26827,0.62597 0.26827,1.07309 0,0.40738 -0.0596,0.74521 -0.17885,1.01348 -0.1093,0.26827 -0.28815,0.4819 -0.53654,0.64088 -0.23847,0.15897 -0.54649,0.26827 -0.92406,0.32789 -0.37757,0.0696 -0.82469,0.10432 -1.34136,0.10432 -0.29809,0 -0.61604,-0.0298 -0.95386,-0.0894 -0.32789,-0.0596 -0.6061,-0.12917 -0.83463,-0.20866 l 0,-0.59616 1.49041,0 c 0.67564,0 1.16748,-0.0845 1.4755,-0.25337 0.30801,-0.17885 0.46202,-0.49183 0.46202,-0.93896 0,-0.29807 -0.0894,-0.53157 -0.26827,-0.70049 -0.16891,-0.17884 -0.38254,-0.33285 -0.64087,-0.46202 -0.25834,-0.12917 -0.54152,-0.2484 -0.84954,-0.3577 -0.29808,-0.11923 -0.57629,-0.26827 -0.83462,-0.44712 -0.25834,-0.17885 -0.47693,-0.40241 -0.65578,-0.67069 -0.16892,-0.2782 -0.25337,-0.64087 -0.25337,-1.08799 0,-0.7452 0.22356,-1.25194 0.67068,-1.52022 0.44712,-0.2782 1.1178,-0.4173 2.01205,-0.41731 0.29808,10e-6 0.61106,0.0298 0.93896,0.0894 0.33782,0.0596 0.621,0.12918 0.84953,0.20866 l 0,0.59616 -1.49041,0 c -0.52661,10e-6 -0.93399,0.0795 -1.22213,0.23847 -0.27821,0.15898 -0.41732,0.42725 -0.41732,0.80482"
         style="font-size:14.90406799px;font-variant:normal;font-stretch:normal;fill:#a1a1a1;font-family:Cuprum;-inkscape-font-specification:Cuprum"
         id="path10281" />
      <path
         d="m 326.53102,850.15348 -3.87506,0 c 0,0.48687 0.0397,0.89424 0.11923,1.22213 0.0795,0.31796 0.19872,0.57629 0.3577,0.77501 0.16891,0.18879 0.38253,0.32789 0.64087,0.41732 0.26827,0.0795 0.59119,0.11923 0.96877,0.11923 l 1.4904,0 0,0.59616 c -0.22853,0.0795 -0.51171,0.14904 -0.84953,0.20866 -0.32789,0.0596 -0.64088,0.0894 -0.93895,0.0894 -0.55642,0 -1.03335,-0.0596 -1.43079,-0.17885 -0.39745,-0.12916 -0.72534,-0.34279 -0.98367,-0.64087 -0.2484,-0.29808 -0.43222,-0.69552 -0.55145,-1.19233 -0.1093,-0.4968 -0.16395,-1.1178 -0.16395,-1.863 0,-0.7452 0.0546,-1.36621 0.16395,-1.86301 0.10929,-0.4968 0.27324,-0.89424 0.49183,-1.19233 0.21859,-0.29807 0.49183,-0.50673 0.81973,-0.62597 0.32788,-0.12916 0.70545,-0.19374 1.1327,-0.19375 0.42725,10e-6 0.80482,0.0646 1.13271,0.19375 0.32789,0.11924 0.60113,0.3279 0.81973,0.62597 0.21858,0.29809 0.38253,0.69553 0.49183,1.19233 0.10929,0.4968 0.16394,1.11781 0.16395,1.86301 l 0,0.44712 m -1.34137,-0.89425 c 0,-0.50673 -0.0348,-0.92404 -0.10433,-1.25194 -0.0696,-0.33782 -0.16395,-0.60609 -0.28318,-0.80482 -0.1093,-0.19871 -0.24343,-0.33782 -0.40241,-0.41731 -0.14904,-0.0894 -0.30802,-0.13413 -0.47693,-0.13414 -0.16891,10e-6 -0.33286,0.0447 -0.49183,0.13414 -0.14904,0.0795 -0.28318,0.2186 -0.40241,0.41731 -0.1093,0.19873 -0.19872,0.467 -0.26827,0.80482 -0.0696,0.3279 -0.10433,0.74521 -0.10433,1.25194 l 2.53369,0"
         style="font-size:14.90406799px;font-variant:normal;font-stretch:normal;fill:#a1a1a1;font-family:Cuprum;-inkscape-font-specification:Cuprum"
         id="path10283" />
      <path
         d="m 335.76339,849.70636 c -1e-5,-0.59616 -0.0398,-1.088 -0.11924,-1.47551 -0.0795,-0.39743 -0.18382,-0.71042 -0.31298,-0.93895 -0.12918,-0.23846 -0.27822,-0.40241 -0.44712,-0.49184 -0.16892,-0.0994 -0.34777,-0.14903 -0.53655,-0.14904 -0.18879,10e-6 -0.36764,0.0497 -0.53655,0.14904 -0.16891,0.0894 -0.31795,0.25338 -0.44712,0.49184 -0.12917,0.22853 -0.2335,0.54152 -0.31298,0.93895 -0.0795,0.38751 -0.11924,0.87935 -0.11924,1.47551 0,0.59616 0.0397,1.09296 0.11924,1.4904 0.0795,0.38751 0.18381,0.7005 0.31298,0.93896 0.12917,0.22853 0.27821,0.39247 0.44712,0.49183 0.16891,0.0894 0.34776,0.13414 0.53655,0.13414 0.18878,0 0.36763,-0.0447 0.53655,-0.13414 0.1689,-0.0994 0.31794,-0.2633 0.44712,-0.49183 0.12916,-0.23846 0.23349,-0.55145 0.31298,-0.93896 0.0795,-0.39744 0.11923,-0.89424 0.11924,-1.4904 m 1.34136,0 c 0,0.72533 -0.0596,1.3364 -0.17885,1.8332 -0.11924,0.4968 -0.29808,0.89921 -0.53654,1.20723 -0.22854,0.29808 -0.51668,0.5117 -0.86444,0.64087 -0.33783,0.12917 -0.7303,0.19375 -1.17742,0.19375 -0.44713,0 -0.84457,-0.0646 -1.19233,-0.19375 -0.33782,-0.12917 -0.62597,-0.34279 -0.86443,-0.64087 -0.22853,-0.30802 -0.40241,-0.71043 -0.52164,-1.20723 -0.11924,-0.4968 -0.17885,-1.10787 -0.17885,-1.8332 0,-0.72533 0.0596,-1.3364 0.17885,-1.8332 0.11923,-0.4968 0.29311,-0.89424 0.52164,-1.19233 0.23846,-0.30801 0.52661,-0.5266 0.86443,-0.65578 0.34776,-0.12916 0.7452,-0.19374 1.19233,-0.19375 0.44712,10e-6 0.83959,0.0646 1.17742,0.19375 0.34776,0.12918 0.6359,0.34777 0.86444,0.65578 0.23846,0.29809 0.4173,0.69553 0.53654,1.19233 0.11923,0.4968 0.17885,1.10787 0.17885,1.8332"
         style="font-size:14.90406799px;font-variant:normal;font-stretch:normal;fill:#a1a1a1;font-family:Cuprum;-inkscape-font-specification:Cuprum"
         id="path10285" />
      <path
         d="m 338.98174,845.53322 c -10e-6,-0.51667 0.0497,-0.93895 0.14904,-1.26685 0.10929,-0.33781 0.25833,-0.59615 0.44712,-0.77501 0.18878,-0.18878 0.40737,-0.31794 0.65578,-0.38751 0.25833,-0.0695 0.53654,-0.10431 0.83462,-0.10432 0.1093,10e-6 0.23847,0.01 0.38751,0.0298 0.14904,0.01 0.29808,0.0298 0.44712,0.0596 0.15897,0.0298 0.30802,0.0646 0.44712,0.10433 0.14904,0.0298 0.26827,0.0646 0.3577,0.10433 l 0,0.59616 -1.34136,0 c -0.1093,10e-6 -0.22854,0.0249 -0.3577,0.0745 -0.11924,0.0398 -0.2335,0.11924 -0.3428,0.23846 -0.0994,0.11925 -0.18381,0.28816 -0.25336,0.50674 -0.0596,0.20867 -0.0894,0.48191 -0.0894,0.81973 l 0,0.59616 2.08657,0 0,0.67068 c -0.22853,0.0795 -0.51171,0.14905 -0.84953,0.20866 -0.32789,0.0596 -0.64088,0.0894 -0.93896,0.0894 l -0.29808,0 0,6.33423 -1.34136,0 0,-6.33423 -0.89425,0 0,-0.96876 0.89425,0 0,-0.59616"
         style="font-size:14.90406799px;font-variant:normal;font-stretch:normal;fill:#a1a1a1;font-family:Cuprum;-inkscape-font-specification:Cuprum"
         id="path10287" />
      <path
         d="m 348.52499,853.43237 -2.01205,-7.45203 1.26685,0 1.68416,6.18519 0.0596,0 1.68416,-6.18519 1.26684,0 -2.01205,7.45203 -1.93753,0"
         style="font-size:14.90406799px;font-variant:normal;font-stretch:normal;fill:#a1a1a1;font-family:Cuprum;-inkscape-font-specification:Cuprum"
         id="path10289" />
      <path
         d="m 356.94463,849.78088 -1.04329,0 c -0.37757,0 -0.69552,0.0994 -0.95386,0.29808 -0.25834,0.18879 -0.3875,0.56139 -0.3875,1.1178 0,0.29809 0.0348,0.54649 0.10433,0.74521 0.0695,0.18878 0.16394,0.33782 0.28317,0.44712 0.11923,0.1093 0.25834,0.18878 0.41732,0.23846 0.16891,0.0397 0.34776,0.0596 0.53654,0.0596 0.18878,0 0.38254,-0.0298 0.58126,-0.0894 0.19872,-0.0596 0.35273,-0.12917 0.46203,-0.20866 l 0,-2.60821 m -1.49041,3.80053 c -0.33783,0 -0.64584,-0.0348 -0.92405,-0.10432 -0.26828,-0.0596 -0.50177,-0.17885 -0.70049,-0.3577 -0.18879,-0.17885 -0.33783,-0.42228 -0.44712,-0.7303 -0.1093,-0.30802 -0.16395,-0.70546 -0.16395,-1.19233 0,-0.46699 0.0546,-0.84953 0.16395,-1.14761 0.10929,-0.29808 0.25833,-0.53157 0.44712,-0.70049 0.19872,-0.17885 0.43221,-0.29808 0.70049,-0.3577 0.27821,-0.0695 0.58622,-0.10432 0.92405,-0.10433 0.22853,1e-5 0.47693,0.0149 0.7452,0.0447 0.26827,0.0298 0.51667,0.0646 0.74521,0.10433 l 0,-0.67068 c -1e-5,-0.33782 -0.0398,-0.61106 -0.11923,-0.81972 -0.0696,-0.21859 -0.17389,-0.3875 -0.31299,-0.50674 -0.13911,-0.11923 -0.31299,-0.19872 -0.52164,-0.23847 -0.19873,-0.0497 -0.42726,-0.0745 -0.68559,-0.0745 l -1.49041,0 0,-0.59616 c 0.22853,-0.0795 0.50674,-0.14903 0.83463,-0.20866 0.33782,-0.0596 0.65578,-0.0894 0.95386,-0.0894 0.44712,10e-6 0.83463,0.0348 1.16252,0.10433 0.33782,0.0696 0.61603,0.19873 0.83463,0.3875 0.22852,0.17886 0.39743,0.4372 0.50674,0.77501 0.11922,0.3279 0.17884,0.75018 0.17884,1.26685 l 0,5.06738 -1.1178,0 -0.0745,-0.44712 -0.0745,0 c -0.18879,0.18879 -0.42229,0.33783 -0.70049,0.44712 -0.27822,0.0994 -0.56636,0.14904 -0.86444,0.14904"
         style="font-size:14.90406799px;font-variant:normal;font-stretch:normal;fill:#a1a1a1;font-family:Cuprum;-inkscape-font-specification:Cuprum"
         id="path10291" />
      <path
         d="m 360.2864,842.99953 1.34137,0 0,10.43284 -1.34137,0 0,-10.43284"
         style="font-size:14.90406799px;font-variant:normal;font-stretch:normal;fill:#a1a1a1;font-family:Cuprum;-inkscape-font-specification:Cuprum"
         id="path10293" />
      <path
         d="m 367.44734,845.98034 1.34137,0 0,7.45203 -1.11781,0 -0.0745,-0.44712 -0.0745,0 c -0.18879,0.18879 -0.42228,0.33783 -0.70049,0.44712 -0.27821,0.0994 -0.56636,0.14904 -0.86444,0.14904 -0.3577,0 -0.68062,-0.0348 -0.96876,-0.10432 -0.27821,-0.0596 -0.51668,-0.17389 -0.7154,-0.3428 -0.19872,-0.16891 -0.35273,-0.39744 -0.46202,-0.68559 -0.1093,-0.28814 -0.16395,-0.65577 -0.16395,-1.1029 l 0,-5.36546 1.34137,0 0,5.36546 c 0,0.25834 0.0348,0.47694 0.10433,0.65578 0.0696,0.16892 0.16891,0.30802 0.29808,0.41732 0.12917,0.0994 0.27821,0.16891 0.44712,0.20865 0.16891,0.0397 0.3577,0.0596 0.56636,0.0596 0.18878,0 0.38253,-0.0298 0.58126,-0.0894 0.19871,-0.0596 0.35272,-0.12917 0.46202,-0.20866 l 0,-6.40875"
         style="font-size:14.90406799px;font-variant:normal;font-stretch:normal;fill:#a1a1a1;font-family:Cuprum;-inkscape-font-specification:Cuprum"
         id="path10295" />
      <path
         d="m 375.63875,850.15348 -3.87505,0 c 0,0.48687 0.0397,0.89424 0.11923,1.22213 0.0795,0.31796 0.19872,0.57629 0.3577,0.77501 0.16891,0.18879 0.38253,0.32789 0.64087,0.41732 0.26827,0.0795 0.59119,0.11923 0.96877,0.11923 l 1.4904,0 0,0.59616 c -0.22853,0.0795 -0.51171,0.14904 -0.84953,0.20866 -0.32789,0.0596 -0.64088,0.0894 -0.93895,0.0894 -0.55643,0 -1.03336,-0.0596 -1.4308,-0.17885 -0.39744,-0.12916 -0.72533,-0.34279 -0.98366,-0.64087 -0.24841,-0.29808 -0.43222,-0.69552 -0.55145,-1.19233 -0.1093,-0.4968 -0.16395,-1.1178 -0.16395,-1.863 0,-0.7452 0.0547,-1.36621 0.16395,-1.86301 0.10929,-0.4968 0.27324,-0.89424 0.49183,-1.19233 0.21859,-0.29807 0.49183,-0.50673 0.81972,-0.62597 0.32789,-0.12916 0.70546,-0.19374 1.13271,-0.19375 0.42725,10e-6 0.80482,0.0646 1.13271,0.19375 0.32789,0.11924 0.60113,0.3279 0.81973,0.62597 0.21858,0.29809 0.38253,0.69553 0.49183,1.19233 0.10929,0.4968 0.16394,1.11781 0.16394,1.86301 l 0,0.44712 m -1.34136,-0.89425 c -1e-5,-0.50673 -0.0348,-0.92404 -0.10433,-1.25194 -0.0696,-0.33782 -0.16395,-0.60609 -0.28318,-0.80482 -0.1093,-0.19871 -0.24343,-0.33782 -0.40241,-0.41731 -0.14904,-0.0894 -0.30802,-0.13413 -0.47693,-0.13414 -0.16891,10e-6 -0.33286,0.0447 -0.49183,0.13414 -0.14904,0.0795 -0.28318,0.2186 -0.40241,0.41731 -0.1093,0.19873 -0.19872,0.467 -0.26827,0.80482 -0.0696,0.3279 -0.10433,0.74521 -0.10433,1.25194 l 2.53369,0"
         style="font-size:14.90406799px;font-variant:normal;font-stretch:normal;fill:#a1a1a1;font-family:Cuprum;-inkscape-font-specification:Cuprum"
         id="path10297" />
      <path
         d="m 382.41196,853.43237 -1.34137,0 0,-7.45203 1.34137,0 0,7.45203 m 0,-10.13476 0,1.63944 -1.34137,0 0,-1.63944 1.34137,0"
         style="font-size:14.90406799px;font-variant:normal;font-stretch:normal;fill:#a1a1a1;font-family:Cuprum;-inkscape-font-specification:Cuprum"
         id="path10299" />
      <path
         d="m 385.32524,847.76883 c -1e-5,0.29808 0.0845,0.53655 0.25336,0.71539 0.17885,0.16892 0.39744,0.31796 0.65578,0.44712 0.25834,0.12918 0.53655,0.25338 0.83463,0.37261 0.30801,0.1093 0.59119,0.25337 0.84953,0.43221 0.25834,0.17886 0.47196,0.40739 0.64088,0.68559 0.17884,0.26828 0.26827,0.62597 0.26827,1.07309 0,0.40738 -0.0596,0.74521 -0.17885,1.01348 -0.1093,0.26827 -0.28815,0.4819 -0.53654,0.64088 -0.23847,0.15897 -0.54649,0.26827 -0.92406,0.32789 -0.37757,0.0696 -0.82469,0.10432 -1.34136,0.10432 -0.29809,0 -0.61604,-0.0298 -0.95386,-0.0894 -0.32789,-0.0596 -0.6061,-0.12917 -0.83463,-0.20866 l 0,-0.59616 1.49041,0 c 0.67564,0 1.16748,-0.0845 1.4755,-0.25337 0.30801,-0.17885 0.46202,-0.49183 0.46203,-0.93896 -1e-5,-0.29807 -0.0894,-0.53157 -0.26828,-0.70049 -0.16891,-0.17884 -0.38254,-0.33285 -0.64087,-0.46202 -0.25834,-0.12917 -0.54152,-0.2484 -0.84953,-0.3577 -0.29809,-0.11923 -0.5763,-0.26827 -0.83463,-0.44712 -0.25834,-0.17885 -0.47693,-0.40241 -0.65578,-0.67069 -0.16891,-0.2782 -0.25337,-0.64087 -0.25337,-1.08799 0,-0.7452 0.22356,-1.25194 0.67068,-1.52022 0.44712,-0.2782 1.11781,-0.4173 2.01205,-0.41731 0.29808,10e-6 0.61106,0.0298 0.93896,0.0894 0.33782,0.0596 0.621,0.12918 0.84953,0.20866 l 0,0.59616 -1.49041,0 c -0.52661,10e-6 -0.93399,0.0795 -1.22213,0.23847 -0.27821,0.15898 -0.41732,0.42725 -0.41731,0.80482"
         style="font-size:14.90406799px;font-variant:normal;font-stretch:normal;fill:#a1a1a1;font-family:Cuprum;-inkscape-font-specification:Cuprum"
         id="path10301" />
      <path
         d="m 395.45301,853.43237 -1.34137,0 0,-10.43284 1.49041,0 3.05533,7.37751 0.0745,0 0,-7.37751 1.34136,0 0,10.43284 -1.49041,0 -3.05533,-7.37751 -0.0745,0 0,7.37751"
         style="font-size:14.90406799px;font-variant:normal;font-stretch:normal;fill:#a1a1a1;font-family:Cuprum;-inkscape-font-specification:Cuprum"
         id="path10303" />
      <path
         d="m 404.97764,852.68717 c 0.25834,0 0.48686,-0.0397 0.68559,-0.11923 0.20865,-0.0894 0.38253,-0.23847 0.52164,-0.44712 0.1391,-0.2186 0.24343,-0.51171 0.31299,-0.87934 0.0795,-0.36764 0.11922,-0.82966 0.11923,-1.38608 l 0,-6.85587 1.34137,0 0,6.85587 c -10e-6,0.70546 -0.0596,1.29665 -0.17885,1.77358 -0.10931,0.47693 -0.28815,0.85947 -0.53655,1.14761 -0.23847,0.28815 -0.54649,0.49681 -0.92405,0.62597 -0.37758,0.11924 -0.8247,0.17885 -1.34137,0.17885 -0.52661,0 -0.9787,-0.0596 -1.35627,-0.17885 -0.36763,-0.12916 -0.67565,-0.33782 -0.92405,-0.62597 -0.23847,-0.28814 -0.41731,-0.67068 -0.53655,-1.14761 -0.10929,-0.47693 -0.16394,-1.06812 -0.16394,-1.77358 l 0,-6.85587 1.34137,0 0,6.85587 c -10e-6,0.55642 0.0348,1.01844 0.10432,1.38608 0.0795,0.36763 0.18879,0.66074 0.32789,0.87934 0.1391,0.20865 0.30802,0.35769 0.50674,0.44712 0.20865,0.0795 0.44215,0.11923 0.70049,0.11923"
         style="font-size:14.90406799px;font-variant:normal;font-stretch:normal;fill:#a1a1a1;font-family:Cuprum;-inkscape-font-specification:Cuprum"
         id="path10305" />
      <path
         d="m 411.23037,852.38909 3.72602,0 0,1.04328 -5.06739,0 0,-10.43284 1.34137,0 0,9.38956"
         style="font-size:14.90406799px;font-variant:normal;font-stretch:normal;fill:#a1a1a1;font-family:Cuprum;-inkscape-font-specification:Cuprum"
         id="path10307" />
      <path
         d="m 417.48891,852.38909 3.72602,0 0,1.04328 -5.06738,0 0,-10.43284 1.34136,0 0,9.38956"
         style="font-size:14.90406799px;font-variant:normal;font-stretch:normal;fill:#a1a1a1;font-family:Cuprum;-inkscape-font-specification:Cuprum"
         id="path10309" />
    </g>
  </g>
</svg>
